SplineFontDB: 3.0
FontName: Merriweather
FullName: Merriweather
FamilyName: Merriweather
Weight: Book
Copyright: Copyright (c) 2010 by Eben Sorkin (eben@eyebytes.com),with Reserved Font Name Merriweather.This Font Software is licensed under the SIL Open Font License, Version 1.1.This license is copied below, and is also available with a FAQ at:http://scripts.sil.org/OFL
Version: 1.286
ItalicAngle: 0
UnderlinePosition: -72
UnderlineWidth: 120
Ascent: 1638
Descent: 410
LayerCount: 2
Layer: 0 1 "Back"  1
Layer: 1 1 "Fore"  0
XUID: [1021 631 1661839179 1727323]
FSType: 0
OS2Version: 3
OS2_WeightWidthSlopeOnly: 0
OS2_UseTypoMetrics: 1
CreationTime: 1303527660
ModificationTime: 1303569132
PfmFamily: 17
TTFWeight: 400
TTFWidth: 5
LineGap: 0
VLineGap: 0
Panose: 2 6 5 3 5 4 6 3 7 4
OS2TypoAscent: 382
OS2TypoAOffset: 1
OS2TypoDescent: -130
OS2TypoDOffset: 1
OS2TypoLinegap: 0
OS2WinAscent: -55
OS2WinAOffset: 1
OS2WinDescent: -22
OS2WinDOffset: 1
HheadAscent: -55
HheadAOffset: 1
HheadDescent: 22
HheadDOffset: 1
OS2SubXSize: 1434
OS2SubYSize: 1331
OS2SubXOff: 0
OS2SubYOff: 287
OS2SupXSize: 1434
OS2SupYSize: 1331
OS2SupXOff: 0
OS2SupYOff: 977
OS2StrikeYSize: 85
OS2StrikeYPos: 520
OS2FamilyClass: 768
OS2Vendor: 'eye '
OS2CodePages: 00000001.00000000
OS2UnicodeRanges: 800000a7.50000000.00000000.00000000
Lookup: 4 0 0 "'dlig' Discretionary Ligatures in Latin lookup 0"  {"'dlig' Discretionary Ligatures in Latin lookup 0 subtable"  } ['dlig' ('latn' <'dflt' > ) ]
Lookup: 258 0 0 "'kern' Horizontal Kerning in Latin lookup 0"  {"'kern' Horizontal Kerning in Latin lookup 0 subtable"  } ['kern' ('latn' <'dflt' > ) ]
DEI: 91125
TtTable: prep
PUSHW_1
 511
SCANCTRL
PUSHB_1
 4
SCANTYPE
EndTTInstrs
ShortTable: maxp 16
  1
  0
  273
  136
  5
  0
  0
  1
  0
  0
  0
  0
  0
  0
  0
  0
EndShort

StartChar: .notdef
Encoding: 65536 -1 0
Width: 1259
Flags: W
LayerCount: 2
Fore
SplineSet
74 1330 m 1,0,-1
 1187 1330 l 1,1,-1
 1187 210 l 1,2,-1
 74 210 l 1,3,-1
 74 1330 l 1,0,-1
632 670 m 1,4,-1
 925 367 l 1,5,-1
 1038 480 l 1,6,-1
 734 773 l 1,7,-1
 1038 1057 l 1,8,-1
 919 1173 l 1,9,-1
 635 872 l 1,10,-1
 346 1174 l 1,11,-1
 232 1058 l 1,12,-1
 532 770 l 1,13,-1
 233 502 l 1,14,-1
 352 367 l 1,15,-1
 632 670 l 1,4,-1
EndSplineSet
EndChar

StartChar: quotesingle
Encoding: 39 39 4
Width: 786
Flags: W
LayerCount: 2
Fore
SplineSet
279 1782 m 1,0,-1
 499 1782 l 1,1,-1
 447 1036 l 1,2,-1
 331 1036 l 1,3,-1
 279 1782 l 1,0,-1
EndSplineSet
EndChar

StartChar: quotedbl
Encoding: 34 34 5
Width: 1140
Flags: W
LayerCount: 2
Fore
SplineSet
709 1782 m 1,0,-1
 929 1782 l 1,1,-1
 877 1036 l 1,2,-1
 761 1036 l 1,3,-1
 709 1782 l 1,0,-1
269 1782 m 1,4,-1
 489 1782 l 1,5,-1
 437 1036 l 1,6,-1
 321 1036 l 1,7,-1
 269 1782 l 1,4,-1
EndSplineSet
EndChar

StartChar: quotesinglbase
Encoding: 8218 8218 6
Width: 766
Flags: W
LayerCount: 2
Fore
SplineSet
300 120 m 1,0,-1
 422 275 l 1,1,2
 481 260 481 260 522.5 223 c 128,-1,3
 564 186 564 186 590 139.5 c 128,-1,4
 616 93 616 93 627.5 43 c 128,-1,5
 639 -7 639 -7 639 -47 c 0,6,7
 639 -132 639 -132 610 -207.5 c 128,-1,8
 581 -283 581 -283 535 -345 c 128,-1,9
 489 -407 489 -407 432.5 -452.5 c 128,-1,10
 376 -498 376 -498 321 -522 c 1,11,-1
 265 -470 l 1,12,-1
 265 -434 l 1,13,14
 296 -422 296 -422 329 -390 c 128,-1,15
 362 -358 362 -358 389.5 -315 c 128,-1,16
 417 -272 417 -272 435 -222 c 128,-1,17
 453 -172 453 -172 453 -124 c 0,18,19
 453 -86 453 -86 440 -51.5 c 128,-1,20
 427 -17 427 -17 405.5 10 c 128,-1,21
 384 37 384 37 356.5 54.5 c 128,-1,22
 329 72 329 72 300 75 c 1,23,-1
 300 120 l 1,0,-1
EndSplineSet
EndChar

StartChar: quoteleft
Encoding: 8216 8216 7
Width: 770
Flags: W
LayerCount: 2
Fore
SplineSet
344 940 m 1,0,1
 285 955 285 955 243.5 992 c 128,-1,2
 202 1029 202 1029 176 1075.5 c 128,-1,3
 150 1122 150 1122 138.5 1171.5 c 128,-1,4
 127 1221 127 1221 127 1262 c 0,5,6
 127 1347 127 1347 156 1423 c 128,-1,7
 185 1499 185 1499 231 1560.5 c 128,-1,8
 277 1622 277 1622 333.5 1667.5 c 128,-1,9
 390 1713 390 1713 445 1737 c 1,10,-1
 501 1685 l 1,11,-1
 501 1649 l 1,12,13
 470 1637 470 1637 437 1605 c 128,-1,14
 404 1573 404 1573 376.5 1530 c 128,-1,15
 349 1487 349 1487 331 1437 c 128,-1,16
 313 1387 313 1387 313 1339 c 0,17,18
 313 1301 313 1301 326 1266.5 c 128,-1,19
 339 1232 339 1232 360.5 1205 c 128,-1,20
 382 1178 382 1178 409.5 1160.5 c 128,-1,21
 437 1143 437 1143 466 1140 c 1,22,-1
 466 1095 l 1,23,-1
 344 940 l 1,24,-1
 344 940 l 1,0,1
EndSplineSet
EndChar

StartChar: quoteright
Encoding: 8217 8217 8
Width: 770
Flags: W
LayerCount: 2
Fore
SplineSet
269 981 m 1,0,-1
 269 1017 l 1,1,2
 300 1029 300 1029 333 1061 c 128,-1,3
 366 1093 366 1093 393.5 1136 c 128,-1,4
 421 1179 421 1179 439 1229 c 128,-1,5
 457 1279 457 1279 457 1327 c 0,6,7
 457 1365 457 1365 444 1399.5 c 128,-1,8
 431 1434 431 1434 409.5 1461 c 128,-1,9
 388 1488 388 1488 360.5 1505.5 c 128,-1,10
 333 1523 333 1523 304 1526 c 1,11,-1
 304 1571 l 1,12,-1
 426 1726 l 1,13,14
 485 1711 485 1711 526.5 1674 c 128,-1,15
 568 1637 568 1637 594 1590.5 c 128,-1,16
 620 1544 620 1544 631.5 1494 c 128,-1,17
 643 1444 643 1444 643 1404 c 0,18,19
 643 1319 643 1319 614 1243 c 128,-1,20
 585 1167 585 1167 539 1105.5 c 128,-1,21
 493 1044 493 1044 436.5 998.5 c 128,-1,22
 380 953 380 953 325 929 c 1,23,-1
 269 981 l 1,0,-1
EndSplineSet
EndChar

StartChar: quotedblleft
Encoding: 8220 8220 9
Width: 1301
Flags: W
LayerCount: 2
Fore
SplineSet
875 809 m 1,0,1
 816 824 816 824 774.5 861 c 128,-1,2
 733 898 733 898 707 944.5 c 128,-1,3
 681 991 681 991 669.5 1040.5 c 128,-1,4
 658 1090 658 1090 658 1131 c 0,5,6
 658 1216 658 1216 687 1292 c 128,-1,7
 716 1368 716 1368 762 1429.5 c 128,-1,8
 808 1491 808 1491 864.5 1536.5 c 128,-1,9
 921 1582 921 1582 976 1606 c 1,10,-1
 1032 1554 l 1,11,-1
 1032 1518 l 1,12,13
 1001 1506 1001 1506 968 1474 c 128,-1,14
 935 1442 935 1442 907.5 1399 c 128,-1,15
 880 1356 880 1356 862 1306 c 128,-1,16
 844 1256 844 1256 844 1208 c 0,17,18
 844 1170 844 1170 857 1135.5 c 128,-1,19
 870 1101 870 1101 891.5 1074 c 128,-1,20
 913 1047 913 1047 940.5 1029.5 c 128,-1,21
 968 1012 968 1012 997 1009 c 1,22,-1
 997 964 l 1,23,-1
 875 809 l 1,0,1
344 809 m 1,24,25
 285 824 285 824 243.5 861 c 128,-1,26
 202 898 202 898 176 944.5 c 128,-1,27
 150 991 150 991 138.5 1040.5 c 128,-1,28
 127 1090 127 1090 127 1131 c 0,29,30
 127 1216 127 1216 156 1292 c 128,-1,31
 185 1368 185 1368 231 1429.5 c 128,-1,32
 277 1491 277 1491 333.5 1536.5 c 128,-1,33
 390 1582 390 1582 445 1606 c 1,34,-1
 501 1554 l 1,35,-1
 501 1518 l 1,36,37
 470 1506 470 1506 437 1474 c 128,-1,38
 404 1442 404 1442 376.5 1399 c 128,-1,39
 349 1356 349 1356 331 1306 c 128,-1,40
 313 1256 313 1256 313 1208 c 0,41,42
 313 1170 313 1170 326 1135.5 c 128,-1,43
 339 1101 339 1101 360.5 1074 c 128,-1,44
 382 1047 382 1047 409.5 1029.5 c 128,-1,45
 437 1012 437 1012 466 1009 c 1,46,-1
 466 964 l 1,47,-1
 344 809 l 1,24,25
EndSplineSet
EndChar

StartChar: quotedblright
Encoding: 8221 8221 10
Width: 1301
Flags: W
LayerCount: 2
Fore
SplineSet
800 981 m 1,0,-1
 800 1017 l 1,1,2
 831 1029 831 1029 864 1061 c 128,-1,3
 897 1093 897 1093 924.5 1136 c 128,-1,4
 952 1179 952 1179 970 1229 c 128,-1,5
 988 1279 988 1279 988 1327 c 0,6,7
 988 1365 988 1365 975 1399.5 c 128,-1,8
 962 1434 962 1434 940.5 1461 c 128,-1,9
 919 1488 919 1488 891.5 1505.5 c 128,-1,10
 864 1523 864 1523 835 1526 c 1,11,-1
 835 1571 l 1,12,-1
 957 1726 l 1,13,14
 1016 1711 1016 1711 1057.5 1674 c 128,-1,15
 1099 1637 1099 1637 1125 1590.5 c 128,-1,16
 1151 1544 1151 1544 1162.5 1494 c 128,-1,17
 1174 1444 1174 1444 1174 1404 c 0,18,19
 1174 1319 1174 1319 1145 1243 c 128,-1,20
 1116 1167 1116 1167 1070 1105.5 c 128,-1,21
 1024 1044 1024 1044 967.5 998.5 c 128,-1,22
 911 953 911 953 856 929 c 1,23,-1
 800 981 l 1,0,-1
269 981 m 1,24,-1
 269 1017 l 1,25,26
 300 1029 300 1029 333 1061 c 128,-1,27
 366 1093 366 1093 393.5 1136 c 128,-1,28
 421 1179 421 1179 439 1229 c 128,-1,29
 457 1279 457 1279 457 1327 c 0,30,31
 457 1365 457 1365 444 1399.5 c 128,-1,32
 431 1434 431 1434 409.5 1461 c 128,-1,33
 388 1488 388 1488 360.5 1505.5 c 128,-1,34
 333 1523 333 1523 304 1526 c 1,35,-1
 304 1571 l 1,36,-1
 426 1726 l 1,37,38
 485 1711 485 1711 526.5 1674 c 128,-1,39
 568 1637 568 1637 594 1590.5 c 128,-1,40
 620 1544 620 1544 631.5 1494 c 128,-1,41
 643 1444 643 1444 643 1404 c 0,42,43
 643 1319 643 1319 614 1243 c 128,-1,44
 585 1167 585 1167 539 1105.5 c 128,-1,45
 493 1044 493 1044 436.5 998.5 c 128,-1,46
 380 953 380 953 325 929 c 1,47,-1
 269 981 l 1,24,-1
EndSplineSet
EndChar

StartChar: quotedblbase
Encoding: 8222 8222 11
Width: 1301
Flags: W
LayerCount: 2
Fore
SplineSet
835 120 m 1,0,-1
 957 275 l 1,1,2
 1016 260 1016 260 1057.5 223 c 128,-1,3
 1099 186 1099 186 1125 139.5 c 128,-1,4
 1151 93 1151 93 1162.5 43 c 128,-1,5
 1174 -7 1174 -7 1174 -47 c 0,6,7
 1174 -132 1174 -132 1145 -208 c 128,-1,8
 1116 -284 1116 -284 1070 -345.5 c 128,-1,9
 1024 -407 1024 -407 967.5 -452.5 c 128,-1,10
 911 -498 911 -498 856 -522 c 1,11,-1
 800 -470 l 1,12,-1
 800 -434 l 1,13,14
 831 -422 831 -422 864 -390 c 128,-1,15
 897 -358 897 -358 924.5 -315 c 128,-1,16
 952 -272 952 -272 970 -222 c 128,-1,17
 988 -172 988 -172 988 -124 c 0,18,19
 988 -86 988 -86 975 -51.5 c 128,-1,20
 962 -17 962 -17 940.5 10 c 128,-1,21
 919 37 919 37 891.5 54.5 c 128,-1,22
 864 72 864 72 835 75 c 1,23,-1
 835 120 l 1,0,-1
304 120 m 1,24,-1
 426 275 l 1,25,26
 485 260 485 260 526.5 223 c 128,-1,27
 568 186 568 186 594 139.5 c 128,-1,28
 620 93 620 93 631.5 43 c 128,-1,29
 643 -7 643 -7 643 -47 c 0,30,31
 643 -132 643 -132 614 -208 c 128,-1,32
 585 -284 585 -284 539 -345.5 c 128,-1,33
 493 -407 493 -407 436.5 -452.5 c 128,-1,34
 380 -498 380 -498 325 -522 c 1,35,-1
 269 -470 l 1,36,-1
 269 -434 l 1,37,38
 300 -422 300 -422 333 -390 c 128,-1,39
 366 -358 366 -358 393.5 -315 c 128,-1,40
 421 -272 421 -272 439 -222 c 128,-1,41
 457 -172 457 -172 457 -124 c 0,42,43
 457 -86 457 -86 444 -51.5 c 128,-1,44
 431 -17 431 -17 409.5 10 c 128,-1,45
 388 37 388 37 360.5 54.5 c 128,-1,46
 333 72 333 72 304 75 c 1,47,-1
 304 120 l 1,24,-1
EndSplineSet
EndChar

StartChar: guilsinglright
Encoding: 8250 8250 12
Width: 1189
Flags: W
LayerCount: 2
Fore
SplineSet
245 246 m 1,0,-1
 761 615 l 1,1,-1
 245 986 l 1,2,-1
 296 1075 l 1,3,-1
 944 749 l 1,4,-1
 944 506 l 1,5,-1
 296 163 l 1,6,-1
 245 246 l 1,0,-1
EndSplineSet
EndChar

StartChar: guilsinglleft
Encoding: 8249 8249 13
Width: 1189
Flags: W
LayerCount: 2
Fore
SplineSet
245 732 m 1,0,-1
 893 1075 l 1,1,-1
 944 992 l 1,2,-1
 427 623 l 1,3,-1
 944 252 l 1,4,-1
 893 163 l 1,5,-1
 245 489 l 1,6,-1
 245 732 l 1,0,-1
EndSplineSet
EndChar

StartChar: guillemotright
Encoding: 187 187 14
Width: 1897
Flags: W
LayerCount: 2
Fore
SplineSet
1469 615 m 1,0,-1
 953 986 l 1,1,-1
 1004 1075 l 1,2,-1
 1652 749 l 1,3,-1
 1652 506 l 1,4,-1
 1004 163 l 1,5,-1
 953 246 l 1,6,-1
 1469 615 l 1,0,-1
245 246 m 1,7,-1
 761 615 l 1,8,-1
 245 986 l 1,9,-1
 296 1075 l 1,10,-1
 944 749 l 1,11,-1
 944 506 l 1,12,-1
 296 163 l 1,13,-1
 245 246 l 1,7,-1
EndSplineSet
EndChar

StartChar: guillemotleft
Encoding: 171 171 15
Width: 1897
Flags: W
LayerCount: 2
Fore
SplineSet
953 732 m 1,0,-1
 1601 1075 l 1,1,-1
 1652 992 l 1,2,-1
 1135 623 l 1,3,-1
 1652 252 l 1,4,-1
 1601 163 l 1,5,-1
 953 489 l 1,6,-1
 953 732 l 1,0,-1
245 732 m 1,7,-1
 893 1075 l 1,8,-1
 944 992 l 1,9,-1
 427 623 l 1,10,-1
 944 252 l 1,11,-1
 893 163 l 1,12,-1
 245 489 l 1,13,-1
 245 732 l 1,7,-1
EndSplineSet
EndChar

StartChar: dagger
Encoding: 8224 8224 16
Width: 886
Flags: W
LayerCount: 2
Fore
SplineSet
332 1000 m 1,0,-1
 347 1135 l 1,1,-1
 65 1131 l 1,2,3
 65 1168 65 1168 65.5 1204.5 c 128,-1,4
 66 1241 66 1241 66 1278 c 1,5,-1
 367 1274 l 1,6,-1
 347 1472 l 1,7,-1
 342 1648 l 1,8,-1
 540 1648 l 1,9,-1
 535 1472 l 1,10,-1
 514 1274 l 1,11,-1
 793 1278 l 1,12,13
 793 1241 793 1241 793.5 1204.5 c 128,-1,14
 794 1168 794 1168 794 1131 c 1,15,-1
 534 1135 l 1,16,-1
 550 1000 l 1,17,-1
 500 283 l 1,18,-1
 382 283 l 1,19,-1
 332 1000 l 1,0,-1
EndSplineSet
EndChar

StartChar: parenleft
Encoding: 40 40 17
Width: 889
Flags: W
LayerCount: 2
Fore
SplineSet
624 -310 m 1,0,1
 601 -296 601 -296 557 -261 c 128,-1,2
 513 -226 513 -226 460.5 -167.5 c 128,-1,3
 408 -109 408 -109 353 -26 c 128,-1,4
 298 57 298 57 253.5 166 c 128,-1,5
 209 275 209 275 180.5 412 c 128,-1,6
 152 549 152 549 152 715 c 0,7,8
 152 860 152 860 180.5 986.5 c 128,-1,9
 209 1113 209 1113 253.5 1219 c 128,-1,10
 298 1325 298 1325 353 1410 c 128,-1,11
 408 1495 408 1495 460.5 1557 c 128,-1,12
 513 1619 513 1619 557 1657 c 128,-1,13
 601 1695 601 1695 624 1708 c 1,14,-1
 712 1656 l 1,15,16
 691 1642 691 1642 656 1608 c 128,-1,17
 621 1574 621 1574 580.5 1519.5 c 128,-1,18
 540 1465 540 1465 498.5 1390.5 c 128,-1,19
 457 1316 457 1316 422 1221.5 c 128,-1,20
 387 1127 387 1127 363.5 1012.5 c 128,-1,21
 340 898 340 898 336 764 c 0,22,23
 331 615 331 615 351.5 487 c 128,-1,24
 372 359 372 359 407 252.5 c 128,-1,25
 442 146 442 146 486.5 61.5 c 128,-1,26
 531 -23 531 -23 576 -86 c 128,-1,27
 621 -149 621 -149 660.5 -189.5 c 128,-1,28
 700 -230 700 -230 725 -248 c 1,29,-1
 624 -310 l 1,30,-1
 624 -310 l 1,0,1
EndSplineSet
EndChar

StartChar: parenright
Encoding: 41 41 18
Width: 889
Flags: W
LayerCount: 2
Fore
SplineSet
177 -258 m 1,0,1
 198 -244 198 -244 233 -210 c 128,-1,2
 268 -176 268 -176 308.5 -121.5 c 128,-1,3
 349 -67 349 -67 390.5 7.5 c 128,-1,4
 432 82 432 82 467 176.5 c 128,-1,5
 502 271 502 271 525.5 385 c 128,-1,6
 549 499 549 499 553 634 c 0,7,8
 557 783 557 783 537 911 c 128,-1,9
 517 1039 517 1039 482 1145.5 c 128,-1,10
 447 1252 447 1252 402.5 1336.5 c 128,-1,11
 358 1421 358 1421 313 1484 c 128,-1,12
 268 1547 268 1547 228.5 1587.5 c 128,-1,13
 189 1628 189 1628 164 1646 c 1,14,-1
 265 1708 l 1,15,16
 288 1694 288 1694 332 1659 c 128,-1,17
 376 1624 376 1624 428.5 1565.5 c 128,-1,18
 481 1507 481 1507 536 1424 c 128,-1,19
 591 1341 591 1341 635.5 1232 c 128,-1,20
 680 1123 680 1123 708.5 986 c 128,-1,21
 737 849 737 849 737 683 c 0,22,23
 737 538 737 538 708.5 411.5 c 128,-1,24
 680 285 680 285 635.5 179 c 128,-1,25
 591 73 591 73 536 -12 c 128,-1,26
 481 -97 481 -97 428.5 -159 c 128,-1,27
 376 -221 376 -221 332 -259 c 128,-1,28
 288 -297 288 -297 265 -310 c 1,29,-1
 177 -258 l 1,30,-1
 177 -258 l 1,0,1
EndSplineSet
EndChar

StartChar: braceleft
Encoding: 123 123 19
Width: 1066
Flags: W
LayerCount: 2
Fore
SplineSet
361 579 m 2,0,1
 361 599 361 599 338 619 c 128,-1,2
 315 639 315 639 279 657 c 128,-1,3
 243 675 243 675 198.5 689.5 c 128,-1,4
 154 704 154 704 111 714 c 1,5,-1
 111 840 l 1,6,7
 153 850 153 850 197.5 863.5 c 128,-1,8
 242 877 242 877 278 893 c 128,-1,9
 314 909 314 909 337.5 927.5 c 128,-1,10
 361 946 361 946 361 967 c 2,11,-1
 361 1486 l 2,12,13
 361 1560 361 1560 369 1608.5 c 128,-1,14
 377 1657 377 1657 398 1685.5 c 128,-1,15
 419 1714 419 1714 456 1725.5 c 128,-1,16
 493 1737 493 1737 551 1737 c 0,17,18
 592 1737 592 1737 626.5 1733 c 128,-1,19
 661 1729 661 1729 692.5 1723 c 128,-1,20
 724 1717 724 1717 754 1709 c 128,-1,21
 784 1701 784 1701 816 1693 c 1,22,23
 816 1671 816 1671 815.5 1650 c 128,-1,24
 815 1629 815 1629 815 1607 c 1,25,-1
 524 1607 l 1,26,-1
 524 971 l 2,27,28
 524 931 524 931 505.5 903.5 c 128,-1,29
 487 876 487 876 456 854.5 c 128,-1,30
 425 833 425 833 385 815 c 128,-1,31
 345 797 345 797 303 777 c 1,32,33
 345 758 345 758 385 738.5 c 128,-1,34
 425 719 425 719 456 695 c 128,-1,35
 487 671 487 671 505.5 641.5 c 128,-1,36
 524 612 524 612 524 575 c 2,37,-1
 524 -59 l 1,38,-1
 815 -59 l 1,39,40
 815 -81 815 -81 815.5 -103 c 128,-1,41
 816 -125 816 -125 816 -147 c 1,42,43
 784 -156 784 -156 754 -164 c 128,-1,44
 724 -172 724 -172 692.5 -178 c 128,-1,45
 661 -184 661 -184 626.5 -187.5 c 128,-1,46
 592 -191 592 -191 551 -191 c 0,47,48
 493 -191 493 -191 456 -179.5 c 128,-1,49
 419 -168 419 -168 398 -139.5 c 128,-1,50
 377 -111 377 -111 369 -62.5 c 128,-1,51
 361 -14 361 -14 361 60 c 2,52,-1
 361 579 l 2,0,1
EndSplineSet
EndChar

StartChar: braceright
Encoding: 125 125 20
Width: 1066
Flags: W
LayerCount: 2
Fore
SplineSet
543 -59 m 1,0,-1
 543 577 l 2,1,2
 543 617 543 617 561.5 644.5 c 128,-1,3
 580 672 580 672 610.5 693.5 c 128,-1,4
 641 715 641 715 681 733 c 128,-1,5
 721 751 721 751 763 771 c 1,6,7
 721 790 721 790 681 809.5 c 128,-1,8
 641 829 641 829 610.5 853 c 128,-1,9
 580 877 580 877 561.5 906 c 128,-1,10
 543 935 543 935 543 973 c 2,11,-1
 543 1607 l 1,12,-1
 252 1607 l 1,13,14
 252 1629 252 1629 251.5 1651 c 128,-1,15
 251 1673 251 1673 251 1695 c 1,16,17
 283 1704 283 1704 313 1712 c 128,-1,18
 343 1720 343 1720 374.5 1726 c 128,-1,19
 406 1732 406 1732 440.5 1735.5 c 128,-1,20
 475 1739 475 1739 516 1739 c 0,21,22
 574 1739 574 1739 611 1727.5 c 128,-1,23
 648 1716 648 1716 669 1687.5 c 128,-1,24
 690 1659 690 1659 698 1610.5 c 128,-1,25
 706 1562 706 1562 706 1488 c 2,26,-1
 706 969 l 2,27,28
 706 948 706 948 729 928.5 c 128,-1,29
 752 909 752 909 788.5 891 c 128,-1,30
 825 873 825 873 869.5 858.5 c 128,-1,31
 914 844 914 844 956 834 c 1,32,-1
 956 708 l 1,33,34
 914 698 914 698 869.5 684.5 c 128,-1,35
 825 671 825 671 789 655 c 128,-1,36
 753 639 753 639 729.5 620.5 c 128,-1,37
 706 602 706 602 706 581 c 2,38,-1
 706 62 l 2,39,40
 706 -12 706 -12 698 -60.5 c 128,-1,41
 690 -109 690 -109 669 -137.5 c 128,-1,42
 648 -166 648 -166 611 -177.5 c 128,-1,43
 574 -189 574 -189 516 -189 c 0,44,45
 475 -189 475 -189 440.5 -185 c 128,-1,46
 406 -181 406 -181 374.5 -175 c 128,-1,47
 343 -169 343 -169 313 -161 c 128,-1,48
 283 -153 283 -153 251 -145 c 1,49,50
 251 -123 251 -123 251.5 -102 c 128,-1,51
 252 -81 252 -81 252 -59 c 1,52,-1
 543 -59 l 1,0,-1
EndSplineSet
EndChar

StartChar: bracketleft
Encoding: 91 91 21
Width: 889
Flags: W
LayerCount: 2
Fore
SplineSet
164 1486 m 2,0,1
 164 1560 164 1560 172 1608.5 c 128,-1,2
 180 1657 180 1657 201 1685.5 c 128,-1,3
 222 1714 222 1714 259 1725.5 c 128,-1,4
 296 1737 296 1737 354 1737 c 0,5,6
 395 1737 395 1737 429.5 1733 c 128,-1,7
 464 1729 464 1729 495.5 1723 c 128,-1,8
 527 1717 527 1717 557 1709 c 128,-1,9
 587 1701 587 1701 619 1693 c 1,10,11
 619 1671 619 1671 618.5 1650 c 128,-1,12
 618 1629 618 1629 618 1607 c 1,13,-1
 327 1607 l 1,14,-1
 327 -59 l 1,15,-1
 618 -61 l 1,16,17
 618 -83 618 -83 618.5 -104 c 128,-1,18
 619 -125 619 -125 619 -147 c 1,19,20
 587 -156 587 -156 557 -164 c 128,-1,21
 527 -172 527 -172 495.5 -178 c 128,-1,22
 464 -184 464 -184 429.5 -187.5 c 128,-1,23
 395 -191 395 -191 354 -191 c 0,24,25
 296 -191 296 -191 259 -179.5 c 128,-1,26
 222 -168 222 -168 201 -139.5 c 128,-1,27
 180 -111 180 -111 172 -62.5 c 128,-1,28
 164 -14 164 -14 164 60 c 2,29,-1
 164 1486 l 2,0,1
EndSplineSet
EndChar

StartChar: bracketright
Encoding: 93 93 22
Width: 889
Flags: W
LayerCount: 2
Fore
SplineSet
562 -59 m 1,0,-1
 562 1607 l 1,1,-1
 271 1607 l 1,2,3
 271 1629 271 1629 270.5 1651 c 128,-1,4
 270 1673 270 1673 270 1695 c 1,5,6
 302 1704 302 1704 332 1712 c 128,-1,7
 362 1720 362 1720 393.5 1726 c 128,-1,8
 425 1732 425 1732 459.5 1735.5 c 128,-1,9
 494 1739 494 1739 535 1739 c 0,10,11
 593 1739 593 1739 630 1727.5 c 128,-1,12
 667 1716 667 1716 688 1687.5 c 128,-1,13
 709 1659 709 1659 717 1610.5 c 128,-1,14
 725 1562 725 1562 725 1488 c 2,15,-1
 725 62 l 2,16,17
 725 -12 725 -12 717 -60.5 c 128,-1,18
 709 -109 709 -109 688 -137.5 c 128,-1,19
 667 -166 667 -166 630 -177.5 c 128,-1,20
 593 -189 593 -189 535 -189 c 0,21,22
 494 -189 494 -189 459.5 -185 c 128,-1,23
 425 -181 425 -181 393.5 -175 c 128,-1,24
 362 -169 362 -169 332 -161 c 128,-1,25
 302 -153 302 -153 270 -145 c 1,26,27
 270 -123 270 -123 270.5 -102 c 128,-1,28
 271 -81 271 -81 271 -59 c 1,29,-1
 562 -59 l 1,0,-1
EndSplineSet
EndChar

StartChar: zero
Encoding: 48 48 23
Width: 1368
Flags: W
LayerCount: 2
Fore
SplineSet
151 632 m 0,0,1
 153 777 153 777 198.5 892 c 128,-1,2
 244 1007 244 1007 320 1086.5 c 128,-1,3
 396 1166 396 1166 494.5 1208.5 c 128,-1,4
 593 1251 593 1251 701 1252 c 0,5,6
 847 1253 847 1253 946 1204.5 c 128,-1,7
 1045 1156 1045 1156 1105.5 1071 c 128,-1,8
 1166 986 1166 986 1191.5 870.5 c 128,-1,9
 1217 755 1217 755 1216 623 c 0,10,11
 1215 479 1215 479 1172.5 359 c 128,-1,12
 1130 239 1130 239 1057 153.5 c 128,-1,13
 984 68 984 68 886 20 c 128,-1,14
 788 -28 788 -28 676 -28 c 0,15,16
 581 -28 581 -28 504.5 -3 c 128,-1,17
 428 22 428 22 369.5 66.5 c 128,-1,18
 311 111 311 111 269 173 c 128,-1,19
 227 235 227 235 200.5 308.5 c 128,-1,20
 174 382 174 382 162 464 c 128,-1,21
 150 546 150 546 151 632 c 0,0,1
684 77 m 0,22,23
 774 75 774 75 836.5 111 c 128,-1,24
 899 147 899 147 937.5 216.5 c 128,-1,25
 976 286 976 286 993.5 386.5 c 128,-1,26
 1011 487 1011 487 1011 614 c 0,27,28
 1011 726 1011 726 992.5 822.5 c 128,-1,29
 974 919 974 919 934.5 990.5 c 128,-1,30
 895 1062 895 1062 834 1103 c 128,-1,31
 773 1144 773 1144 688 1146 c 1,32,33
 598 1147 598 1147 535 1113 c 128,-1,34
 472 1079 472 1079 432 1014 c 128,-1,35
 392 949 392 949 374 854.5 c 128,-1,36
 356 760 356 760 356 641 c 0,37,38
 356 534 356 534 375.5 433.5 c 128,-1,39
 395 333 395 333 435.5 254.5 c 128,-1,40
 476 176 476 176 537.5 127.5 c 128,-1,41
 599 79 599 79 684 77 c 0,22,23
EndSplineSet
EndChar

StartChar: one
Encoding: 49 49 24
Width: 902
Flags: W
LayerCount: 2
Fore
SplineSet
85 85 m 1,0,-1
 386 112 l 1,1,-1
 386 1024 l 1,2,-1
 114 971 l 1,3,-1
 94 1070 l 1,4,5
 124 1079 124 1079 165 1094 c 128,-1,6
 206 1109 206 1109 250.5 1127 c 128,-1,7
 295 1145 295 1145 340 1165.5 c 128,-1,8
 385 1186 385 1186 423 1204.5 c 128,-1,9
 461 1223 461 1223 489.5 1238.5 c 128,-1,10
 518 1254 518 1254 530 1264 c 1,11,-1
 582 1249 l 1,12,-1
 579 112 l 1,13,-1
 872 85 l 1,14,-1
 872 0 l 1,15,-1
 85 0 l 1,16,-1
 85 85 l 1,0,-1
EndSplineSet
EndChar

StartChar: two
Encoding: 50 50 25
Width: 1231
Flags: W
LayerCount: 2
Fore
SplineSet
137 79 m 1,0,1
 264 161 264 161 378 256 c 128,-1,2
 492 351 492 351 577.5 451.5 c 128,-1,3
 663 552 663 552 713.5 654 c 128,-1,4
 764 756 764 756 764 852 c 0,5,6
 764 900 764 900 751 949.5 c 128,-1,7
 738 999 738 999 708 1039 c 128,-1,8
 678 1079 678 1079 630 1104.5 c 128,-1,9
 582 1130 582 1130 512 1130 c 0,10,11
 462 1130 462 1130 415 1115.5 c 128,-1,12
 368 1101 368 1101 326 1079 c 128,-1,13
 284 1057 284 1057 249.5 1031.5 c 128,-1,14
 215 1006 215 1006 191 984 c 1,15,-1
 144 1060 l 1,16,17
 172 1096 172 1096 216.5 1132.5 c 128,-1,18
 261 1169 261 1169 317 1198 c 128,-1,19
 373 1227 373 1227 440 1245 c 128,-1,20
 507 1263 507 1263 580 1263 c 0,21,22
 681 1263 681 1263 755 1233.5 c 128,-1,23
 829 1204 829 1204 877 1155.5 c 128,-1,24
 925 1107 925 1107 948.5 1045 c 128,-1,25
 972 983 972 983 972 918 c 0,26,27
 972 813 972 813 930 708.5 c 128,-1,28
 888 604 888 604 811.5 503.5 c 128,-1,29
 735 403 735 403 628.5 307 c 128,-1,30
 522 211 522 211 393 124 c 1,31,-1
 932 161 l 1,32,-1
 1028 303 l 1,33,-1
 1114 275 l 1,34,-1
 1049 0 l 1,35,-1
 166 0 l 1,36,-1
 137 79 l 1,37,-1
 137 79 l 1,0,1
EndSplineSet
EndChar

StartChar: three
Encoding: 51 51 26
Width: 1085
Flags: W
LayerCount: 2
Fore
SplineSet
152 -208 m 1,0,1
 235 -223 235 -223 312.5 -219 c 128,-1,2
 390 -215 390 -215 458 -194 c 128,-1,3
 526 -173 526 -173 582.5 -138 c 128,-1,4
 639 -103 639 -103 679.5 -56 c 128,-1,5
 720 -9 720 -9 742.5 46.5 c 128,-1,6
 765 102 765 102 765 164 c 0,7,8
 765 236 765 236 748.5 293.5 c 128,-1,9
 732 351 732 351 693 391.5 c 128,-1,10
 654 432 654 432 590 454 c 128,-1,11
 526 476 526 476 432 476 c 1,12,-1
 288 442 l 1,13,-1
 288 576 l 1,14,15
 367 592 367 592 438 620.5 c 128,-1,16
 509 649 509 649 563 688.5 c 128,-1,17
 617 728 617 728 649 776.5 c 128,-1,18
 681 825 681 825 682 882 c 0,19,20
 683 948 683 948 664.5 995 c 128,-1,21
 646 1042 646 1042 614.5 1072.5 c 128,-1,22
 583 1103 583 1103 540.5 1117.5 c 128,-1,23
 498 1132 498 1132 452 1132 c 0,24,25
 397 1132 397 1132 353 1123 c 128,-1,26
 309 1114 309 1114 272.5 1098.5 c 128,-1,27
 236 1083 236 1083 205.5 1063 c 128,-1,28
 175 1043 175 1043 147 1021 c 1,29,-1
 94 1109 l 1,30,31
 119 1133 119 1133 158 1161 c 128,-1,32
 197 1189 197 1189 250 1213 c 128,-1,33
 303 1237 303 1237 370 1253 c 128,-1,34
 437 1269 437 1269 517 1269 c 0,35,36
 586 1269 586 1269 650.5 1251 c 128,-1,37
 715 1233 715 1233 765.5 1194 c 128,-1,38
 816 1155 816 1155 846.5 1092.5 c 128,-1,39
 877 1030 877 1030 877 942 c 0,40,41
 877 882 877 882 850.5 819.5 c 128,-1,42
 824 757 824 757 780 702.5 c 128,-1,43
 736 648 736 648 679 606.5 c 128,-1,44
 622 565 622 565 561 546 c 1,45,46
 665 546 665 546 741 522 c 128,-1,47
 817 498 817 498 866 454 c 128,-1,48
 915 410 915 410 938.5 348.5 c 128,-1,49
 962 287 962 287 962 214 c 0,50,51
 962 137 962 137 936 61.5 c 128,-1,52
 910 -14 910 -14 860.5 -80.5 c 128,-1,53
 811 -147 811 -147 739.5 -200.5 c 128,-1,54
 668 -254 668 -254 578 -287.5 c 128,-1,55
 488 -321 488 -321 381 -330.5 c 128,-1,56
 274 -340 274 -340 153 -318 c 1,57,58
 153 -290 153 -290 152.5 -263 c 128,-1,59
 152 -236 152 -236 152 -208 c 1,0,1
EndSplineSet
EndChar

StartChar: four
Encoding: 52 52 27
Width: 1256
Flags: W
LayerCount: 2
Fore
SplineSet
62 94 m 1,0,1
 140 236 140 236 217 371.5 c 128,-1,2
 294 507 294 507 370.5 648.5 c 128,-1,3
 447 790 447 790 523.5 943 c 128,-1,4
 600 1096 600 1096 678 1273 c 1,5,-1
 741 1273 l 1,6,-1
 859 1185 l 1,7,-1
 305 219 l 1,8,-1
 233 117 l 1,9,-1
 727 145 l 1,10,-1
 730 614 l 1,11,-1
 906 654 l 1,12,-1
 906 155 l 1,13,-1
 1173 170 l 1,14,-1
 1173 0 l 1,15,-1
 906 0 l 1,16,-1
 906 -376 l 1,17,-1
 725 -376 l 1,18,-1
 727 0 l 1,19,-1
 93 0 l 1,20,-1
 62 94 l 1,0,1
EndSplineSet
EndChar

StartChar: five
Encoding: 53 53 28
Width: 1079
Flags: W
LayerCount: 2
Fore
SplineSet
160 -227 m 1,0,1
 232 -236 232 -236 305 -225 c 128,-1,2
 378 -214 378 -214 445.5 -187.5 c 128,-1,3
 513 -161 513 -161 571.5 -119 c 128,-1,4
 630 -77 630 -77 673.5 -22.5 c 128,-1,5
 717 32 717 32 742 97 c 128,-1,6
 767 162 767 162 767 236 c 0,7,8
 767 369 767 369 720 447 c 128,-1,9
 673 525 673 525 593 558 c 128,-1,10
 513 591 513 591 407.5 583 c 128,-1,11
 302 575 302 575 186 536 c 1,12,-1
 151 566 l 1,13,-1
 230 1237 l 1,14,-1
 791 1237 l 1,15,-1
 902 1249 l 1,16,-1
 853 1072 l 1,17,-1
 376 1072 l 1,18,-1
 304 657 l 1,19,20
 444 706 444 706 566 701.5 c 128,-1,21
 688 697 688 697 778 644.5 c 128,-1,22
 868 592 868 592 920 494 c 128,-1,23
 972 396 972 396 972 259 c 0,24,25
 972 189 972 189 949 116.5 c 128,-1,26
 926 44 926 44 882 -24 c 128,-1,27
 838 -92 838 -92 775.5 -151.5 c 128,-1,28
 713 -211 713 -211 634 -255.5 c 128,-1,29
 555 -300 555 -300 461.5 -325.5 c 128,-1,30
 368 -351 368 -351 262 -351 c 0,31,32
 237 -351 237 -351 211 -348 c 128,-1,33
 185 -345 185 -345 159 -337 c 1,34,35
 159 -309 159 -309 159.5 -282 c 128,-1,36
 160 -255 160 -255 160 -227 c 1,0,1
EndSplineSet
EndChar

StartChar: six
Encoding: 54 54 29
Width: 1272
Flags: W
LayerCount: 2
Fore
SplineSet
124 563 m 0,0,1
 124 692 124 692 159.5 808.5 c 128,-1,2
 195 925 195 925 256.5 1026.5 c 128,-1,3
 318 1128 318 1128 401.5 1213 c 128,-1,4
 485 1298 485 1298 580 1363 c 128,-1,5
 675 1428 675 1428 778 1471.5 c 128,-1,6
 881 1515 881 1515 982 1534 c 1,7,-1
 1023 1450 l 1,8,9
 860 1397 860 1397 732.5 1311 c 128,-1,10
 605 1225 605 1225 516.5 1119.5 c 128,-1,11
 428 1014 428 1014 380 897.5 c 128,-1,12
 332 781 332 781 328 667 c 0,13,14
 324 556 324 556 336 451 c 128,-1,15
 348 346 348 346 385.5 264 c 128,-1,16
 423 182 423 182 489.5 132.5 c 128,-1,17
 556 83 556 83 661 83 c 0,18,19
 737 83 737 83 792 116.5 c 128,-1,20
 847 150 847 150 882.5 203 c 128,-1,21
 918 256 918 256 935 321 c 128,-1,22
 952 386 952 386 952 449 c 0,23,24
 952 544 952 544 933 617 c 128,-1,25
 914 690 914 690 881 739 c 128,-1,26
 848 788 848 788 803 813 c 128,-1,27
 758 838 758 838 705 838 c 0,28,29
 673 838 673 838 642.5 832.5 c 128,-1,30
 612 827 612 827 585.5 818.5 c 128,-1,31
 559 810 559 810 538 799 c 128,-1,32
 517 788 517 788 504 778 c 1,33,-1
 460 857 l 1,34,35
 479 879 479 879 510 899 c 128,-1,36
 541 919 541 919 580 934.5 c 128,-1,37
 619 950 619 950 664 959 c 128,-1,38
 709 968 709 968 757 968 c 0,39,40
 853 968 853 968 924.5 929 c 128,-1,41
 996 890 996 890 1043.5 828 c 128,-1,42
 1091 766 1091 766 1114.5 687.5 c 128,-1,43
 1138 609 1138 609 1138 530 c 0,44,45
 1138 466 1138 466 1123 400 c 128,-1,46
 1108 334 1108 334 1078 273 c 128,-1,47
 1048 212 1048 212 1004.5 158.5 c 128,-1,48
 961 105 961 105 904.5 65 c 128,-1,49
 848 25 848 25 778.5 2 c 128,-1,50
 709 -21 709 -21 628 -21 c 0,51,52
 509 -21 509 -21 415 26.5 c 128,-1,53
 321 74 321 74 256.5 154.5 c 128,-1,54
 192 235 192 235 158 340.5 c 128,-1,55
 124 446 124 446 124 563 c 0,0,1
EndSplineSet
EndChar

StartChar: seven
Encoding: 55 55 30
Width: 1256
Flags: W
LayerCount: 2
Fore
SplineSet
980 1111 m 1,0,-1
 362 1096 l 1,1,-1
 268 917 l 1,2,-1
 169 927 l 1,3,-1
 222 1253 l 1,4,-1
 1110 1253 l 1,5,-1
 1145 1214 l 1,6,-1
 538 -316 l 1,7,-1
 340 -246 l 1,8,-1
 980 1111 l 1,0,-1
EndSplineSet
EndChar

StartChar: eight
Encoding: 56 56 31
Width: 1256
Flags: W
LayerCount: 2
Fore
SplineSet
126 373 m 0,0,1
 126 429 126 429 145.5 485.5 c 128,-1,2
 165 542 165 542 204 595 c 128,-1,3
 243 648 243 648 302 696.5 c 128,-1,4
 361 745 361 745 439 784 c 1,5,6
 389 818 389 818 346 857 c 128,-1,7
 303 896 303 896 271.5 942.5 c 128,-1,8
 240 989 240 989 221.5 1044 c 128,-1,9
 203 1099 203 1099 203 1165 c 0,10,11
 203 1264 203 1264 242 1337 c 128,-1,12
 281 1410 281 1410 344.5 1457.5 c 128,-1,13
 408 1505 408 1505 489 1528 c 128,-1,14
 570 1551 570 1551 653 1551 c 0,15,16
 739 1551 739 1551 813.5 1526.5 c 128,-1,17
 888 1502 888 1502 943.5 1457 c 128,-1,18
 999 1412 999 1412 1030.5 1348 c 128,-1,19
 1062 1284 1062 1284 1062 1206 c 0,20,21
 1062 1150 1062 1150 1042.5 1089.5 c 128,-1,22
 1023 1029 1023 1029 986.5 972 c 128,-1,23
 950 915 950 915 899 866.5 c 128,-1,24
 848 818 848 818 785 786 c 1,25,26
 851 746 851 746 912.5 704 c 128,-1,27
 974 662 974 662 1021.5 615.5 c 128,-1,28
 1069 569 1069 569 1098 516.5 c 128,-1,29
 1127 464 1127 464 1128 403 c 0,30,31
 1129 290 1129 290 1085.5 209 c 128,-1,32
 1042 128 1042 128 970.5 75 c 128,-1,33
 899 22 899 22 809 -3 c 128,-1,34
 719 -28 719 -28 629 -28 c 0,35,36
 571 -28 571 -28 511 -17.5 c 128,-1,37
 451 -7 451 -7 395 14 c 128,-1,38
 339 35 339 35 290 67.5 c 128,-1,39
 241 100 241 100 204.5 145 c 128,-1,40
 168 190 168 190 147 246.5 c 128,-1,41
 126 303 126 303 126 373 c 0,0,1
680 850 m 1,42,43
 722 861 722 861 761 891.5 c 128,-1,44
 800 922 800 922 829.5 962.5 c 128,-1,45
 859 1003 859 1003 877.5 1050 c 128,-1,46
 896 1097 896 1097 898 1142 c 0,47,48
 901 1212 901 1212 882 1270 c 128,-1,49
 863 1328 863 1328 828.5 1369 c 128,-1,50
 794 1410 794 1410 745.5 1432.5 c 128,-1,51
 697 1455 697 1455 642 1455 c 0,52,53
 589 1455 589 1455 539 1437 c 128,-1,54
 489 1419 489 1419 449 1385.5 c 128,-1,55
 409 1352 409 1352 385 1304.5 c 128,-1,56
 361 1257 361 1257 361 1198 c 0,57,58
 361 1145 361 1145 387 1098 c 128,-1,59
 413 1051 413 1051 457.5 1009 c 128,-1,60
 502 967 502 967 559.5 927.5 c 128,-1,61
 617 888 617 888 680 850 c 1,42,43
310 420 m 0,62,63
 310 349 310 349 334 286 c 128,-1,64
 358 223 358 223 403 176 c 128,-1,65
 448 129 448 129 513 101.5 c 128,-1,66
 578 74 578 74 661 74 c 0,67,68
 713 74 713 74 765.5 92.5 c 128,-1,69
 818 111 818 111 860 144.5 c 128,-1,70
 902 178 902 178 928 226 c 128,-1,71
 954 274 954 274 954 333 c 0,72,73
 954 400 954 400 917 452.5 c 128,-1,74
 880 505 880 505 820 550.5 c 128,-1,75
 760 596 760 596 685 637 c 128,-1,76
 610 678 610 678 534 723 c 1,77,78
 489 702 489 702 448.5 671 c 128,-1,79
 408 640 408 640 377.5 601.5 c 128,-1,80
 347 563 347 563 328.5 517 c 128,-1,81
 310 471 310 471 310 420 c 0,62,63
EndSplineSet
EndChar

StartChar: nine
Encoding: 57 57 32
Width: 1256
Flags: W
LayerCount: 2
Fore
SplineSet
239 -319 m 1,0,1
 348 -284 348 -284 439.5 -227.5 c 128,-1,2
 531 -171 531 -171 605.5 -99.5 c 128,-1,3
 680 -28 680 -28 737 54.5 c 128,-1,4
 794 137 794 137 833 224 c 128,-1,5
 872 311 872 311 893.5 398 c 128,-1,6
 915 485 915 485 918 566 c 0,7,8
 922 677 922 677 912.5 782 c 128,-1,9
 903 887 903 887 868.5 969 c 128,-1,10
 834 1051 834 1051 770 1100.5 c 128,-1,11
 706 1150 706 1150 601 1150 c 0,12,13
 525 1150 525 1150 470 1116.5 c 128,-1,14
 415 1083 415 1083 379.5 1030 c 128,-1,15
 344 977 344 977 327 912 c 128,-1,16
 310 847 310 847 310 784 c 0,17,18
 310 689 310 689 329 616 c 128,-1,19
 348 543 348 543 381 494 c 128,-1,20
 414 445 414 445 459 420 c 128,-1,21
 504 395 504 395 557 395 c 0,22,23
 589 395 589 395 619.5 400.5 c 128,-1,24
 650 406 650 406 676.5 414.5 c 128,-1,25
 703 423 703 423 724 433.5 c 128,-1,26
 745 444 745 444 758 455 c 1,27,-1
 802 376 l 1,28,29
 783 354 783 354 752 334 c 128,-1,30
 721 314 721 314 682 298.5 c 128,-1,31
 643 283 643 283 598 274 c 128,-1,32
 553 265 553 265 505 265 c 0,33,34
 409 265 409 265 337.5 304 c 128,-1,35
 266 343 266 343 218.5 405 c 128,-1,36
 171 467 171 467 147.5 545.5 c 128,-1,37
 124 624 124 624 124 703 c 0,38,39
 124 767 124 767 139 833 c 128,-1,40
 154 899 154 899 184 960 c 128,-1,41
 214 1021 214 1021 257.5 1074.5 c 128,-1,42
 301 1128 301 1128 357.5 1168 c 128,-1,43
 414 1208 414 1208 483.5 1231 c 128,-1,44
 553 1254 553 1254 634 1254 c 0,45,46
 753 1254 753 1254 844.5 1206.5 c 128,-1,47
 936 1159 936 1159 997.5 1078.5 c 128,-1,48
 1059 998 1059 998 1090.5 892.5 c 128,-1,49
 1122 787 1122 787 1122 670 c 0,50,51
 1122 534 1122 534 1087.5 406.5 c 128,-1,52
 1053 279 1053 279 992.5 166 c 128,-1,53
 932 53 932 53 851 -43.5 c 128,-1,54
 770 -140 770 -140 676 -214 c 128,-1,55
 582 -288 582 -288 480 -337 c 128,-1,56
 378 -386 378 -386 277 -405 c 1,57,-1
 275 -405 l 1,58,-1
 239 -319 l 1,59,-1
 239 -319 l 1,0,1
EndSplineSet
EndChar

StartChar: percent
Encoding: 37 37 33
Width: 2111
Flags: W
LayerCount: 2
Fore
SplineSet
1255 1601 m 1,0,-1
 1414 1601 l 1,1,-1
 868 0 l 1,2,-1
 709 0 l 1,3,-1
 1255 1601 l 1,0,-1
517 692 m 0,4,5
 446 690 446 690 390 719 c 128,-1,6
 334 748 334 748 295 797.5 c 128,-1,7
 256 847 256 847 235 913.5 c 128,-1,8
 214 980 214 980 214 1053 c 0,9,10
 214 1143 214 1143 241 1211.5 c 128,-1,11
 268 1280 268 1280 314 1327.5 c 128,-1,12
 360 1375 360 1375 420 1400 c 128,-1,13
 480 1425 480 1425 545 1427 c 0,14,15
 624 1430 624 1430 681 1401.5 c 128,-1,16
 738 1373 738 1373 775 1323 c 128,-1,17
 812 1273 812 1273 829.5 1205.5 c 128,-1,18
 847 1138 847 1138 847 1062 c 0,19,20
 847 973 847 973 820 904.5 c 128,-1,21
 793 836 793 836 747 789.5 c 128,-1,22
 701 743 701 743 641.5 718.5 c 128,-1,23
 582 694 582 694 517 692 c 0,4,5
529 795 m 0,24,25
 607 795 607 795 647.5 864 c 128,-1,26
 688 933 688 933 688 1055 c 0,27,28
 688 1116 688 1116 677.5 1165.5 c 128,-1,29
 667 1215 667 1215 647.5 1250.5 c 128,-1,30
 628 1286 628 1286 599 1305.5 c 128,-1,31
 570 1325 570 1325 533 1325 c 0,32,33
 494 1325 494 1325 464.5 1306.5 c 128,-1,34
 435 1288 435 1288 415 1253.5 c 128,-1,35
 395 1219 395 1219 384.5 1170.5 c 128,-1,36
 374 1122 374 1122 374 1061 c 0,37,38
 374 1004 374 1004 384.5 955.5 c 128,-1,39
 395 907 395 907 414.5 871.5 c 128,-1,40
 434 836 434 836 463 815.5 c 128,-1,41
 492 795 492 795 529 795 c 0,24,25
1274 525 m 0,42,43
 1274 615 1274 615 1301 683.5 c 128,-1,44
 1328 752 1328 752 1374 799.5 c 128,-1,45
 1420 847 1420 847 1480 872 c 128,-1,46
 1540 897 1540 897 1605 899 c 0,47,48
 1684 902 1684 902 1741 873.5 c 128,-1,49
 1798 845 1798 845 1835 795 c 128,-1,50
 1872 745 1872 745 1889.5 677.5 c 128,-1,51
 1907 610 1907 610 1907 534 c 0,52,53
 1907 445 1907 445 1880 376.5 c 128,-1,54
 1853 308 1853 308 1807 261.5 c 128,-1,55
 1761 215 1761 215 1701.5 190.5 c 128,-1,56
 1642 166 1642 166 1577 164 c 0,57,58
 1506 162 1506 162 1450 191 c 128,-1,59
 1394 220 1394 220 1355 269.5 c 128,-1,60
 1316 319 1316 319 1295 385.5 c 128,-1,61
 1274 452 1274 452 1274 525 c 0,42,43
1434 533 m 0,62,63
 1434 476 1434 476 1444.5 427.5 c 128,-1,64
 1455 379 1455 379 1474.5 343.5 c 128,-1,65
 1494 308 1494 308 1523 287.5 c 128,-1,66
 1552 267 1552 267 1589 267 c 0,67,68
 1667 267 1667 267 1707.5 336 c 128,-1,69
 1748 405 1748 405 1748 527 c 0,70,71
 1748 588 1748 588 1737.5 637.5 c 128,-1,72
 1727 687 1727 687 1707.5 722.5 c 128,-1,73
 1688 758 1688 758 1659 777.5 c 128,-1,74
 1630 797 1630 797 1593 797 c 0,75,76
 1554 797 1554 797 1524.5 778.5 c 128,-1,77
 1495 760 1495 760 1475 725.5 c 128,-1,78
 1455 691 1455 691 1444.5 642.5 c 128,-1,79
 1434 594 1434 594 1434 533 c 0,62,63
EndSplineSet
EndChar

StartChar: plus
Encoding: 43 43 34
Width: 1233
Flags: W
LayerCount: 2
Fore
SplineSet
532 561 m 1,0,-1
 539 719 l 1,1,-1
 380 710 l 1,2,-1
 160 710 l 1,3,-1
 160 883 l 1,4,-1
 380 883 l 1,5,-1
 539 871 l 1,6,-1
 532 1032 l 1,7,-1
 532 1260 l 1,8,-1
 699 1260 l 1,9,-1
 699 1032 l 1,10,-1
 692 871 l 1,11,-1
 822 883 l 1,12,-1
 1073 883 l 1,13,-1
 1073 710 l 1,14,-1
 822 710 l 1,15,-1
 692 719 l 1,16,-1
 699 561 l 1,17,-1
 699 321 l 1,18,-1
 532 321 l 1,19,-1
 532 561 l 1,0,-1
EndSplineSet
EndChar

StartChar: equal
Encoding: 61 61 35
Width: 1205
Flags: W
LayerCount: 2
Fore
SplineSet
160 1039 m 1,0,-1
 1045 1039 l 1,1,-1
 1045 892 l 1,2,-1
 160 892 l 1,3,-1
 160 1039 l 1,0,-1
160 702 m 1,4,-1
 1045 702 l 1,5,-1
 1045 555 l 1,6,-1
 160 555 l 1,7,-1
 160 702 l 1,4,-1
EndSplineSet
EndChar

StartChar: less
Encoding: 60 60 36
Width: 1519
Flags: W
LayerCount: 2
Fore
SplineSet
200 818 m 1,0,-1
 1169 1313 l 1,1,-1
 1169 1130 l 1,2,-1
 370 751 l 1,3,-1
 1169 374 l 1,4,-1
 1169 190 l 1,5,-1
 200 684 l 1,6,-1
 200 818 l 1,0,-1
EndSplineSet
EndChar

StartChar: greater
Encoding: 62 62 37
Width: 1519
Flags: W
LayerCount: 2
Fore
SplineSet
350 373 m 1,0,-1
 1149 751 l 1,1,-1
 350 1129 l 1,2,-1
 350 1313 l 1,3,-1
 1319 819 l 1,4,-1
 1319 685 l 1,5,-1
 350 190 l 1,6,-1
 350 373 l 1,0,-1
EndSplineSet
EndChar

StartChar: numbersign
Encoding: 35 35 38
Width: 1427
Flags: W
LayerCount: 2
Fore
SplineSet
370 365 m 1,0,-1
 149 365 l 1,1,-1
 149 493 l 1,2,-1
 375 493 l 1,3,-1
 406 898 l 1,4,-1
 171 898 l 1,5,-1
 171 1025 l 1,6,-1
 413 1025 l 1,7,-1
 440 1355 l 1,8,-1
 605 1355 l 1,9,-1
 580 1025 l 1,10,-1
 894 1025 l 1,11,-1
 921 1355 l 1,12,-1
 1086 1355 l 1,13,-1
 1061 1025 l 1,14,-1
 1280 1025 l 1,15,-1
 1280 898 l 1,16,-1
 1054 898 l 1,17,-1
 1022 493 l 1,18,-1
 1245 493 l 1,19,20
 1245 461 1245 461 1245.5 429 c 128,-1,21
 1246 397 1246 397 1246 365 c 1,22,-1
 1017 365 l 1,23,-1
 987 0 l 1,24,-1
 827 0 l 1,25,-1
 851 365 l 1,26,-1
 536 365 l 1,27,-1
 504 0 l 1,28,-1
 342 0 l 1,29,-1
 370 365 l 1,0,-1
856 493 m 1,30,-1
 887 898 l 1,31,-1
 573 898 l 1,32,-1
 541 493 l 1,33,-1
 856 493 l 1,30,-1
EndSplineSet
EndChar

StartChar: ampersand
Encoding: 38 38 39
Width: 1601
Flags: W
LayerCount: 2
Fore
SplineSet
177 355 m 0,0,1
 177 424 177 424 199 483 c 128,-1,2
 221 542 221 542 261 593 c 128,-1,3
 301 644 301 644 357.5 688 c 128,-1,4
 414 732 414 732 483 773 c 1,5,6
 451 816 451 816 419.5 861.5 c 128,-1,7
 388 907 388 907 362.5 955.5 c 128,-1,8
 337 1004 337 1004 321.5 1057 c 128,-1,9
 306 1110 306 1110 306 1168 c 0,10,11
 306 1260 306 1260 335.5 1331.5 c 128,-1,12
 365 1403 365 1403 417 1452 c 128,-1,13
 469 1501 469 1501 539 1526.5 c 128,-1,14
 609 1552 609 1552 689 1552 c 0,15,16
 779 1552 779 1552 844 1526 c 128,-1,17
 909 1500 909 1500 951 1455.5 c 128,-1,18
 993 1411 993 1411 1013 1352.5 c 128,-1,19
 1033 1294 1033 1294 1033 1229 c 0,20,21
 1033 1154 1033 1154 1003 1087.5 c 128,-1,22
 973 1021 973 1021 926 964.5 c 128,-1,23
 879 908 879 908 821 861.5 c 128,-1,24
 763 815 763 815 707 779 c 1,25,26
 731 749 731 749 764.5 710.5 c 128,-1,27
 798 672 798 672 836.5 629 c 128,-1,28
 875 586 875 586 916 541 c 128,-1,29
 957 496 957 496 996.5 454 c 128,-1,30
 1036 412 1036 412 1071.5 375 c 128,-1,31
 1107 338 1107 338 1134 311 c 1,32,33
 1154 361 1154 361 1156.5 410 c 128,-1,34
 1159 459 1159 459 1159 499 c 0,35,36
 1159 551 1159 551 1153 592.5 c 128,-1,37
 1147 634 1147 634 1139 664.5 c 128,-1,38
 1131 695 1131 695 1123 713.5 c 128,-1,39
 1115 732 1115 732 1111 738 c 1,40,-1
 1306 738 l 1,41,42
 1317 700 1317 700 1328 652 c 128,-1,43
 1339 604 1339 604 1335 543 c 0,44,45
 1332 487 1332 487 1325 441.5 c 128,-1,46
 1318 396 1318 396 1306.5 357 c 128,-1,47
 1295 318 1295 318 1277.5 284 c 128,-1,48
 1260 250 1260 250 1235 217 c 1,49,50
 1280 179 1280 179 1316.5 156 c 128,-1,51
 1353 133 1353 133 1384 120 c 128,-1,52
 1415 107 1415 107 1440.5 102.5 c 128,-1,53
 1466 98 1466 98 1489 98 c 1,54,-1
 1489 13 l 1,55,56
 1472 2 1472 2 1445 -4 c 128,-1,57
 1418 -10 1418 -10 1387 -11 c 128,-1,58
 1356 -12 1356 -12 1323.5 -9 c 128,-1,59
 1291 -6 1291 -6 1262 1 c 1,60,61
 1223 9 1223 9 1187.5 31.5 c 128,-1,62
 1152 54 1152 54 1110 90 c 1,63,64
 1072 62 1072 62 1025 39.5 c 128,-1,65
 978 17 978 17 927 1 c 128,-1,66
 876 -15 876 -15 824.5 -23.5 c 128,-1,67
 773 -32 773 -32 726 -32 c 256,68,69
 679 -32 679 -32 619.5 -25.5 c 128,-1,70
 560 -19 560 -19 499 -3 c 128,-1,71
 438 13 438 13 380 41 c 128,-1,72
 322 69 322 69 277 112 c 128,-1,73
 232 155 232 155 204.5 214.5 c 128,-1,74
 177 274 177 274 177 355 c 0,0,1
636 864 m 1,75,76
 687 889 687 889 729.5 921 c 128,-1,77
 772 953 772 953 803 993.5 c 128,-1,78
 834 1034 834 1034 851.5 1085 c 128,-1,79
 869 1136 869 1136 869 1199 c 0,80,81
 869 1238 869 1238 860 1282.5 c 128,-1,82
 851 1327 851 1327 828.5 1365 c 128,-1,83
 806 1403 806 1403 767 1428 c 128,-1,84
 728 1453 728 1453 668 1453 c 0,85,86
 638 1453 638 1453 604 1442 c 128,-1,87
 570 1431 570 1431 541.5 1405.5 c 128,-1,88
 513 1380 513 1380 494 1338 c 128,-1,89
 475 1296 475 1296 475 1233 c 0,90,91
 475 1165 475 1165 490.5 1109.5 c 128,-1,92
 506 1054 506 1054 530 1008.5 c 128,-1,93
 554 963 554 963 582.5 927.5 c 128,-1,94
 611 892 611 892 636 864 c 1,75,76
359 384 m 0,95,96
 359 310 359 310 391 254.5 c 128,-1,97
 423 199 423 199 477 162 c 128,-1,98
 531 125 531 125 600.5 106 c 128,-1,99
 670 87 670 87 745 87 c 0,100,101
 833 87 833 87 902.5 105.5 c 128,-1,102
 972 124 972 124 1021 172 c 1,103,104
 989 203 989 203 948.5 244 c 128,-1,105
 908 285 908 285 864 331 c 128,-1,106
 820 377 820 377 775 426 c 128,-1,107
 730 475 730 475 688 522.5 c 128,-1,108
 646 570 646 570 608.5 613.5 c 128,-1,109
 571 657 571 657 544 693 c 1,110,111
 499 661 499 661 464 629 c 128,-1,112
 429 597 429 597 406 561 c 128,-1,113
 383 525 383 525 371 482 c 128,-1,114
 359 439 359 439 359 384 c 0,95,96
EndSplineSet
EndChar

StartChar: asterisk
Encoding: 42 42 40
Width: 1256
Flags: W
LayerCount: 2
Fore
SplineSet
570 1150 m 1,0,-1
 593 1243 l 1,1,-1
 538 1180 l 1,2,-1
 231 927 l 1,3,-1
 131 1068 l 1,4,-1
 491 1257 l 1,5,-1
 572 1284 l 1,6,-1
 493 1311 l 1,7,-1
 130 1482 l 1,8,-1
 228 1626 l 1,9,-1
 534 1388 l 1,10,-1
 593 1327 l 1,11,-1
 570 1427 l 1,12,-1
 530 1786 l 1,13,14
 576 1786 576 1786 621.5 1785.5 c 128,-1,15
 667 1785 667 1785 713 1785 c 1,16,-1
 674 1427 l 1,17,-1
 646 1327 l 1,18,-1
 722 1400 l 1,19,-1
 1012 1624 l 1,20,-1
 1125 1481 l 1,21,-1
 755 1315 l 1,22,-1
 667 1284 l 1,23,-1
 755 1254 l 1,24,-1
 1124 1066 l 1,25,-1
 1010 929 l 1,26,-1
 708 1182 l 1,27,-1
 647 1243 l 1,28,-1
 671 1150 l 1,29,-1
 713 768 l 1,30,-1
 530 768 l 1,31,-1
 570 1150 l 1,0,-1
EndSplineSet
EndChar

StartChar: at
Encoding: 64 64 41
Width: 2133
Flags: W
LayerCount: 2
Fore
SplineSet
223 416 m 0,0,1
 223 572 223 572 259.5 708.5 c 128,-1,2
 296 845 296 845 361.5 958.5 c 128,-1,3
 427 1072 427 1072 518 1161 c 128,-1,4
 609 1250 609 1250 718 1311.5 c 128,-1,5
 827 1373 827 1373 950 1405.5 c 128,-1,6
 1073 1438 1073 1438 1203 1438 c 0,7,8
 1347 1438 1347 1438 1472 1395 c 128,-1,9
 1597 1352 1597 1352 1689.5 1271.5 c 128,-1,10
 1782 1191 1782 1191 1835 1075 c 128,-1,11
 1888 959 1888 959 1888 812 c 0,12,13
 1888 675 1888 675 1863.5 564 c 128,-1,14
 1839 453 1839 453 1797 367 c 128,-1,15
 1755 281 1755 281 1700.5 219 c 128,-1,16
 1646 157 1646 157 1586 116.5 c 128,-1,17
 1526 76 1526 76 1464 57 c 128,-1,18
 1402 38 1402 38 1347 38 c 0,19,20
 1324 38 1324 38 1303.5 46.5 c 128,-1,21
 1283 55 1283 55 1267 73.5 c 128,-1,22
 1251 92 1251 92 1240.5 121.5 c 128,-1,23
 1230 151 1230 151 1226 194 c 1,24,25
 1221 234 1221 234 1226 297.5 c 128,-1,26
 1231 361 1231 361 1248 465 c 1,27,28
 1216 384 1216 384 1173 305 c 128,-1,29
 1130 226 1130 226 1079 164 c 128,-1,30
 1028 102 1028 102 972 63.5 c 128,-1,31
 916 25 916 25 858 25 c 0,32,33
 812 25 812 25 766.5 52.5 c 128,-1,34
 721 80 721 80 685 132.5 c 128,-1,35
 649 185 649 185 626.5 260 c 128,-1,36
 604 335 604 335 604 430 c 0,37,38
 604 494 604 494 617.5 565.5 c 128,-1,39
 631 637 631 637 658 706 c 128,-1,40
 685 775 685 775 723.5 838 c 128,-1,41
 762 901 762 901 813 949 c 128,-1,42
 864 997 864 997 925.5 1025.5 c 128,-1,43
 987 1054 987 1054 1059 1054 c 0,44,45
 1084 1054 1084 1054 1117.5 1051 c 128,-1,46
 1151 1048 1151 1048 1186 1042 c 128,-1,47
 1221 1036 1221 1036 1255 1026.5 c 128,-1,48
 1289 1017 1289 1017 1315 1003 c 1,49,50
 1321 1021 1321 1021 1331 1037 c 128,-1,51
 1341 1053 1341 1053 1360 1049 c 1,52,53
 1374 1044 1374 1044 1389 1039 c 128,-1,54
 1404 1034 1404 1034 1419 1029 c 256,55,56
 1434 1024 1434 1024 1448.5 1019 c 128,-1,57
 1463 1014 1463 1014 1478 1009 c 1,58,59
 1466 955 1466 955 1454 879 c 128,-1,60
 1442 803 1442 803 1431.5 720 c 128,-1,61
 1421 637 1421 637 1411.5 553 c 128,-1,62
 1402 469 1402 469 1394 398 c 0,63,64
 1388 345 1388 345 1387.5 300.5 c 128,-1,65
 1387 256 1387 256 1391.5 224 c 128,-1,66
 1396 192 1396 192 1404.5 174 c 128,-1,67
 1413 156 1413 156 1425 156 c 0,68,69
 1454 156 1454 156 1489.5 176.5 c 128,-1,70
 1525 197 1525 197 1561 234.5 c 128,-1,71
 1597 272 1597 272 1631 324.5 c 128,-1,72
 1665 377 1665 377 1691 441.5 c 128,-1,73
 1717 506 1717 506 1733 580 c 128,-1,74
 1749 654 1749 654 1749 735 c 0,75,76
 1749 842 1749 842 1724.5 926 c 128,-1,77
 1700 1010 1700 1010 1656.5 1073.5 c 128,-1,78
 1613 1137 1613 1137 1553.5 1181.5 c 128,-1,79
 1494 1226 1494 1226 1424.5 1254 c 128,-1,80
 1355 1282 1355 1282 1278.5 1294.5 c 128,-1,81
 1202 1307 1202 1307 1124 1307 c 0,82,83
 1025 1307 1025 1307 930 1283 c 128,-1,84
 835 1259 835 1259 751.5 1212.5 c 128,-1,85
 668 1166 668 1166 598 1096 c 128,-1,86
 528 1026 528 1026 477 934.5 c 128,-1,87
 426 843 426 843 398 729.5 c 128,-1,88
 370 616 370 616 370 482 c 256,89,90
 370 348 370 348 396.5 242 c 128,-1,91
 423 136 423 136 470.5 56 c 128,-1,92
 518 -24 518 -24 584 -80.5 c 128,-1,93
 650 -137 650 -137 730 -172.5 c 128,-1,94
 810 -208 810 -208 900.5 -224.5 c 128,-1,95
 991 -241 991 -241 1088 -241 c 0,96,97
 1132 -241 1132 -241 1182.5 -235.5 c 128,-1,98
 1233 -230 1233 -230 1280.5 -221 c 128,-1,99
 1328 -212 1328 -212 1368.5 -200.5 c 128,-1,100
 1409 -189 1409 -189 1434 -177 c 1,101,-1
 1471 -262 l 1,102,103
 1438 -288 1438 -288 1386 -309.5 c 128,-1,104
 1334 -331 1334 -331 1272.5 -346 c 128,-1,105
 1211 -361 1211 -361 1143.5 -369.5 c 128,-1,106
 1076 -378 1076 -378 1012 -378 c 0,107,108
 841 -378 841 -378 696.5 -322.5 c 128,-1,109
 552 -267 552 -267 447 -164 c 128,-1,110
 342 -61 342 -61 282.5 86 c 128,-1,111
 223 233 223 233 223 416 c 0,0,1
761 506 m 0,112,113
 761 481 761 481 763 448 c 128,-1,114
 765 415 765 415 770 380 c 128,-1,115
 775 345 775 345 784.5 311.5 c 128,-1,116
 794 278 794 278 809.5 251.5 c 128,-1,117
 825 225 825 225 847 209 c 128,-1,118
 869 193 869 193 900 193 c 0,119,120
 933 193 933 193 972 225 c 128,-1,121
 1011 257 1011 257 1050.5 310 c 128,-1,122
 1090 363 1090 363 1127 431.5 c 128,-1,123
 1164 500 1164 500 1195 572 c 128,-1,124
 1226 644 1226 644 1247.5 714 c 128,-1,125
 1269 784 1269 784 1276 841 c 1,126,127
 1261 857 1261 857 1234.5 869.5 c 128,-1,128
 1208 882 1208 882 1177.5 890.5 c 128,-1,129
 1147 899 1147 899 1116.5 903 c 128,-1,130
 1086 907 1086 907 1062 907 c 0,131,132
 979 907 979 907 921.5 874.5 c 128,-1,133
 864 842 864 842 828.5 786.5 c 128,-1,134
 793 731 793 731 777 658.5 c 128,-1,135
 761 586 761 586 761 506 c 0,112,113
EndSplineSet
EndChar

StartChar: period
Encoding: 46 46 42
Width: 706
Flags: W
LayerCount: 2
Fore
SplineSet
215 101 m 0,0,1
 215 132 215 132 228.5 159 c 128,-1,2
 242 186 242 186 263 205.5 c 128,-1,3
 284 225 284 225 310.5 236 c 128,-1,4
 337 247 337 247 364 247 c 0,5,6
 430 247 430 247 460.5 210.5 c 128,-1,7
 491 174 491 174 491 123 c 0,8,9
 491 90 491 90 478 63 c 128,-1,10
 465 36 465 36 444 17.5 c 128,-1,11
 423 -1 423 -1 396 -11.5 c 128,-1,12
 369 -22 369 -22 341 -22 c 0,13,14
 317 -22 317 -22 294 -13.5 c 128,-1,15
 271 -5 271 -5 253.5 10.5 c 128,-1,16
 236 26 236 26 225.5 49 c 128,-1,17
 215 72 215 72 215 101 c 0,0,1
EndSplineSet
EndChar

StartChar: bullet
Encoding: 8226 8226 43
Width: 841
Flags: W
LayerCount: 2
Fore
SplineSet
411 489 m 0,0,1
 369 489 369 489 332.5 506.5 c 128,-1,2
 296 524 296 524 269 553.5 c 128,-1,3
 242 583 242 583 227.5 622 c 128,-1,4
 213 661 213 661 216 704 c 0,5,6
 219 749 219 749 237.5 788 c 128,-1,7
 256 827 256 827 285 856 c 128,-1,8
 314 885 314 885 351.5 901.5 c 128,-1,9
 389 918 389 918 430 918 c 256,10,11
 471 918 471 918 508 901.5 c 128,-1,12
 545 885 545 885 572 856 c 128,-1,13
 599 827 599 827 613.5 788 c 128,-1,14
 628 749 628 749 625 704 c 256,15,16
 622 659 622 659 603.5 620 c 128,-1,17
 585 581 585 581 556 552 c 128,-1,18
 527 523 527 523 489.5 506 c 128,-1,19
 452 489 452 489 411 489 c 0,0,1
EndSplineSet
EndChar

StartChar: comma
Encoding: 44 44 44
Width: 733
Flags: W
LayerCount: 2
Fore
SplineSet
185 80 m 1,0,-1
 307 235 l 1,1,2
 366 220 366 220 407.5 183 c 128,-1,3
 449 146 449 146 475 99.5 c 128,-1,4
 501 53 501 53 512.5 3 c 128,-1,5
 524 -47 524 -47 524 -87 c 0,6,7
 524 -172 524 -172 495 -247.5 c 128,-1,8
 466 -323 466 -323 420 -385 c 128,-1,9
 374 -447 374 -447 317.5 -492.5 c 128,-1,10
 261 -538 261 -538 206 -562 c 1,11,-1
 150 -510 l 1,12,-1
 150 -474 l 1,13,14
 181 -462 181 -462 214 -430 c 128,-1,15
 247 -398 247 -398 274.5 -355 c 128,-1,16
 302 -312 302 -312 320 -262 c 128,-1,17
 338 -212 338 -212 338 -164 c 0,18,19
 338 -126 338 -126 325 -91.5 c 128,-1,20
 312 -57 312 -57 290.5 -30 c 128,-1,21
 269 -3 269 -3 241.5 14.5 c 128,-1,22
 214 32 214 32 185 35 c 1,23,-1
 185 80 l 1,0,-1
EndSplineSet
EndChar

StartChar: colon
Encoding: 58 58 45
Width: 706
Flags: W
LayerCount: 2
Fore
SplineSet
341 788 m 0,0,1
 317 788 317 788 294 796.5 c 128,-1,2
 271 805 271 805 253.5 820.5 c 128,-1,3
 236 836 236 836 225.5 859 c 128,-1,4
 215 882 215 882 215 911 c 0,5,6
 215 942 215 942 228.5 969 c 128,-1,7
 242 996 242 996 263 1015.5 c 128,-1,8
 284 1035 284 1035 310.5 1046 c 128,-1,9
 337 1057 337 1057 364 1057 c 0,10,11
 430 1057 430 1057 460.5 1020.5 c 128,-1,12
 491 984 491 984 491 933 c 0,13,14
 491 900 491 900 478 873 c 128,-1,15
 465 846 465 846 444 827.5 c 128,-1,16
 423 809 423 809 396 798.5 c 128,-1,17
 369 788 369 788 341 788 c 0,0,1
215 101 m 0,18,19
 215 132 215 132 228.5 159 c 128,-1,20
 242 186 242 186 263 205.5 c 128,-1,21
 284 225 284 225 310.5 236 c 128,-1,22
 337 247 337 247 364 247 c 0,23,24
 430 247 430 247 460.5 210.5 c 128,-1,25
 491 174 491 174 491 123 c 0,26,27
 491 90 491 90 478 63 c 128,-1,28
 465 36 465 36 444 17.5 c 128,-1,29
 423 -1 423 -1 396 -11.5 c 128,-1,30
 369 -22 369 -22 341 -22 c 0,31,32
 317 -22 317 -22 294 -13.5 c 128,-1,33
 271 -5 271 -5 253.5 10.5 c 128,-1,34
 236 26 236 26 225.5 49 c 128,-1,35
 215 72 215 72 215 101 c 0,18,19
EndSplineSet
EndChar

StartChar: semicolon
Encoding: 59 59 46
Width: 772
Flags: W
LayerCount: 2
Fore
SplineSet
341 788 m 0,0,1
 317 788 317 788 294 796.5 c 128,-1,2
 271 805 271 805 253.5 820.5 c 128,-1,3
 236 836 236 836 225.5 859 c 128,-1,4
 215 882 215 882 215 911 c 0,5,6
 215 942 215 942 228.5 969 c 128,-1,7
 242 996 242 996 263 1015.5 c 128,-1,8
 284 1035 284 1035 310.5 1046 c 128,-1,9
 337 1057 337 1057 364 1057 c 0,10,11
 430 1057 430 1057 460.5 1020.5 c 128,-1,12
 491 984 491 984 491 933 c 0,13,14
 491 900 491 900 478 873 c 128,-1,15
 465 846 465 846 444 827.5 c 128,-1,16
 423 809 423 809 396 798.5 c 128,-1,17
 369 788 369 788 341 788 c 0,0,1
224 80 m 1,18,-1
 346 235 l 1,19,20
 405 220 405 220 446.5 183 c 128,-1,21
 488 146 488 146 514 99.5 c 128,-1,22
 540 53 540 53 551.5 3 c 128,-1,23
 563 -47 563 -47 563 -87 c 0,24,25
 563 -172 563 -172 534 -247.5 c 128,-1,26
 505 -323 505 -323 459 -385 c 128,-1,27
 413 -447 413 -447 356.5 -492.5 c 128,-1,28
 300 -538 300 -538 245 -562 c 1,29,-1
 189 -510 l 1,30,-1
 189 -474 l 1,31,32
 220 -462 220 -462 253 -430 c 128,-1,33
 286 -398 286 -398 313.5 -355 c 128,-1,34
 341 -312 341 -312 359 -262 c 128,-1,35
 377 -212 377 -212 377 -164 c 0,36,37
 377 -126 377 -126 364 -91.5 c 128,-1,38
 351 -57 351 -57 329.5 -30 c 128,-1,39
 308 -3 308 -3 280.5 14.5 c 128,-1,40
 253 32 253 32 224 35 c 1,41,-1
 224 80 l 1,18,-1
EndSplineSet
EndChar

StartChar: question
Encoding: 63 63 47
Width: 1012
Flags: W
LayerCount: 2
Fore
SplineSet
502 490 m 1,0,1
 478 508 478 508 447.5 548 c 128,-1,2
 417 588 417 588 389 636.5 c 128,-1,3
 361 685 361 685 341 736.5 c 128,-1,4
 321 788 321 788 318 830 c 0,5,6
 316 872 316 872 349.5 906.5 c 128,-1,7
 383 941 383 941 435 970.5 c 128,-1,8
 487 1000 487 1000 548.5 1025.5 c 128,-1,9
 610 1051 610 1051 665 1075 c 128,-1,10
 720 1099 720 1099 759.5 1122 c 128,-1,11
 799 1145 799 1145 807 1169 c 1,12,13
 811 1234 811 1234 794.5 1296 c 128,-1,14
 778 1358 778 1358 746.5 1412.5 c 128,-1,15
 715 1467 715 1467 669.5 1512.5 c 128,-1,16
 624 1558 624 1558 569 1590.5 c 128,-1,17
 514 1623 514 1623 452 1641 c 128,-1,18
 390 1659 390 1659 325 1659 c 0,19,20
 306 1659 306 1659 283 1658 c 128,-1,21
 260 1657 260 1657 237.5 1654.5 c 128,-1,22
 215 1652 215 1652 194.5 1647.5 c 128,-1,23
 174 1643 174 1643 160 1637 c 1,24,-1
 160 1789 l 1,25,26
 168 1799 168 1799 187.5 1807.5 c 128,-1,27
 207 1816 207 1816 233 1822 c 128,-1,28
 259 1828 259 1828 289.5 1831.5 c 128,-1,29
 320 1835 320 1835 350 1835 c 0,30,31
 475 1835 475 1835 571 1805 c 128,-1,32
 667 1775 667 1775 737 1724 c 128,-1,33
 807 1673 807 1673 853 1606.5 c 128,-1,34
 899 1540 899 1540 924.5 1467.5 c 128,-1,35
 950 1395 950 1395 956.5 1321.5 c 128,-1,36
 963 1248 963 1248 954 1183 c 1,37,38
 954 1146 954 1146 924 1115 c 128,-1,39
 894 1084 894 1084 848 1056 c 128,-1,40
 802 1028 802 1028 747.5 1002.5 c 128,-1,41
 693 977 693 977 643.5 951 c 128,-1,42
 594 925 594 925 557.5 897.5 c 128,-1,43
 521 870 521 870 511 839 c 1,44,45
 505 798 505 798 512.5 756 c 128,-1,46
 520 714 520 714 535.5 670 c 128,-1,47
 551 626 551 626 570.5 581 c 128,-1,48
 590 536 590 536 607 490 c 1,49,-1
 502 490 l 1,0,1
449 101 m 0,50,51
 449 132 449 132 462.5 159 c 128,-1,52
 476 186 476 186 497 205.5 c 128,-1,53
 518 225 518 225 544.5 236 c 128,-1,54
 571 247 571 247 598 247 c 0,55,56
 664 247 664 247 694.5 210.5 c 128,-1,57
 725 174 725 174 725 123 c 0,58,59
 725 90 725 90 712 63 c 128,-1,60
 699 36 699 36 678 17.5 c 128,-1,61
 657 -1 657 -1 630 -11.5 c 128,-1,62
 603 -22 603 -22 575 -22 c 0,63,64
 551 -22 551 -22 528 -13.5 c 128,-1,65
 505 -5 505 -5 487.5 10.5 c 128,-1,66
 470 26 470 26 459.5 49 c 128,-1,67
 449 72 449 72 449 101 c 0,50,51
EndSplineSet
EndChar

StartChar: questiondown
Encoding: 191 191 48
Width: 1012
Flags: W
LayerCount: 2
Fore
SplineSet
409 1167 m 0,0,1
 385 1167 385 1167 362 1175.5 c 128,-1,2
 339 1184 339 1184 321.5 1199.5 c 128,-1,3
 304 1215 304 1215 293.5 1238 c 128,-1,4
 283 1261 283 1261 283 1290 c 0,5,6
 283 1321 283 1321 296.5 1348 c 128,-1,7
 310 1375 310 1375 331 1394.5 c 128,-1,8
 352 1414 352 1414 378.5 1425 c 128,-1,9
 405 1436 405 1436 432 1436 c 0,10,11
 498 1436 498 1436 528.5 1399.5 c 128,-1,12
 559 1363 559 1363 559 1312 c 0,13,14
 559 1279 559 1279 546 1252 c 128,-1,15
 533 1225 533 1225 512 1206.5 c 128,-1,16
 491 1188 491 1188 464 1177.5 c 128,-1,17
 437 1167 437 1167 409 1167 c 0,0,1
58 235 m 1,18,19
 58 258 58 258 69 278 c 128,-1,20
 80 298 80 298 100 316 c 0,21,22
 126 340 126 340 163.5 362 c 128,-1,23
 201 384 201 384 243 405 c 128,-1,24
 285 426 285 426 327.5 446.5 c 128,-1,25
 370 467 370 467 406 488 c 128,-1,26
 442 509 442 509 467.5 531.5 c 128,-1,27
 493 554 493 554 501 579 c 1,28,29
 507 619 507 619 499.5 661.5 c 128,-1,30
 492 704 492 704 476.5 748 c 128,-1,31
 461 792 461 792 441.5 837 c 128,-1,32
 422 882 422 882 405 928 c 1,33,-1
 510 928 l 1,34,35
 534 910 534 910 564.5 870 c 128,-1,36
 595 830 595 830 623 781.5 c 128,-1,37
 651 733 651 733 671 681.5 c 128,-1,38
 691 630 691 630 694 588 c 0,39,40
 696 546 696 546 662.5 511.5 c 128,-1,41
 629 477 629 477 577 447.5 c 128,-1,42
 525 418 525 418 463.5 392.5 c 128,-1,43
 402 367 402 367 347 343 c 128,-1,44
 292 319 292 319 252 296 c 128,-1,45
 212 273 212 273 205 249 c 1,46,47
 201 184 201 184 217.5 122 c 128,-1,48
 234 60 234 60 265.5 5.5 c 128,-1,49
 297 -49 297 -49 342.5 -94.5 c 128,-1,50
 388 -140 388 -140 443 -172.5 c 128,-1,51
 498 -205 498 -205 560 -223 c 128,-1,52
 622 -241 622 -241 687 -241 c 0,53,54
 706 -241 706 -241 729 -240 c 128,-1,55
 752 -239 752 -239 774.5 -236.5 c 128,-1,56
 797 -234 797 -234 817.5 -229.5 c 128,-1,57
 838 -225 838 -225 852 -219 c 1,58,-1
 852 -371 l 1,59,60
 844 -381 844 -381 824.5 -389.5 c 128,-1,61
 805 -398 805 -398 779 -404 c 128,-1,62
 753 -410 753 -410 722.5 -413.5 c 128,-1,63
 692 -417 692 -417 662 -417 c 0,64,65
 537 -417 537 -417 441 -387 c 128,-1,66
 345 -357 345 -357 275 -306 c 128,-1,67
 205 -255 205 -255 159 -188.5 c 128,-1,68
 113 -122 113 -122 87.5 -49.5 c 128,-1,69
 62 23 62 23 55.5 96.5 c 128,-1,70
 49 170 49 170 58 235 c 1,18,19
EndSplineSet
EndChar

StartChar: exclam
Encoding: 33 33 49
Width: 706
Flags: W
LayerCount: 2
Fore
SplineSet
215 1780 m 1,0,-1
 471 1780 l 1,1,-1
 398 490 l 1,2,-1
 280 490 l 1,3,-1
 215 1780 l 1,0,-1
215 101 m 0,4,5
 215 132 215 132 228.5 159 c 128,-1,6
 242 186 242 186 263 205.5 c 128,-1,7
 284 225 284 225 310.5 236 c 128,-1,8
 337 247 337 247 364 247 c 0,9,10
 430 247 430 247 460.5 210.5 c 128,-1,11
 491 174 491 174 491 123 c 0,12,13
 491 90 491 90 478 63 c 128,-1,14
 465 36 465 36 444 17.5 c 128,-1,15
 423 -1 423 -1 396 -11.5 c 128,-1,16
 369 -22 369 -22 341 -22 c 0,17,18
 317 -22 317 -22 294 -13.5 c 128,-1,19
 271 -5 271 -5 253.5 10.5 c 128,-1,20
 236 26 236 26 225.5 49 c 128,-1,21
 215 72 215 72 215 101 c 0,4,5
EndSplineSet
EndChar

StartChar: exclamdown
Encoding: 161 161 50
Width: 706
Flags: W
LayerCount: 2
Fore
SplineSet
348 1168 m 0,0,1
 324 1168 324 1168 301 1176.5 c 128,-1,2
 278 1185 278 1185 260.5 1200.5 c 128,-1,3
 243 1216 243 1216 232.5 1239 c 128,-1,4
 222 1262 222 1262 222 1291 c 0,5,6
 222 1322 222 1322 235.5 1349 c 128,-1,7
 249 1376 249 1376 270 1395.5 c 128,-1,8
 291 1415 291 1415 317.5 1426 c 128,-1,9
 344 1437 344 1437 371 1437 c 0,10,11
 437 1437 437 1437 467.5 1400.5 c 128,-1,12
 498 1364 498 1364 498 1313 c 0,13,14
 498 1280 498 1280 485 1253 c 128,-1,15
 472 1226 472 1226 451 1207.5 c 128,-1,16
 430 1189 430 1189 403 1178.5 c 128,-1,17
 376 1168 376 1168 348 1168 c 0,0,1
288 922 m 1,18,-1
 406 922 l 1,19,-1
 471 -408 l 1,20,-1
 215 -408 l 1,21,-1
 288 922 l 1,18,-1
EndSplineSet
EndChar

StartChar: uni00AD
Encoding: 173 173 51
Width: 892
Flags: W
LayerCount: 2
Fore
SplineSet
79 705 m 1,0,-1
 811 705 l 1,1,-1
 811 532 l 1,2,-1
 79 532 l 1,3,-1
 79 705 l 1,0,-1
EndSplineSet
EndChar

StartChar: endash
Encoding: 8211 8211 52
Width: 1084
Flags: W
LayerCount: 2
Fore
SplineSet
30 703 m 1,0,-1
 1054 703 l 1,1,-1
 1054 530 l 1,2,-1
 30 530 l 1,3,-1
 30 703 l 1,0,-1
EndSplineSet
EndChar

StartChar: emdash
Encoding: 8212 8212 53
Width: 2108
Flags: W
LayerCount: 2
Fore
SplineSet
30 703 m 1,0,-1
 2078 703 l 1,1,-1
 2078 530 l 1,2,-1
 30 530 l 1,3,-1
 30 703 l 1,0,-1
EndSplineSet
EndChar

StartChar: underscore
Encoding: 95 95 54
Width: 1063
Flags: W
LayerCount: 2
Fore
SplineSet
1083 -192 m 1,0,-1
 1083 -339 l 1,1,-1
 -20 -339 l 1,2,-1
 -20 -192 l 1,3,-1
 1083 -192 l 1,0,-1
EndSplineSet
EndChar

StartChar: slash
Encoding: 47 47 55
Width: 715
Flags: W
LayerCount: 2
Fore
SplineSet
553 1599 m 1,0,-1
 736 1599 l 1,1,-1
 163 -363 l 1,2,-1
 -20 -363 l 1,3,-1
 553 1599 l 1,0,-1
EndSplineSet
EndChar

StartChar: backslash
Encoding: 92 92 56
Width: 715
Flags: W
LayerCount: 2
Fore
SplineSet
-20 1599 m 1,0,-1
 163 1599 l 1,1,-1
 736 -363 l 1,2,-1
 553 -363 l 1,3,-1
 -20 1599 l 1,0,-1
EndSplineSet
EndChar

StartChar: bar
Encoding: 124 124 57
Width: 873
Flags: W
LayerCount: 2
Fore
SplineSet
358 1780 m 1,0,-1
 531 1780 l 1,1,-1
 531 -186 l 1,2,-1
 358 -186 l 1,3,-1
 358 1780 l 1,0,-1
EndSplineSet
EndChar

StartChar: A
Encoding: 65 65 58
Width: 1502
Flags: W
LayerCount: 2
Fore
SplineSet
2 85 m 1,0,-1
 142 114 l 1,1,-1
 667 1541 l 1,2,-1
 849 1541 l 1,3,-1
 1332 115 l 1,4,-1
 1501 85 l 1,5,-1
 1501 0 l 1,6,-1
 953 0 l 1,7,-1
 953 85 l 1,8,-1
 1115 115 l 1,9,-1
 1013 437 l 1,10,-1
 418 437 l 1,11,-1
 309 115 l 1,12,-1
 480 85 l 1,13,-1
 480 0 l 1,14,-1
 2 0 l 1,15,-1
 2 85 l 1,0,-1
975 554 m 1,16,-1
 820 1042 l 1,17,-1
 725 1343 l 1,18,-1
 458 554 l 1,19,-1
 975 554 l 1,16,-1
EndSplineSet
EndChar

StartChar: B
Encoding: 66 66 59
Width: 1415
Flags: W
LayerCount: 2
Fore
SplineSet
102 85 m 1,0,-1
 271 115 l 1,1,-1
 271 1416 l 1,2,-1
 106 1433 l 1,3,-1
 106 1531 l 1,4,-1
 359 1531 l 1,5,6
 425 1533 425 1533 515.5 1538.5 c 128,-1,7
 606 1544 606 1544 727 1543 c 0,8,9
 969 1541 969 1541 1094.5 1459.5 c 128,-1,10
 1220 1378 1220 1378 1220 1217 c 0,11,12
 1220 1148 1220 1148 1202.5 1086 c 128,-1,13
 1185 1024 1185 1024 1149 974 c 128,-1,14
 1113 924 1113 924 1058 888 c 128,-1,15
 1003 852 1003 852 928 835 c 1,16,17
 1010 834 1010 834 1082 806.5 c 128,-1,18
 1154 779 1154 779 1207 729.5 c 128,-1,19
 1260 680 1260 680 1291 610.5 c 128,-1,20
 1322 541 1322 541 1322 456 c 0,21,22
 1322 355 1322 355 1282.5 269 c 128,-1,23
 1243 183 1243 183 1162.5 120 c 128,-1,24
 1082 57 1082 57 960.5 21.5 c 128,-1,25
 839 -14 839 -14 674 -14 c 0,26,27
 631 -14 631 -14 586 -12.5 c 128,-1,28
 541 -11 541 -11 499 -9 c 128,-1,29
 457 -7 457 -7 420 -4.5 c 128,-1,30
 383 -2 383 -2 357 0 c 1,31,-1
 102 0 l 1,32,-1
 102 85 l 1,0,-1
466 879 m 1,33,34
 491 874 491 874 522.5 872.5 c 128,-1,35
 554 871 554 871 586.5 871 c 128,-1,36
 619 871 619 871 650.5 871.5 c 128,-1,37
 682 872 682 872 707 872 c 0,38,39
 783 872 783 872 844 891.5 c 128,-1,40
 905 911 905 911 947.5 950 c 128,-1,41
 990 989 990 989 1013 1046.5 c 128,-1,42
 1036 1104 1036 1104 1036 1180 c 0,43,44
 1036 1250 1036 1250 1009.5 1298.5 c 128,-1,45
 983 1347 983 1347 936 1377.5 c 128,-1,46
 889 1408 889 1408 825.5 1422 c 128,-1,47
 762 1436 762 1436 687 1436 c 0,48,49
 668 1436 668 1436 638 1436.5 c 128,-1,50
 608 1437 608 1437 575.5 1436.5 c 128,-1,51
 543 1436 543 1436 514 1433 c 128,-1,52
 485 1430 485 1430 468 1423 c 1,53,-1
 466 879 l 1,33,34
466 135 m 1,54,55
 479 127 479 127 508.5 119.5 c 128,-1,56
 538 112 538 112 574 107 c 128,-1,57
 610 102 610 102 648.5 99 c 128,-1,58
 687 96 687 96 719 96 c 0,59,60
 801 96 801 96 873 113 c 128,-1,61
 945 130 945 130 998.5 168 c 128,-1,62
 1052 206 1052 206 1083 267.5 c 128,-1,63
 1114 329 1114 329 1114 418 c 0,64,65
 1114 591 1114 591 1019.5 670.5 c 128,-1,66
 925 750 925 750 737 750 c 0,67,68
 702 750 702 750 665.5 750.5 c 128,-1,69
 629 751 629 751 593.5 750.5 c 128,-1,70
 558 750 558 750 525.5 749 c 128,-1,71
 493 748 493 748 466 745 c 1,72,-1
 466 135 l 1,54,55
EndSplineSet
EndChar

StartChar: C
Encoding: 67 67 60
Width: 1441
Flags: W
LayerCount: 2
Fore
SplineSet
110 724 m 0,0,1
 110 853 110 853 140 964 c 128,-1,2
 170 1075 170 1075 224 1167 c 128,-1,3
 278 1259 278 1259 353 1329.5 c 128,-1,4
 428 1400 428 1400 517.5 1449 c 128,-1,5
 607 1498 607 1498 708 1523 c 128,-1,6
 809 1548 809 1548 916 1548 c 0,7,8
 988 1548 988 1548 1050 1539.5 c 128,-1,9
 1112 1531 1112 1531 1164 1519.5 c 128,-1,10
 1216 1508 1216 1508 1258 1496 c 128,-1,11
 1300 1484 1300 1484 1333 1477 c 1,12,-1
 1317 1187 l 1,13,-1
 1211 1187 l 1,14,-1
 1159 1354 l 1,15,16
 1127 1375 1127 1375 1095 1390 c 128,-1,17
 1063 1405 1063 1405 1026.5 1414.5 c 128,-1,18
 990 1424 990 1424 947.5 1428 c 128,-1,19
 905 1432 905 1432 853 1432 c 0,20,21
 746 1432 746 1432 648.5 1391 c 128,-1,22
 551 1350 551 1350 476.5 1268.5 c 128,-1,23
 402 1187 402 1187 358 1066 c 128,-1,24
 314 945 314 945 314 786 c 0,25,26
 314 644 314 644 349.5 515.5 c 128,-1,27
 385 387 385 387 455.5 289.5 c 128,-1,28
 526 192 526 192 630 134.5 c 128,-1,29
 734 77 734 77 871 77 c 0,30,31
 992 77 992 77 1067 108.5 c 128,-1,32
 1142 140 1142 140 1187 197 c 1,33,-1
 1245 351 l 1,34,35
 1268 351 1268 351 1289.5 350.5 c 128,-1,36
 1311 350 1311 350 1334 350 c 1,37,-1
 1334 63 l 1,38,39
 1298 61 1298 61 1254.5 47 c 128,-1,40
 1211 33 1211 33 1151 16 c 128,-1,41
 1091 -1 1091 -1 1011.5 -14.5 c 128,-1,42
 932 -28 932 -28 825 -28 c 0,43,44
 670 -28 670 -28 539 27 c 128,-1,45
 408 82 408 82 312.5 181.5 c 128,-1,46
 217 281 217 281 163.5 419 c 128,-1,47
 110 557 110 557 110 724 c 0,0,1
EndSplineSet
EndChar

StartChar: D
Encoding: 68 68 61
Width: 1591
Flags: W
LayerCount: 2
Fore
SplineSet
102 85 m 1,0,-1
 271 115 l 1,1,-1
 271 1415 l 1,2,-1
 106 1433 l 1,3,-1
 106 1531 l 1,4,-1
 369 1531 l 2,5,6
 432 1531 432 1531 482.5 1532.5 c 128,-1,7
 533 1534 533 1534 578 1536.5 c 128,-1,8
 623 1539 623 1539 664.5 1541 c 128,-1,9
 706 1543 706 1543 751 1543 c 0,10,11
 931 1543 931 1543 1069 1495 c 128,-1,12
 1207 1447 1207 1447 1300 1354.5 c 128,-1,13
 1393 1262 1393 1262 1441 1127 c 128,-1,14
 1489 992 1489 992 1489 817 c 0,15,16
 1489 620 1489 620 1428 465.5 c 128,-1,17
 1367 311 1367 311 1260.5 204 c 128,-1,18
 1154 97 1154 97 1009.5 42 c 128,-1,19
 865 -13 865 -13 699 -10 c 0,20,21
 627 -8 627 -8 548 -3.5 c 128,-1,22
 469 1 469 1 372 1 c 0,23,24
 304 1 304 1 237 0.5 c 128,-1,25
 170 0 170 0 102 0 c 1,26,-1
 102 85 l 1,0,-1
466 132 m 1,27,28
 528 114 528 114 593.5 106 c 128,-1,29
 659 98 659 98 734 100 c 0,30,31
 844 103 844 103 943.5 147 c 128,-1,32
 1043 191 1043 191 1119 275 c 128,-1,33
 1195 359 1195 359 1239.5 482.5 c 128,-1,34
 1284 606 1284 606 1284 768 c 0,35,36
 1284 927 1284 927 1245 1052 c 128,-1,37
 1206 1177 1206 1177 1130 1263 c 128,-1,38
 1054 1349 1054 1349 943.5 1393 c 128,-1,39
 833 1437 833 1437 691 1433 c 0,40,41
 653 1432 653 1432 626 1431 c 128,-1,42
 599 1430 599 1430 574.5 1427.5 c 128,-1,43
 550 1425 550 1425 524.5 1422 c 128,-1,44
 499 1419 499 1419 466 1413 c 1,45,-1
 466 132 l 1,27,28
EndSplineSet
EndChar

StartChar: E
Encoding: 69 69 62
Width: 1351
Flags: W
LayerCount: 2
Fore
SplineSet
102 85 m 1,0,-1
 271 115 l 1,1,-1
 271 1415 l 1,2,-1
 106 1433 l 1,3,-1
 106 1531 l 1,4,-1
 1120 1531 l 1,5,-1
 1149 1245 l 1,6,-1
 1039 1245 l 1,7,-1
 993 1413 l 1,8,-1
 465 1426 l 1,9,-1
 465 867 l 1,10,-1
 861 874 l 1,11,-1
 891 1031 l 1,12,-1
 993 1031 l 1,13,-1
 993 601 l 1,14,-1
 891 601 l 1,15,-1
 861 754 l 1,16,-1
 465 760 l 1,17,-1
 465 108 l 1,18,-1
 1025 127 l 1,19,-1
 1125 334 l 1,20,-1
 1222 310 l 1,21,-1
 1177 0 l 1,22,-1
 102 0 l 1,23,-1
 102 85 l 1,0,-1
EndSplineSet
EndChar

StartChar: F
Encoding: 70 70 63
Width: 1249
Flags: W
LayerCount: 2
Fore
SplineSet
100 85 m 1,0,-1
 271 114 l 1,1,-1
 271 1416 l 1,2,-1
 106 1433 l 1,3,-1
 106 1531 l 1,4,-1
 1150 1531 l 1,5,-1
 1169 1246 l 1,6,-1
 1069 1244 l 1,7,-1
 1023 1407 l 1,8,-1
 465 1421 l 1,9,-1
 465 847 l 1,10,-1
 900 856 l 1,11,-1
 940 1001 l 1,12,-1
 1038 1001 l 1,13,-1
 1038 581 l 1,14,-1
 927 581 l 1,15,-1
 901 732 l 1,16,-1
 465 740 l 1,17,-1
 465 115 l 1,18,-1
 754 95 l 1,19,-1
 754 0 l 1,20,-1
 100 0 l 1,21,-1
 100 85 l 1,0,-1
EndSplineSet
EndChar

StartChar: G
Encoding: 71 71 64
Width: 1579
Flags: W
LayerCount: 2
Fore
SplineSet
114 724 m 0,0,1
 114 917 114 917 178 1070 c 128,-1,2
 242 1223 242 1223 351.5 1329.5 c 128,-1,3
 461 1436 461 1436 606.5 1492 c 128,-1,4
 752 1548 752 1548 916 1548 c 0,5,6
 1010 1548 1010 1548 1083.5 1540.5 c 128,-1,7
 1157 1533 1157 1533 1213 1522.5 c 128,-1,8
 1269 1512 1269 1512 1309 1501 c 128,-1,9
 1349 1490 1349 1490 1375 1484 c 1,10,-1
 1359 1194 l 1,11,-1
 1253 1194 l 1,12,-1
 1201 1361 l 1,13,14
 1193 1371 1193 1371 1167.5 1383.5 c 128,-1,15
 1142 1396 1142 1396 1099 1407.5 c 128,-1,16
 1056 1419 1056 1419 994.5 1426 c 128,-1,17
 933 1433 933 1433 853 1432 c 0,18,19
 746 1430 746 1430 649 1387.5 c 128,-1,20
 552 1345 552 1345 478.5 1263.5 c 128,-1,21
 405 1182 405 1182 361.5 1062 c 128,-1,22
 318 942 318 942 318 786 c 0,23,24
 318 695 318 695 332.5 607.5 c 128,-1,25
 347 520 347 520 376 441.5 c 128,-1,26
 405 363 405 363 449.5 296 c 128,-1,27
 494 229 494 229 553.5 180.5 c 128,-1,28
 613 132 613 132 688.5 104.5 c 128,-1,29
 764 77 764 77 855 77 c 0,30,31
 898 77 898 77 944 81.5 c 128,-1,32
 990 86 990 86 1034 97.5 c 128,-1,33
 1078 109 1078 109 1117 129.5 c 128,-1,34
 1156 150 1156 150 1186 183 c 1,35,-1
 1186 593 l 1,36,-1
 943 610 l 1,37,-1
 943 708 l 1,38,-1
 1504 708 l 1,39,-1
 1504 610 l 1,40,-1
 1381 592 l 1,41,-1
 1381 81 l 1,42,43
 1348 79 1348 79 1288.5 62 c 128,-1,44
 1229 45 1229 45 1152.5 25 c 128,-1,45
 1076 5 1076 5 988 -11.5 c 128,-1,46
 900 -28 900 -28 809 -28 c 0,47,48
 654 -28 654 -28 526 28.5 c 128,-1,49
 398 85 398 85 306.5 185.5 c 128,-1,50
 215 286 215 286 164.5 423.5 c 128,-1,51
 114 561 114 561 114 724 c 0,0,1
EndSplineSet
EndChar

StartChar: H
Encoding: 72 72 65
Width: 1698
Flags: W
LayerCount: 2
Fore
SplineSet
102 85 m 1,0,-1
 271 115 l 1,1,-1
 271 1415 l 1,2,-1
 106 1433 l 1,3,-1
 106 1531 l 1,4,-1
 629 1531 l 1,5,-1
 629 1433 l 1,6,-1
 466 1416 l 1,7,-1
 466 814 l 1,8,-1
 1233 814 l 1,9,-1
 1233 1416 l 1,10,-1
 1068 1433 l 1,11,-1
 1068 1531 l 1,12,-1
 1591 1531 l 1,13,-1
 1591 1433 l 1,14,-1
 1427 1416 l 1,15,-1
 1427 115 l 1,16,-1
 1599 85 l 1,17,-1
 1599 0 l 1,18,-1
 1061 0 l 1,19,-1
 1061 85 l 1,20,-1
 1233 114 l 1,21,-1
 1233 696 l 1,22,-1
 466 696 l 1,23,-1
 466 115 l 1,24,-1
 638 85 l 1,25,-1
 638 0 l 1,26,-1
 102 0 l 1,27,-1
 102 85 l 1,0,-1
EndSplineSet
EndChar

StartChar: I
Encoding: 73 73 66
Width: 764
Flags: W
LayerCount: 2
Fore
SplineSet
105 85 m 1,0,-1
 284 114 l 1,1,-1
 284 1416 l 1,2,-1
 109 1433 l 1,3,-1
 109 1531 l 1,4,-1
 652 1531 l 1,5,-1
 652 1433 l 1,6,-1
 479 1415 l 1,7,-1
 479 115 l 1,8,-1
 661 85 l 1,9,-1
 661 0 l 1,10,-1
 105 0 l 1,11,-1
 105 85 l 1,0,-1
EndSplineSet
EndChar

StartChar: J
Encoding: 74 74 67
Width: 739
Flags: W
LayerCount: 2
Fore
SplineSet
238 -59 m 1,0,1
 253 -15 253 -15 262 33.5 c 128,-1,2
 271 82 271 82 276 138.5 c 128,-1,3
 281 195 281 195 282.5 259.5 c 128,-1,4
 284 324 284 324 284 401 c 2,5,-1
 284 1416 l 1,6,-1
 119 1433 l 1,7,-1
 119 1531 l 1,8,-1
 642 1531 l 1,9,-1
 642 1433 l 1,10,-1
 479 1415 l 1,11,-1
 479 550 l 2,12,13
 479 479 479 479 479.5 411.5 c 128,-1,14
 480 344 480 344 479 280.5 c 128,-1,15
 478 217 478 217 474 159 c 128,-1,16
 470 101 470 101 460 49 c 0,17,18
 440 -50 440 -50 389.5 -126 c 128,-1,19
 339 -202 339 -202 272 -255.5 c 128,-1,20
 205 -309 205 -309 129 -340.5 c 128,-1,21
 53 -372 53 -372 -18 -381 c 1,22,-1
 -70 -310 l 1,23,24
 42 -274 42 -274 121 -214.5 c 128,-1,25
 200 -155 200 -155 238 -59 c 1,0,1
EndSplineSet
EndChar

StartChar: K
Encoding: 75 75 68
Width: 1421
Flags: W
LayerCount: 2
Fore
SplineSet
102 85 m 1,0,-1
 271 114 l 1,1,-1
 271 1416 l 1,2,-1
 106 1433 l 1,3,-1
 106 1531 l 1,4,-1
 629 1531 l 1,5,-1
 629 1433 l 1,6,-1
 466 1415 l 1,7,-1
 466 728 l 1,8,-1
 1069 1416 l 1,9,-1
 916 1433 l 1,10,11
 916 1458 916 1458 915.5 1482 c 128,-1,12
 915 1506 915 1506 915 1531 c 1,13,-1
 1398 1531 l 1,14,-1
 1398 1433 l 1,15,-1
 1251 1415 l 1,16,-1
 754 880 l 1,17,-1
 761 881 l 1,18,19
 783 859 783 859 816.5 814 c 128,-1,20
 850 769 850 769 890 710.5 c 128,-1,21
 930 652 930 652 974 585 c 128,-1,22
 1018 518 1018 518 1062.5 451.5 c 128,-1,23
 1107 385 1107 385 1149 323.5 c 128,-1,24
 1191 262 1191 262 1226 215 c 128,-1,25
 1261 168 1261 168 1287 141 c 128,-1,26
 1313 114 1313 114 1326 115 c 1,27,-1
 1433 85 l 1,28,-1
 1433 0 l 1,29,-1
 1169 0 l 2,30,31
 1156 0 1156 0 1133 26 c 128,-1,32
 1110 52 1110 52 1080 95.5 c 128,-1,33
 1050 139 1050 139 1014.5 197 c 128,-1,34
 979 255 979 255 940.5 318.5 c 128,-1,35
 902 382 902 382 862.5 448 c 128,-1,36
 823 514 823 514 785 574 c 128,-1,37
 747 634 747 634 712 684 c 128,-1,38
 677 734 677 734 648 766 c 1,39,-1
 466 569 l 1,40,-1
 466 114 l 1,41,-1
 688 85 l 1,42,-1
 688 0 l 1,43,-1
 102 0 l 1,44,-1
 102 85 l 1,0,-1
EndSplineSet
EndChar

StartChar: L
Encoding: 76 76 69
Width: 1240
Flags: W
LayerCount: 2
Fore
SplineSet
102 85 m 1,0,-1
 271 115 l 1,1,-1
 271 1405 l 1,2,-1
 106 1422 l 1,3,-1
 106 1531 l 1,4,-1
 644 1531 l 1,5,-1
 644 1422 l 1,6,-1
 467 1405 l 1,7,-1
 465 112 l 1,8,-1
 1000 136 l 1,9,-1
 1123 374 l 1,10,-1
 1210 331 l 1,11,-1
 1145 0 l 1,12,-1
 102 0 l 1,13,-1
 102 85 l 1,0,-1
EndSplineSet
EndChar

StartChar: M
Encoding: 77 77 70
Width: 1984
Flags: W
LayerCount: 2
Fore
SplineSet
59 85 m 1,0,-1
 231 114 l 1,1,-1
 318 1405 l 1,2,-1
 123 1422 l 1,3,-1
 123 1531 l 1,4,-1
 591 1531 l 1,5,-1
 882 700 l 1,6,-1
 965 463 l 1,7,-1
 1008 314 l 1,8,-1
 1061 467 l 1,9,-1
 1412 1530 l 1,10,-1
 1853 1530 l 1,11,-1
 1853 1422 l 1,12,-1
 1666 1405 l 1,13,-1
 1753 115 l 1,14,-1
 1924 85 l 1,15,-1
 1924 0 l 1,16,-1
 1388 0 l 1,17,-1
 1388 85 l 1,18,-1
 1553 115 l 1,19,-1
 1505 905 l 2,20,21
 1503 936 1503 936 1500.5 966.5 c 128,-1,22
 1498 997 1498 997 1497 1028 c 2,23,-1
 1487 1374 l 1,24,-1
 1446 1211 l 1,25,-1
 1018 -15 l 1,26,-1
 951 -15 l 1,27,-1
 587 938 l 1,28,-1
 542 1057 l 1,29,30
 513 1138 513 1138 486 1220 c 128,-1,31
 459 1302 459 1302 431 1384 c 1,32,-1
 423 1042 l 1,33,-1
 386 116 l 1,34,-1
 577 85 l 1,35,-1
 577 0 l 1,36,-1
 59 0 l 1,37,-1
 59 85 l 1,0,-1
EndSplineSet
EndChar

StartChar: N
Encoding: 78 78 71
Width: 1670
Flags: W
LayerCount: 2
Fore
SplineSet
100 85 m 1,0,-1
 271 115 l 1,1,-1
 271 1405 l 1,2,-1
 106 1422 l 1,3,-1
 106 1531 l 1,4,-1
 462 1531 l 1,5,-1
 1134 458 l 1,6,-1
 1272 186 l 1,7,-1
 1272 1405 l 1,8,-1
 1108 1422 l 1,9,-1
 1108 1530 l 1,10,-1
 1581 1530 l 1,11,-1
 1581 1422 l 1,12,-1
 1415 1405 l 1,13,-1
 1415 0 l 1,14,-1
 1217 0 l 1,15,16
 1065 235 1065 235 917 468 c 128,-1,17
 769 701 769 701 617 936 c 2,18,-1
 550 1040 l 1,19,-1
 414 1301 l 1,20,-1
 414 115 l 1,21,-1
 608 85 l 1,22,-1
 608 0 l 1,23,-1
 100 0 l 1,24,-1
 100 85 l 1,0,-1
EndSplineSet
EndChar

StartChar: O
Encoding: 79 79 72
Width: 1554
Flags: W
LayerCount: 2
Fore
SplineSet
86 742 m 0,0,1
 90 931 90 931 147.5 1079.5 c 128,-1,2
 205 1228 205 1228 302 1331.5 c 128,-1,3
 399 1435 399 1435 527 1491.5 c 128,-1,4
 655 1548 655 1548 800 1552 c 0,5,6
 956 1556 956 1556 1081 1498.5 c 128,-1,7
 1206 1441 1206 1441 1292.5 1336.5 c 128,-1,8
 1379 1232 1379 1232 1424 1089 c 128,-1,9
 1469 946 1469 946 1466 778 c 0,10,11
 1462 589 1462 589 1406.5 440.5 c 128,-1,12
 1351 292 1351 292 1257 189 c 128,-1,13
 1163 86 1163 86 1037.5 30.5 c 128,-1,14
 912 -25 912 -25 770 -28 c 0,15,16
 612 -31 612 -31 484 26 c 128,-1,17
 356 83 356 83 266.5 186.5 c 128,-1,18
 177 290 177 290 130 432.5 c 128,-1,19
 83 575 83 575 86 742 c 0,0,1
787 77 m 0,20,21
 897 77 897 77 983 124.5 c 128,-1,22
 1069 172 1069 172 1128.5 262 c 128,-1,23
 1188 352 1188 352 1219 482 c 128,-1,24
 1250 612 1250 612 1250 777 c 0,25,26
 1250 863 1250 863 1237 946 c 128,-1,27
 1224 1029 1224 1029 1198 1103 c 128,-1,28
 1172 1177 1172 1177 1133 1240 c 128,-1,29
 1094 1303 1094 1303 1042.5 1349 c 128,-1,30
 991 1395 991 1395 927 1420.5 c 128,-1,31
 863 1446 863 1446 787 1446 c 0,32,33
 674 1446 674 1446 584.5 1398 c 128,-1,34
 495 1350 495 1350 432 1259 c 128,-1,35
 369 1168 369 1168 335.5 1038 c 128,-1,36
 302 908 302 908 302 743 c 0,37,38
 302 657 302 657 316.5 574.5 c 128,-1,39
 331 492 331 492 359 418 c 128,-1,40
 387 344 387 344 428.5 281.5 c 128,-1,41
 470 219 470 219 524 173.5 c 128,-1,42
 578 128 578 128 644 102.5 c 128,-1,43
 710 77 710 77 787 77 c 0,20,21
EndSplineSet
EndChar

StartChar: P
Encoding: 80 80 73
Width: 1304
Flags: W
LayerCount: 2
Fore
SplineSet
82 85 m 1,0,-1
 271 115 l 1,1,-1
 271 1405 l 1,2,-1
 106 1422 l 1,3,-1
 106 1531 l 1,4,-1
 369 1531 l 2,5,6
 393 1531 393 1531 433 1534.5 c 128,-1,7
 473 1538 473 1538 521.5 1541.5 c 128,-1,8
 570 1545 570 1545 622.5 1548.5 c 128,-1,9
 675 1552 675 1552 725 1552 c 0,10,11
 840 1552 840 1552 936 1532.5 c 128,-1,12
 1032 1513 1032 1513 1101 1462.5 c 128,-1,13
 1170 1412 1170 1412 1208.5 1325 c 128,-1,14
 1247 1238 1247 1238 1247 1103 c 0,15,16
 1247 1022 1247 1022 1224.5 952 c 128,-1,17
 1202 882 1202 882 1162 825 c 128,-1,18
 1122 768 1122 768 1067 724 c 128,-1,19
 1012 680 1012 680 948 651 c 128,-1,20
 884 622 884 622 812.5 607.5 c 128,-1,21
 741 593 741 593 668 595 c 0,22,23
 592 597 592 597 545 596 c 128,-1,24
 498 595 498 595 466 590 c 1,25,-1
 466 115 l 1,26,-1
 733 85 l 1,27,-1
 733 0 l 1,28,-1
 82 0 l 1,29,-1
 82 85 l 1,0,-1
466 708 m 1,30,31
 523 700 523 700 571.5 698.5 c 128,-1,32
 620 697 620 697 665 697 c 0,33,34
 713 697 713 697 760.5 703.5 c 128,-1,35
 808 710 808 710 850.5 726.5 c 128,-1,36
 893 743 893 743 929.5 771.5 c 128,-1,37
 966 800 966 800 992.5 845 c 128,-1,38
 1019 890 1019 890 1034 952.5 c 128,-1,39
 1049 1015 1049 1015 1049 1100 c 0,40,41
 1049 1192 1049 1192 1022.5 1258.5 c 128,-1,42
 996 1325 996 1325 945 1366.5 c 128,-1,43
 894 1408 894 1408 819.5 1426.5 c 128,-1,44
 745 1445 745 1445 649 1441 c 0,45,46
 600 1439 600 1439 555.5 1436 c 128,-1,47
 511 1433 511 1433 466 1422 c 1,48,-1
 466 708 l 1,30,31
EndSplineSet
EndChar

StartChar: Q
Encoding: 81 81 74
Width: 1565
Flags: W
LayerCount: 2
Fore
SplineSet
86 742 m 0,0,1
 90 931 90 931 147.5 1079.5 c 128,-1,2
 205 1228 205 1228 302 1331.5 c 128,-1,3
 399 1435 399 1435 527 1491.5 c 128,-1,4
 655 1548 655 1548 800 1552 c 0,5,6
 956 1556 956 1556 1081 1498.5 c 128,-1,7
 1206 1441 1206 1441 1292.5 1336.5 c 128,-1,8
 1379 1232 1379 1232 1424 1089 c 128,-1,9
 1469 946 1469 946 1466 778 c 0,10,11
 1463 621 1463 621 1423.5 492 c 128,-1,12
 1384 363 1384 363 1316 264.5 c 128,-1,13
 1248 166 1248 166 1156 99 c 128,-1,14
 1064 32 1064 32 955 0 c 1,15,16
 979 -63 979 -63 1028 -100.5 c 128,-1,17
 1077 -138 1077 -138 1138 -158 c 128,-1,18
 1199 -178 1199 -178 1264 -184 c 128,-1,19
 1329 -190 1329 -190 1385 -190 c 0,20,21
 1427 -190 1427 -190 1471 -182 c 128,-1,22
 1515 -174 1515 -174 1544 -157 c 1,23,-1
 1562 -280 l 1,24,25
 1551 -295 1551 -295 1529 -309 c 128,-1,26
 1507 -323 1507 -323 1475.5 -333.5 c 128,-1,27
 1444 -344 1444 -344 1404.5 -350 c 128,-1,28
 1365 -356 1365 -356 1319 -356 c 0,29,30
 1242 -356 1242 -356 1168.5 -341.5 c 128,-1,31
 1095 -327 1095 -327 1032.5 -289.5 c 128,-1,32
 970 -252 970 -252 922 -187.5 c 128,-1,33
 874 -123 874 -123 847 -22 c 1,34,35
 810 -26 810 -26 770 -28 c 1,36,37
 612 -31 612 -31 484 26 c 128,-1,38
 356 83 356 83 266.5 186.5 c 128,-1,39
 177 290 177 290 130 432.5 c 128,-1,40
 83 575 83 575 86 742 c 0,0,1
787 77 m 0,41,42
 897 77 897 77 983 124.5 c 128,-1,43
 1069 172 1069 172 1128.5 262 c 128,-1,44
 1188 352 1188 352 1219 482 c 128,-1,45
 1250 612 1250 612 1250 777 c 0,46,47
 1250 863 1250 863 1237 946 c 128,-1,48
 1224 1029 1224 1029 1198 1103 c 128,-1,49
 1172 1177 1172 1177 1133 1240 c 128,-1,50
 1094 1303 1094 1303 1042.5 1349 c 128,-1,51
 991 1395 991 1395 927 1420.5 c 128,-1,52
 863 1446 863 1446 787 1446 c 0,53,54
 674 1446 674 1446 584.5 1398 c 128,-1,55
 495 1350 495 1350 432 1259 c 128,-1,56
 369 1168 369 1168 335.5 1038 c 128,-1,57
 302 908 302 908 302 743 c 0,58,59
 302 657 302 657 316.5 574.5 c 128,-1,60
 331 492 331 492 359 418 c 128,-1,61
 387 344 387 344 428.5 281.5 c 128,-1,62
 470 219 470 219 524 173.5 c 128,-1,63
 578 128 578 128 644 102.5 c 128,-1,64
 710 77 710 77 787 77 c 0,41,42
EndSplineSet
EndChar

StartChar: R
Encoding: 82 82 75
Width: 1441
Flags: W
LayerCount: 2
Fore
SplineSet
82 85 m 1,0,-1
 271 115 l 1,1,-1
 271 1405 l 1,2,-1
 106 1422 l 1,3,-1
 106 1531 l 1,4,-1
 369 1531 l 2,5,6
 417 1531 417 1531 493 1537 c 128,-1,7
 569 1543 569 1543 669 1543 c 0,8,9
 784 1543 784 1543 880.5 1527.5 c 128,-1,10
 977 1512 977 1512 1047 1469.5 c 128,-1,11
 1117 1427 1117 1427 1156 1350.5 c 128,-1,12
 1195 1274 1195 1274 1195 1153 c 0,13,14
 1195 1075 1195 1075 1170.5 1006 c 128,-1,15
 1146 937 1146 937 1102 880.5 c 128,-1,16
 1058 824 1058 824 996.5 781 c 128,-1,17
 935 738 935 738 860 712 c 1,18,19
 865 710 865 710 870 708 c 128,-1,20
 875 706 875 706 880 704 c 0,21,22
 927 680 927 680 973.5 629.5 c 128,-1,23
 1020 579 1020 579 1063.5 516 c 128,-1,24
 1107 453 1107 453 1148 385 c 128,-1,25
 1189 317 1189 317 1226 259.5 c 128,-1,26
 1263 202 1263 202 1294.5 162 c 128,-1,27
 1326 122 1326 122 1352 115 c 2,28,-1
 1459 85 l 1,29,-1
 1459 0 l 1,30,-1
 1170 0 l 2,31,32
 1151 0 1151 0 1127 30 c 128,-1,33
 1103 60 1103 60 1075 108.5 c 128,-1,34
 1047 157 1047 157 1015 219.5 c 128,-1,35
 983 282 983 282 948 346 c 128,-1,36
 913 410 913 410 874.5 471 c 128,-1,37
 836 532 836 532 795.5 578.5 c 128,-1,38
 755 625 755 625 712.5 651.5 c 128,-1,39
 670 678 670 678 626 674 c 1,40,41
 591 672 591 672 551.5 672 c 128,-1,42
 512 672 512 672 466 672 c 1,43,-1
 466 114 l 1,44,-1
 673 85 l 1,45,-1
 673 0 l 1,46,-1
 82 0 l 1,47,-1
 82 85 l 1,0,-1
466 785 m 1,48,49
 478 783 478 783 501.5 782 c 128,-1,50
 525 781 525 781 551 780.5 c 128,-1,51
 577 780 577 780 602 779.5 c 128,-1,52
 627 779 627 779 643 779 c 0,53,54
 723 779 723 779 787.5 799 c 128,-1,55
 852 819 852 819 897 861.5 c 128,-1,56
 942 904 942 904 966.5 970.5 c 128,-1,57
 991 1037 991 1037 991 1130 c 0,58,59
 991 1207 991 1207 974 1266.5 c 128,-1,60
 957 1326 957 1326 917 1365 c 128,-1,61
 877 1404 877 1404 810 1423 c 128,-1,62
 743 1442 743 1442 643 1438 c 0,63,64
 594 1436 594 1436 549 1434.5 c 128,-1,65
 504 1433 504 1433 466 1422 c 1,66,-1
 466 785 l 1,48,49
EndSplineSet
EndChar

StartChar: S
Encoding: 83 83 76
Width: 1221
Flags: W
LayerCount: 2
Fore
SplineSet
124 383 m 1,0,-1
 212 383 l 1,1,-1
 275 184 l 1,2,3
 305 153 305 153 344 132.5 c 128,-1,4
 383 112 383 112 426.5 100 c 128,-1,5
 470 88 470 88 516.5 83 c 128,-1,6
 563 78 563 78 607 78 c 0,7,8
 662 78 662 78 716 93 c 128,-1,9
 770 108 770 108 813 139.5 c 128,-1,10
 856 171 856 171 883 220.5 c 128,-1,11
 910 270 910 270 910 340 c 0,12,13
 910 406 910 406 877 459 c 128,-1,14
 844 512 844 512 790 556.5 c 128,-1,15
 736 601 736 601 667 640.5 c 128,-1,16
 598 680 598 680 526.5 719.5 c 128,-1,17
 455 759 455 759 386 802 c 128,-1,18
 317 845 317 845 263 896.5 c 128,-1,19
 209 948 209 948 176 1011.5 c 128,-1,20
 143 1075 143 1075 143 1155 c 0,21,22
 143 1225 143 1225 165.5 1281.5 c 128,-1,23
 188 1338 188 1338 226 1381.5 c 128,-1,24
 264 1425 264 1425 314 1456 c 128,-1,25
 364 1487 364 1487 419 1507.5 c 128,-1,26
 474 1528 474 1528 529.5 1537.5 c 128,-1,27
 585 1547 585 1547 635 1547 c 0,28,29
 708 1547 708 1547 769.5 1540 c 128,-1,30
 831 1533 831 1533 880 1521.5 c 128,-1,31
 929 1510 929 1510 964.5 1496.5 c 128,-1,32
 1000 1483 1000 1483 1022 1470 c 1,33,-1
 1022 1193 l 1,34,-1
 937 1193 l 1,35,-1
 859 1385 l 1,36,37
 841 1401 841 1401 815.5 1413 c 128,-1,38
 790 1425 790 1425 758.5 1433 c 128,-1,39
 727 1441 727 1441 691.5 1444.5 c 128,-1,40
 656 1448 656 1448 620 1448 c 0,41,42
 579 1448 579 1448 528.5 1435 c 128,-1,43
 478 1422 478 1422 433 1392.5 c 128,-1,44
 388 1363 388 1363 357.5 1314 c 128,-1,45
 327 1265 327 1265 327 1192 c 0,46,47
 327 1129 327 1129 360 1078.5 c 128,-1,48
 393 1028 393 1028 447 985.5 c 128,-1,49
 501 943 501 943 570 905.5 c 128,-1,50
 639 868 639 868 711.5 829.5 c 128,-1,51
 784 791 784 791 853 749.5 c 128,-1,52
 922 708 922 708 976 657 c 128,-1,53
 1030 606 1030 606 1063 543 c 128,-1,54
 1096 480 1096 480 1096 400 c 0,55,56
 1096 288 1096 288 1054 208 c 128,-1,57
 1012 128 1012 128 941 76.5 c 128,-1,58
 870 25 870 25 776.5 1 c 128,-1,59
 683 -23 683 -23 580 -23 c 0,60,61
 505 -23 505 -23 432.5 -15 c 128,-1,62
 360 -7 360 -7 298.5 5.5 c 128,-1,63
 237 18 237 18 191 33 c 128,-1,64
 145 48 145 48 124 61 c 1,65,-1
 124 383 l 1,0,-1
EndSplineSet
EndChar

StartChar: T
Encoding: 84 84 77
Width: 1270
Flags: W
LayerCount: 2
Fore
SplineSet
304 85 m 1,0,-1
 546 115 l 1,1,-1
 546 1420 l 1,2,-1
 191 1400 l 1,3,-1
 121 1229 l 1,4,-1
 30 1227 l 1,5,-1
 55 1531 l 1,6,-1
 1246 1531 l 1,7,-1
 1244 1224 l 1,8,-1
 1162 1215 l 1,9,-1
 1110 1401 l 1,10,-1
 741 1421 l 1,11,-1
 741 115 l 1,12,-1
 1005 85 l 1,13,-1
 1005 0 l 1,14,-1
 304 0 l 1,15,-1
 304 85 l 1,0,-1
EndSplineSet
EndChar

StartChar: U
Encoding: 85 85 78
Width: 1640
Flags: W
LayerCount: 2
Fore
SplineSet
221 641 m 0,0,1
 221 836 221 836 221.5 1028 c 128,-1,2
 222 1220 222 1220 222 1415 c 1,3,-1
 63 1433 l 1,4,-1
 63 1531 l 1,5,-1
 596 1531 l 1,6,-1
 596 1433 l 1,7,-1
 417 1414 l 1,8,-1
 417 636 l 2,9,10
 417 467 417 467 451.5 358.5 c 128,-1,11
 486 250 486 250 547 187 c 128,-1,12
 608 124 608 124 691 99.5 c 128,-1,13
 774 75 774 75 872 75 c 0,14,15
 977 75 977 75 1052.5 115 c 128,-1,16
 1128 155 1128 155 1176 231 c 128,-1,17
 1224 307 1224 307 1246.5 416.5 c 128,-1,18
 1269 526 1269 526 1269 666 c 2,19,-1
 1267 1414 l 1,20,-1
 1085 1433 l 1,21,-1
 1085 1531 l 1,22,-1
 1576 1531 l 1,23,-1
 1576 1433 l 1,24,-1
 1417 1414 l 1,25,-1
 1415 667 l 2,26,27
 1415 481 1415 481 1373 349.5 c 128,-1,28
 1331 218 1331 218 1255 134 c 128,-1,29
 1179 50 1179 50 1073 11 c 128,-1,30
 967 -28 967 -28 839 -28 c 0,31,32
 669 -28 669 -28 551 13 c 128,-1,33
 433 54 433 54 359.5 137.5 c 128,-1,34
 286 221 286 221 253.5 346.5 c 128,-1,35
 221 472 221 472 221 641 c 0,0,1
EndSplineSet
EndChar

StartChar: V
Encoding: 86 86 79
Width: 1456
Flags: W
LayerCount: 2
Fore
SplineSet
133 1416 m 1,0,-1
 1 1433 l 1,1,-1
 1 1531 l 1,2,-1
 538 1531 l 1,3,-1
 538 1433 l 1,4,-1
 359 1415 l 1,5,-1
 700 413 l 1,6,-1
 769 195 l 1,7,-1
 836 422 l 2,8,9
 853 480 853 480 869 538 c 128,-1,10
 885 596 885 596 903 654 c 1,11,-1
 1125 1416 l 1,12,-1
 965 1433 l 1,13,-1
 965 1530 l 1,14,-1
 1446 1530 l 1,15,-1
 1446 1433 l 1,16,-1
 1295 1416 l 1,17,-1
 814 -20 l 1,18,-1
 664 -20 l 1,19,-1
 133 1416 l 1,0,-1
EndSplineSet
EndChar

StartChar: W
Encoding: 87 87 80
Width: 2123
Flags: W
LayerCount: 2
Fore
SplineSet
145 1416 m 1,0,-1
 15 1432 l 1,1,-1
 15 1531 l 1,2,-1
 550 1531 l 1,3,-1
 550 1432 l 1,4,-1
 362 1415 l 1,5,-1
 674 408 l 2,6,7
 689 359 689 359 704 311 c 128,-1,8
 719 263 719 263 735 214 c 1,9,-1
 797 396 l 1,10,-1
 1009 1237 l 1,11,-1
 953 1416 l 1,12,-1
 791 1432 l 1,13,-1
 791 1531 l 1,14,-1
 1336 1531 l 1,15,-1
 1336 1432 l 1,16,-1
 1162 1416 l 1,17,-1
 1434 388 l 1,18,-1
 1483 197 l 1,19,-1
 1534 426 l 1,20,-1
 1794 1416 l 1,21,-1
 1622 1432 l 1,22,-1
 1622 1531 l 1,23,-1
 2106 1531 l 1,24,-1
 2106 1432 l 1,25,-1
 1958 1416 l 1,26,-1
 1531 -20 l 1,27,-1
 1370 -20 l 1,28,-1
 1084 975 l 1,29,-1
 799 -20 l 1,30,-1
 635 -20 l 1,31,-1
 145 1416 l 1,0,-1
EndSplineSet
EndChar

StartChar: X
Encoding: 88 88 81
Width: 1468
Flags: W
LayerCount: 2
Fore
SplineSet
39 85 m 1,0,-1
 216 114 l 1,1,-1
 636 766 l 1,2,-1
 237 1417 l 1,3,-1
 90 1433 l 1,4,-1
 90 1531 l 1,5,-1
 651 1531 l 1,6,-1
 651 1433 l 1,7,-1
 473 1416 l 1,8,-1
 762 892 l 1,9,-1
 1075 1416 l 1,10,-1
 922 1433 l 1,11,-1
 922 1531 l 1,12,-1
 1394 1531 l 1,13,-1
 1394 1433 l 1,14,-1
 1253 1417 l 1,15,-1
 835 820 l 1,16,-1
 1265 115 l 1,17,-1
 1429 85 l 1,18,-1
 1429 0 l 1,19,-1
 854 0 l 1,20,-1
 854 85 l 1,21,-1
 1041 115 l 1,22,-1
 707 677 l 1,23,-1
 396 115 l 1,24,-1
 588 85 l 1,25,-1
 588 0 l 1,26,-1
 39 0 l 1,27,-1
 39 85 l 1,0,-1
EndSplineSet
EndChar

StartChar: Y
Encoding: 89 89 82
Width: 1312
Flags: W
LayerCount: 2
Fore
SplineSet
356 85 m 1,0,-1
 560 116 l 1,1,-1
 560 642 l 1,2,-1
 109 1416 l 1,3,-1
 -15 1433 l 1,4,-1
 -15 1531 l 1,5,-1
 488 1531 l 1,6,-1
 488 1433 l 1,7,-1
 334 1415 l 1,8,-1
 642 845 l 1,9,-1
 684 714 l 1,10,-1
 740 853 l 1,11,-1
 1025 1416 l 1,12,-1
 871 1433 l 1,13,-1
 871 1531 l 1,14,-1
 1327 1531 l 1,15,-1
 1327 1433 l 1,16,-1
 1192 1405 l 1,17,-1
 755 628 l 1,18,-1
 755 116 l 1,19,-1
 969 85 l 1,20,-1
 969 0 l 1,21,-1
 356 0 l 1,22,-1
 356 85 l 1,0,-1
EndSplineSet
EndChar

StartChar: Z
Encoding: 90 90 83
Width: 1427
Flags: W
LayerCount: 2
Fore
SplineSet
92 89 m 1,0,-1
 966 1302 l 1,1,-1
 1081 1417 l 1,2,-1
 346 1393 l 1,3,-1
 251 1171 l 1,4,-1
 144 1190 l 1,5,-1
 176 1531 l 1,6,-1
 1276 1531 l 1,7,-1
 1304 1445 l 1,8,-1
 440 232 l 1,9,-1
 346 117 l 1,10,-1
 1079 149 l 1,11,-1
 1236 384 l 1,12,-1
 1335 360 l 1,13,-1
 1244 0 l 1,14,-1
 118 0 l 1,15,-1
 92 89 l 1,0,-1
EndSplineSet
EndChar

StartChar: a
Encoding: 97 97 84
Width: 1108
Flags: W
LayerCount: 2
Fore
SplineSet
98 322 m 0,0,1
 106 392 106 392 144 444.5 c 128,-1,2
 182 497 182 497 238 535 c 128,-1,3
 294 573 294 573 362.5 598 c 128,-1,4
 431 623 431 623 499.5 638 c 128,-1,5
 568 653 568 653 632 659 c 128,-1,6
 696 665 696 665 743 665 c 1,7,-1
 743 752 l 2,8,9
 743 831 743 831 722 880.5 c 128,-1,10
 701 930 701 930 664 958 c 128,-1,11
 627 986 627 986 577 996 c 128,-1,12
 527 1006 527 1006 469 1006 c 0,13,14
 410 1006 410 1006 336 987 c 128,-1,15
 262 968 262 968 191 933 c 1,16,-1
 154 1023 l 1,17,18
 191 1053 191 1053 242 1075 c 128,-1,19
 293 1097 293 1097 346.5 1111.5 c 128,-1,20
 400 1126 400 1126 452 1132.5 c 128,-1,21
 504 1139 504 1139 543 1139 c 0,22,23
 622 1139 622 1139 693.5 1122.5 c 128,-1,24
 765 1106 765 1106 819 1064.5 c 128,-1,25
 873 1023 873 1023 904.5 952.5 c 128,-1,26
 936 882 936 882 936 773 c 2,27,-1
 934 85 l 1,28,-1
 1062 85 l 1,29,-1
 1062 19 l 1,30,31
 1027 0 1027 0 975.5 -12 c 128,-1,32
 924 -24 924 -24 872 -24 c 0,33,34
 854 -24 854 -24 833 -21.5 c 128,-1,35
 812 -19 812 -19 794.5 -9 c 128,-1,36
 777 1 777 1 765.5 22 c 128,-1,37
 754 43 754 43 754 80 c 1,38,-1
 755 111 l 1,39,40
 705 54 705 54 618.5 15 c 128,-1,41
 532 -24 532 -24 403 -24 c 0,42,43
 317 -24 317 -24 256 5.5 c 128,-1,44
 195 35 195 35 157.5 83 c 128,-1,45
 120 131 120 131 105 193.5 c 128,-1,46
 90 256 90 256 98 322 c 0,0,1
292 318 m 0,47,48
 292 259 292 259 310.5 218 c 128,-1,49
 329 177 329 177 361 151.5 c 128,-1,50
 393 126 393 126 436 114.5 c 128,-1,51
 479 103 479 103 528 103 c 0,52,53
 558 103 558 103 589 111 c 128,-1,54
 620 119 620 119 648.5 131 c 128,-1,55
 677 143 677 143 701.5 158.5 c 128,-1,56
 726 174 726 174 741 189 c 1,57,58
 741 283 741 283 741.5 375.5 c 128,-1,59
 742 468 742 468 743 562 c 1,60,61
 701 562 701 562 651 557.5 c 128,-1,62
 601 553 601 553 551 542 c 128,-1,63
 501 531 501 531 454 513 c 128,-1,64
 407 495 407 495 371 467.5 c 128,-1,65
 335 440 335 440 313.5 403 c 128,-1,66
 292 366 292 366 292 318 c 0,47,48
EndSplineSet
EndChar

StartChar: b
Encoding: 98 98 85
Width: 1272
Flags: W
LayerCount: 2
Fore
SplineSet
203 1466 m 1,0,-1
 32 1502 l 1,1,-1
 32 1589 l 1,2,-1
 355 1625 l 1,3,-1
 395 1608 l 1,4,-1
 395 1024 l 1,5,6
 422 1047 422 1047 454.5 1070 c 128,-1,7
 487 1093 487 1093 526.5 1111.5 c 128,-1,8
 566 1130 566 1130 614 1141.5 c 128,-1,9
 662 1153 662 1153 720 1153 c 0,10,11
 804 1153 804 1153 884 1123.5 c 128,-1,12
 964 1094 964 1094 1026 1028.5 c 128,-1,13
 1088 963 1088 963 1126 859 c 128,-1,14
 1164 755 1164 755 1164 605 c 0,15,16
 1164 477 1164 477 1123 362 c 128,-1,17
 1082 247 1082 247 1007.5 160.5 c 128,-1,18
 933 74 933 74 828.5 23 c 128,-1,19
 724 -28 724 -28 598 -28 c 0,20,21
 527 -28 527 -28 460.5 -20 c 128,-1,22
 394 -12 394 -12 340.5 0 c 128,-1,23
 287 12 287 12 250 25.5 c 128,-1,24
 213 39 213 39 203 50 c 1,25,-1
 203 1466 l 1,0,-1
395 158 m 1,26,27
 411 116 411 116 472.5 96.5 c 128,-1,28
 534 77 534 77 621 77 c 0,29,30
 686 77 686 77 748.5 106 c 128,-1,31
 811 135 811 135 860.5 195 c 128,-1,32
 910 255 910 255 940.5 348 c 128,-1,33
 971 441 971 441 973 569 c 0,34,35
 975 689 975 689 946.5 774 c 128,-1,36
 918 859 918 859 871 912 c 128,-1,37
 824 965 824 965 763.5 989.5 c 128,-1,38
 703 1014 703 1014 640 1014 c 0,39,40
 596 1014 596 1014 558.5 1005 c 128,-1,41
 521 996 521 996 490.5 982 c 128,-1,42
 460 968 460 968 435.5 951.5 c 128,-1,43
 411 935 411 935 395 920 c 1,44,-1
 395 158 l 1,26,27
EndSplineSet
EndChar

StartChar: c
Encoding: 99 99 86
Width: 1041
Flags: W
LayerCount: 2
Fore
SplineSet
84 538 m 0,0,1
 83 676 83 676 125.5 787 c 128,-1,2
 168 898 168 898 242 977 c 128,-1,3
 316 1056 316 1056 416 1100 c 128,-1,4
 516 1144 516 1144 631 1149 c 0,5,6
 673 1150 673 1150 716 1147.5 c 128,-1,7
 759 1145 759 1145 797 1138.5 c 128,-1,8
 835 1132 835 1132 866.5 1122 c 128,-1,9
 898 1112 898 1112 918 1099 c 1,10,-1
 918 859 l 1,11,-1
 823 859 l 1,12,-1
 772 985 l 1,13,14
 756 998 756 998 735.5 1007 c 128,-1,15
 715 1016 715 1016 693.5 1022 c 128,-1,16
 672 1028 672 1028 650.5 1030.5 c 128,-1,17
 629 1033 629 1033 611 1033 c 0,18,19
 544 1033 544 1033 482.5 1008 c 128,-1,20
 421 983 421 983 373.5 932.5 c 128,-1,21
 326 882 326 882 297.5 805.5 c 128,-1,22
 269 729 269 729 268 626 c 0,23,24
 267 490 267 490 300 393 c 128,-1,25
 333 296 333 296 386 234.5 c 128,-1,26
 439 173 439 173 504 144.5 c 128,-1,27
 569 116 569 116 632 116 c 0,28,29
 671 116 671 116 710 121 c 128,-1,30
 749 126 749 126 784.5 134 c 128,-1,31
 820 142 820 142 850.5 153.5 c 128,-1,32
 881 165 881 165 902 177 c 1,33,-1
 936 88 l 1,34,35
 907 62 907 62 865 42 c 128,-1,36
 823 22 823 22 773.5 8 c 128,-1,37
 724 -6 724 -6 668.5 -13.5 c 128,-1,38
 613 -21 613 -21 556 -21 c 0,39,40
 444 -21 444 -21 356.5 21 c 128,-1,41
 269 63 269 63 209 138 c 128,-1,42
 149 213 149 213 117 315.5 c 128,-1,43
 85 418 85 418 84 538 c 0,0,1
EndSplineSet
EndChar

StartChar: d
Encoding: 100 100 87
Width: 1272
Flags: W
LayerCount: 2
Fore
SplineSet
540 -24 m 0,0,1
 456 -24 456 -24 377 9.5 c 128,-1,2
 298 43 298 43 237.5 112.5 c 128,-1,3
 177 182 177 182 140 288.5 c 128,-1,4
 103 395 103 395 103 541 c 0,5,6
 103 675 103 675 148 787.5 c 128,-1,7
 193 900 193 900 271 981 c 128,-1,8
 349 1062 349 1062 454.5 1107.5 c 128,-1,9
 560 1153 560 1153 681 1153 c 0,10,11
 734 1153 734 1153 784 1146 c 128,-1,12
 834 1139 834 1139 870 1127 c 1,13,-1
 870 1460 l 1,14,-1
 657 1496 l 1,15,-1
 657 1583 l 1,16,-1
 1017 1625 l 1,17,-1
 1062 1602 l 1,18,-1
 1062 85 l 1,19,-1
 1197 85 l 1,20,-1
 1197 10 l 1,21,22
 1180 1 1180 1 1154.5 -7 c 128,-1,23
 1129 -15 1129 -15 1100.5 -21 c 128,-1,24
 1072 -27 1072 -27 1042.5 -30 c 128,-1,25
 1013 -33 1013 -33 987 -33 c 0,26,27
 969 -33 969 -33 949.5 -30.5 c 128,-1,28
 930 -28 930 -28 914 -18 c 128,-1,29
 898 -8 898 -8 887.5 13 c 128,-1,30
 877 34 877 34 877 71 c 2,31,-1
 877 96 l 1,32,33
 862 79 862 79 833 58 c 128,-1,34
 804 37 804 37 761 19 c 128,-1,35
 718 1 718 1 662.5 -11.5 c 128,-1,36
 607 -24 607 -24 540 -24 c 0,0,1
617 113 m 0,37,38
 649 113 649 113 676.5 116.5 c 128,-1,39
 704 120 704 120 728 126 c 0,40,41
 777 138 777 138 812 158 c 128,-1,42
 847 178 847 178 870 201 c 1,43,-1
 870 966 l 1,44,45
 859 979 859 979 843 993 c 128,-1,46
 827 1007 827 1007 801.5 1019 c 128,-1,47
 776 1031 776 1031 740.5 1038.5 c 128,-1,48
 705 1046 705 1046 657 1046 c 0,49,50
 619 1046 619 1046 578 1036.5 c 128,-1,51
 537 1027 537 1027 497 1005 c 128,-1,52
 457 983 457 983 421 948 c 128,-1,53
 385 913 385 913 357 862.5 c 128,-1,54
 329 812 329 812 312 744.5 c 128,-1,55
 295 677 295 677 294 590 c 0,56,57
 292 467 292 467 319 377 c 128,-1,58
 346 287 346 287 391.5 228.5 c 128,-1,59
 437 170 437 170 496 141.5 c 128,-1,60
 555 113 555 113 617 113 c 0,37,38
EndSplineSet
EndChar

StartChar: e
Encoding: 101 101 88
Width: 1155
Flags: W
LayerCount: 2
Fore
SplineSet
109 556 m 0,0,1
 109 684 109 684 149.5 792 c 128,-1,2
 190 900 190 900 262.5 979 c 128,-1,3
 335 1058 335 1058 437 1103.5 c 128,-1,4
 539 1149 539 1149 662 1152 c 0,5,6
 750 1154 750 1154 821 1126.5 c 128,-1,7
 892 1099 892 1099 942 1045 c 128,-1,8
 992 991 992 991 1020.5 913 c 128,-1,9
 1049 835 1049 835 1053 736 c 0,10,11
 1055 673 1055 673 1050.5 627 c 128,-1,12
 1046 581 1046 581 1041 545 c 1,13,-1
 300 545 l 1,14,15
 300 539 300 539 300 533.5 c 128,-1,16
 300 528 300 528 301 522 c 0,17,18
 305 401 305 401 342 322 c 128,-1,19
 379 243 379 243 434.5 196.5 c 128,-1,20
 490 150 490 150 557 131.5 c 128,-1,21
 624 113 624 113 688 113 c 0,22,23
 727 113 727 113 770 117.5 c 128,-1,24
 813 122 813 122 853.5 130.5 c 128,-1,25
 894 139 894 139 928.5 150 c 128,-1,26
 963 161 963 161 984 173 c 1,27,-1
 1021 88 l 1,28,29
 992 62 992 62 945.5 41 c 128,-1,30
 899 20 899 20 844 5.5 c 128,-1,31
 789 -9 789 -9 729 -16.5 c 128,-1,32
 669 -24 669 -24 612 -24 c 0,33,34
 491 -24 491 -24 397.5 17.5 c 128,-1,35
 304 59 304 59 240 134.5 c 128,-1,36
 176 210 176 210 142.5 317 c 128,-1,37
 109 424 109 424 109 556 c 0,0,1
849 663 m 1,38,39
 852 714 852 714 850.5 765.5 c 128,-1,40
 849 817 849 817 838 863.5 c 128,-1,41
 827 910 827 910 804.5 948.5 c 128,-1,42
 782 987 782 987 744 1011 c 0,43,44
 718 1028 718 1028 685 1036.5 c 128,-1,45
 652 1045 652 1045 610 1045 c 0,46,47
 554 1045 554 1045 501.5 1024 c 128,-1,48
 449 1003 449 1003 407.5 957 c 128,-1,49
 366 911 366 911 338 838.5 c 128,-1,50
 310 766 310 766 302 663 c 1,51,-1
 849 663 l 1,38,39
EndSplineSet
EndChar

StartChar: f
Encoding: 102 102 89
Width: 842
Flags: W
LayerCount: 2
Fore
SplineSet
114 85 m 1,0,-1
 315 107 l 1,1,-1
 315 1005 l 1,2,-1
 95 1005 l 1,3,-1
 95 1081 l 1,4,-1
 315 1140 l 1,5,-1
 315 1202 l 2,6,7
 315 1276 315 1276 333.5 1341.5 c 128,-1,8
 352 1407 352 1407 383.5 1461 c 128,-1,9
 415 1515 415 1515 456.5 1557.5 c 128,-1,10
 498 1600 498 1600 543.5 1629 c 128,-1,11
 589 1658 589 1658 636 1673.5 c 128,-1,12
 683 1689 683 1689 725 1689 c 0,13,14
 793 1689 793 1689 825 1683 c 128,-1,15
 857 1677 857 1677 868 1672 c 1,16,-1
 868 1502 l 1,17,18
 854 1510 854 1510 805.5 1521.5 c 128,-1,19
 757 1533 757 1533 685 1533 c 0,20,21
 644 1533 644 1533 611.5 1526 c 128,-1,22
 579 1519 579 1519 555.5 1493.5 c 128,-1,23
 532 1468 532 1468 519.5 1418.5 c 128,-1,24
 507 1369 507 1369 507 1284 c 2,25,-1
 507 1140 l 1,26,-1
 809 1140 l 1,27,-1
 809 1005 l 1,28,-1
 507 1005 l 1,29,-1
 507 105 l 1,30,-1
 737 85 l 1,31,-1
 737 0 l 1,32,-1
 114 0 l 1,33,-1
 114 85 l 1,0,-1
EndSplineSet
EndChar

StartChar: g
Encoding: 103 103 90
Width: 1211
Flags: W
LayerCount: 2
Fore
SplineSet
126 -245 m 0,0,1
 126 -191 126 -191 143.5 -145.5 c 128,-1,2
 161 -100 161 -100 187 -64 c 128,-1,3
 213 -28 213 -28 244 -2 c 128,-1,4
 275 24 275 24 302 40 c 1,5,6
 261 56 261 56 240 77 c 128,-1,7
 219 98 219 98 211 121.5 c 128,-1,8
 203 145 203 145 203 168 c 128,-1,9
 203 191 203 191 203 212 c 0,10,11
 203 229 203 229 211.5 255.5 c 128,-1,12
 220 282 220 282 235.5 312.5 c 128,-1,13
 251 343 251 343 273 375 c 128,-1,14
 295 407 295 407 322 434 c 1,15,16
 237 478 237 478 186.5 557 c 128,-1,17
 136 636 136 636 136 754 c 0,18,19
 136 857 136 857 175.5 933 c 128,-1,20
 215 1009 215 1009 279.5 1059 c 128,-1,21
 344 1109 344 1109 426 1134 c 128,-1,22
 508 1159 508 1159 592 1161 c 0,23,24
 680 1163 680 1163 757.5 1142 c 128,-1,25
 835 1121 835 1121 893 1074 c 1,26,27
 919 1098 919 1098 960.5 1115.5 c 128,-1,28
 1002 1133 1002 1133 1063 1133 c 2,29,-1
 1177 1133 l 1,30,-1
 1177 985 l 1,31,32
 1172 985 1172 985 1151 985 c 128,-1,33
 1130 985 1130 985 1100 985 c 128,-1,34
 1070 985 1070 985 1035 985.5 c 128,-1,35
 1000 986 1000 986 967 986 c 1,36,37
 989 947 989 947 1001 898.5 c 128,-1,38
 1013 850 1013 850 1013 791 c 0,39,40
 1013 692 1013 692 976.5 615.5 c 128,-1,41
 940 539 940 539 878.5 487 c 128,-1,42
 817 435 817 435 736.5 408 c 128,-1,43
 656 381 656 381 568 381 c 0,44,45
 520 381 520 381 475.5 387 c 128,-1,46
 431 393 431 393 390 407 c 1,47,48
 379 375 379 375 377 341 c 128,-1,49
 375 307 375 307 375 289 c 0,50,51
 375 245 375 245 383 220 c 128,-1,52
 391 195 391 195 422.5 182.5 c 128,-1,53
 454 170 454 170 518 167 c 128,-1,54
 582 164 582 164 693 164 c 0,55,56
 786 164 786 164 854.5 149.5 c 128,-1,57
 923 135 923 135 971 111 c 128,-1,58
 1019 87 1019 87 1049 55 c 128,-1,59
 1079 23 1079 23 1096 -12 c 128,-1,60
 1113 -47 1113 -47 1119 -82.5 c 128,-1,61
 1125 -118 1125 -118 1125 -150 c 0,62,63
 1125 -236 1125 -236 1092.5 -306 c 128,-1,64
 1060 -376 1060 -376 996 -426 c 128,-1,65
 932 -476 932 -476 837.5 -503.5 c 128,-1,66
 743 -531 743 -531 619 -531 c 0,67,68
 517 -531 517 -531 427 -514.5 c 128,-1,69
 337 -498 337 -498 270 -463 c 128,-1,70
 203 -428 203 -428 164.5 -374 c 128,-1,71
 126 -320 126 -320 126 -245 c 0,0,1
597 488 m 0,72,73
 659 488 659 488 702 505 c 128,-1,74
 745 522 745 522 771.5 556.5 c 128,-1,75
 798 591 798 591 810 642.5 c 128,-1,76
 822 694 822 694 822 763 c 0,77,78
 822 912 822 912 758 984 c 128,-1,79
 694 1056 694 1056 566 1056 c 0,80,81
 516 1056 516 1056 472.5 1043 c 128,-1,82
 429 1030 429 1030 396.5 999.5 c 128,-1,83
 364 969 364 969 345.5 918.5 c 128,-1,84
 327 868 327 868 327 792 c 0,85,86
 327 730 327 730 342 674.5 c 128,-1,87
 357 619 357 619 389.5 577.5 c 128,-1,88
 422 536 422 536 473.5 512 c 128,-1,89
 525 488 525 488 597 488 c 0,72,73
360 24 m 1,90,91
 340 -10 340 -10 326 -60.5 c 128,-1,92
 312 -111 312 -111 312 -189 c 0,93,94
 312 -257 312 -257 343 -301.5 c 128,-1,95
 374 -346 374 -346 422 -372 c 128,-1,96
 470 -398 470 -398 528.5 -408 c 128,-1,97
 587 -418 587 -418 643 -418 c 0,98,99
 807 -418 807 -418 888 -364 c 128,-1,100
 969 -310 969 -310 969 -198 c 0,101,102
 969 -161 969 -161 958.5 -127 c 128,-1,103
 948 -93 948 -93 913 -66 c 128,-1,104
 878 -39 878 -39 811 -20.5 c 128,-1,105
 744 -2 744 -2 632 4 c 1,106,-1
 571 6 l 1,107,108
 502 6 502 6 450.5 11 c 128,-1,109
 399 16 399 16 360 24 c 1,90,91
EndSplineSet
EndChar

StartChar: h
Encoding: 104 104 91
Width: 1386
Flags: W
LayerCount: 2
Fore
SplineSet
115 85 m 1,0,-1
 265 106 l 1,1,-1
 265 1460 l 1,2,-1
 94 1496 l 1,3,-1
 94 1583 l 1,4,-1
 410 1625 l 1,5,-1
 457 1602 l 1,6,-1
 457 1247 l 1,7,-1
 455 1160 l 1,8,-1
 452 987 l 1,9,10
 496 1023 496 1023 547.5 1051 c 128,-1,11
 599 1079 599 1079 651 1098.5 c 128,-1,12
 703 1118 703 1118 752.5 1128.5 c 128,-1,13
 802 1139 802 1139 842 1139 c 0,14,15
 944 1139 944 1139 1009 1108 c 128,-1,16
 1074 1077 1074 1077 1111.5 1012.5 c 128,-1,17
 1149 948 1149 948 1163 847 c 128,-1,18
 1177 746 1177 746 1176 607 c 1,19,-1
 1176 106 l 1,20,-1
 1326 85 l 1,21,-1
 1326 0 l 1,22,-1
 816 0 l 1,23,-1
 816 85 l 1,24,-1
 984 106 l 1,25,-1
 984 522 l 2,26,27
 984 638 984 638 978.5 726 c 128,-1,28
 973 814 973 814 949.5 873.5 c 128,-1,29
 926 933 926 933 879 963 c 128,-1,30
 832 993 832 993 749 993 c 0,31,32
 716 993 716 993 679 989 c 128,-1,33
 642 985 642 985 604.5 975.5 c 128,-1,34
 567 966 567 966 529.5 950 c 128,-1,35
 492 934 492 934 457 909 c 1,36,-1
 457 106 l 1,37,-1
 604 85 l 1,38,-1
 604 0 l 1,39,-1
 115 0 l 1,40,-1
 115 85 l 1,0,-1
EndSplineSet
EndChar

StartChar: i
Encoding: 105 105 92
Width: 665
Flags: W
LayerCount: 2
Fore
SplineSet
330 1404 m 0,0,1
 306 1404 306 1404 283 1412.5 c 128,-1,2
 260 1421 260 1421 242.5 1436.5 c 128,-1,3
 225 1452 225 1452 214.5 1475 c 128,-1,4
 204 1498 204 1498 204 1527 c 0,5,6
 204 1558 204 1558 217.5 1585 c 128,-1,7
 231 1612 231 1612 252 1631.5 c 128,-1,8
 273 1651 273 1651 299.5 1662 c 128,-1,9
 326 1673 326 1673 353 1673 c 0,10,11
 419 1673 419 1673 449.5 1636.5 c 128,-1,12
 480 1600 480 1600 480 1549 c 0,13,14
 480 1516 480 1516 467 1489 c 128,-1,15
 454 1462 454 1462 433 1443.5 c 128,-1,16
 412 1425 412 1425 385 1414.5 c 128,-1,17
 358 1404 358 1404 330 1404 c 0,0,1
109 85 m 1,18,-1
 279 106 l 1,19,-1
 279 925 l 1,20,-1
 141 998 l 1,21,-1
 141 1060 l 1,22,-1
 418 1139 l 1,23,-1
 463 1119 l 1,24,-1
 463 106 l 1,25,-1
 625 85 l 1,26,-1
 625 0 l 1,27,-1
 109 0 l 1,28,-1
 109 85 l 1,18,-1
EndSplineSet
EndChar

StartChar: j
Encoding: 106 106 93
Width: 656
Flags: W
LayerCount: 2
Fore
SplineSet
320 1404 m 0,0,1
 296 1404 296 1404 273 1412.5 c 128,-1,2
 250 1421 250 1421 232.5 1436.5 c 128,-1,3
 215 1452 215 1452 204.5 1475 c 128,-1,4
 194 1498 194 1498 194 1527 c 0,5,6
 194 1558 194 1558 207.5 1585 c 128,-1,7
 221 1612 221 1612 242 1631.5 c 128,-1,8
 263 1651 263 1651 289.5 1662 c 128,-1,9
 316 1673 316 1673 343 1673 c 0,10,11
 409 1673 409 1673 439.5 1636.5 c 128,-1,12
 470 1600 470 1600 470 1549 c 0,13,14
 470 1516 470 1516 457 1489 c 128,-1,15
 444 1462 444 1462 423 1443.5 c 128,-1,16
 402 1425 402 1425 375 1414.5 c 128,-1,17
 348 1404 348 1404 320 1404 c 0,0,1
269 925 m 1,18,-1
 130 999 l 1,19,-1
 130 1059 l 1,20,-1
 411 1139 l 1,21,-1
 457 1119 l 1,22,-1
 457 -16 l 2,23,24
 457 -133 457 -133 431.5 -225.5 c 128,-1,25
 406 -318 406 -318 358.5 -382.5 c 128,-1,26
 311 -447 311 -447 244 -481 c 128,-1,27
 177 -515 177 -515 94 -515 c 0,28,29
 84 -515 84 -515 67 -514 c 128,-1,30
 50 -513 50 -513 33.5 -511 c 128,-1,31
 17 -509 17 -509 3 -506 c 128,-1,32
 -11 -503 -11 -503 -15 -500 c 1,33,-1
 -15 -342 l 1,34,35
 -7 -345 -7 -345 8 -347 c 128,-1,36
 23 -349 23 -349 39.5 -350.5 c 128,-1,37
 56 -352 56 -352 71 -352.5 c 128,-1,38
 86 -353 86 -353 95 -353 c 0,39,40
 143 -353 143 -353 176.5 -341.5 c 128,-1,41
 210 -330 210 -330 230.5 -293.5 c 128,-1,42
 251 -257 251 -257 260 -187.5 c 128,-1,43
 269 -118 269 -118 269 -2 c 2,44,-1
 269 925 l 1,18,-1
EndSplineSet
EndChar

StartChar: k
Encoding: 107 107 94
Width: 1275
Flags: W
LayerCount: 2
Fore
SplineSet
101 85 m 1,0,-1
 265 107 l 1,1,-1
 265 1460 l 1,2,-1
 85 1496 l 1,3,-1
 85 1583 l 1,4,-1
 417 1625 l 1,5,-1
 457 1602 l 1,6,-1
 457 844 l 1,7,-1
 455 704 l 1,8,-1
 451 528 l 1,9,-1
 894 1009 l 1,10,-1
 741 1023 l 1,11,-1
 741 1129 l 1,12,-1
 1210 1129 l 1,13,-1
 1210 1023 l 1,14,-1
 1062 1007 l 1,15,-1
 725 664 l 1,16,-1
 1132 106 l 1,17,-1
 1267 85 l 1,18,-1
 1267 0 l 1,19,-1
 782 0 l 1,20,-1
 782 85 l 1,21,-1
 922 108 l 1,22,-1
 610 568 l 1,23,-1
 451 411 l 1,24,-1
 457 217 l 1,25,-1
 457 105 l 1,26,-1
 601 85 l 1,27,-1
 601 0 l 1,28,-1
 101 0 l 1,29,-1
 101 85 l 1,0,-1
EndSplineSet
EndChar

StartChar: l
Encoding: 108 108 95
Width: 665
Flags: W
LayerCount: 2
Fore
SplineSet
99 85 m 1,0,-1
 269 106 l 1,1,-1
 269 1460 l 1,2,-1
 109 1496 l 1,3,-1
 109 1583 l 1,4,-1
 422 1625 l 1,5,-1
 462 1602 l 1,6,-1
 462 106 l 1,7,-1
 640 85 l 1,8,-1
 640 0 l 1,9,-1
 99 0 l 1,10,-1
 99 85 l 1,0,-1
EndSplineSet
EndChar

StartChar: m
Encoding: 109 109 96
Width: 2070
Flags: W
LayerCount: 2
Fore
SplineSet
129 85 m 1,0,-1
 265 107 l 1,1,-1
 265 920 l 1,2,-1
 123 998 l 1,3,-1
 123 1060 l 1,4,-1
 389 1139 l 1,5,-1
 434 1119 l 1,6,-1
 434 976 l 1,7,8
 467 1005 467 1005 514 1033.5 c 128,-1,9
 561 1062 561 1062 614.5 1085 c 128,-1,10
 668 1108 668 1108 724 1122.5 c 128,-1,11
 780 1137 780 1137 831 1139 c 0,12,13
 939 1143 939 1143 1005.5 1110.5 c 128,-1,14
 1072 1078 1072 1078 1109 997 c 1,15,16
 1145 1024 1145 1024 1194 1049 c 128,-1,17
 1243 1074 1243 1074 1297 1093.5 c 128,-1,18
 1351 1113 1351 1113 1406 1125 c 128,-1,19
 1461 1137 1461 1137 1509 1139 c 0,20,21
 1602 1142 1602 1142 1666 1116 c 128,-1,22
 1730 1090 1730 1090 1769 1032 c 128,-1,23
 1808 974 1808 974 1825 882 c 128,-1,24
 1842 790 1842 790 1842 661 c 2,25,-1
 1842 106 l 1,26,-1
 2011 85 l 1,27,-1
 2011 0 l 1,28,-1
 1514 0 l 1,29,-1
 1514 85 l 1,30,-1
 1650 106 l 1,31,-1
 1650 626 l 2,32,33
 1650 722 1650 722 1641 792.5 c 128,-1,34
 1632 863 1632 863 1605.5 908.5 c 128,-1,35
 1579 954 1579 954 1532 975 c 128,-1,36
 1485 996 1485 996 1409 993 c 0,37,38
 1377 991 1377 991 1341.5 984 c 128,-1,39
 1306 977 1306 977 1271 966 c 0,40,41
 1238 955 1238 955 1204.5 940.5 c 128,-1,42
 1171 926 1171 926 1142 908 c 1,43,44
 1153 861 1153 861 1159 799 c 128,-1,45
 1165 737 1165 737 1165 671 c 2,46,-1
 1165 105 l 1,47,-1
 1318 85 l 1,48,-1
 1318 0 l 1,49,-1
 823 0 l 1,50,-1
 823 85 l 1,51,-1
 973 107 l 1,52,-1
 973 642 l 2,53,54
 973 737 973 737 963.5 805 c 128,-1,55
 954 873 954 873 927 916 c 128,-1,56
 900 959 900 959 852.5 977.5 c 128,-1,57
 805 996 805 996 729 993 c 0,58,59
 675 990 675 990 605 965.5 c 128,-1,60
 535 941 535 941 459 889 c 1,61,62
 459 692 459 692 459 497.5 c 128,-1,63
 459 303 459 303 460 106 c 1,64,-1
 608 85 l 1,65,-1
 608 0 l 1,66,-1
 129 0 l 1,67,-1
 129 85 l 1,0,-1
EndSplineSet
EndChar

StartChar: n
Encoding: 110 110 97
Width: 1386
Flags: W
LayerCount: 2
Fore
SplineSet
129 85 m 1,0,-1
 265 105 l 1,1,-1
 265 920 l 1,2,-1
 123 998 l 1,3,-1
 123 1060 l 1,4,-1
 389 1139 l 1,5,-1
 434 1119 l 1,6,-1
 434 976 l 1,7,8
 468 1005 468 1005 515.5 1033.5 c 128,-1,9
 563 1062 563 1062 617 1085 c 128,-1,10
 671 1108 671 1108 727.5 1122.5 c 128,-1,11
 784 1137 784 1137 835 1139 c 0,12,13
 858 1140 858 1140 879.5 1139 c 128,-1,14
 901 1138 901 1138 921 1135 c 0,15,16
 990 1125 990 1125 1037 1092 c 128,-1,17
 1084 1059 1084 1059 1113 1002 c 128,-1,18
 1142 945 1142 945 1155 862 c 128,-1,19
 1168 779 1168 779 1168 670 c 2,20,-1
 1168 105 l 1,21,-1
 1329 85 l 1,22,-1
 1329 0 l 1,23,-1
 825 0 l 1,24,-1
 825 85 l 1,25,-1
 976 106 l 1,26,-1
 976 635 l 2,27,28
 976 726 976 726 967 794.5 c 128,-1,29
 958 863 958 863 931.5 908 c 128,-1,30
 905 953 905 953 858 974.5 c 128,-1,31
 811 996 811 996 735 993 c 0,32,33
 673 990 673 990 604 965.5 c 128,-1,34
 535 941 535 941 459 889 c 1,35,-1
 459 106 l 1,36,-1
 608 85 l 1,37,-1
 608 0 l 1,38,-1
 129 0 l 1,39,-1
 129 85 l 1,0,-1
EndSplineSet
EndChar

StartChar: o
Encoding: 111 111 98
Width: 1237
Flags: W
LayerCount: 2
Fore
SplineSet
104 582 m 0,0,1
 106 716 106 716 150.5 821.5 c 128,-1,2
 195 927 195 927 268 1000 c 128,-1,3
 341 1073 341 1073 436.5 1112 c 128,-1,4
 532 1151 532 1151 636 1152 c 0,5,6
 763 1153 763 1153 857 1108 c 128,-1,7
 951 1063 951 1063 1012.5 984.5 c 128,-1,8
 1074 906 1074 906 1104 800 c 128,-1,9
 1134 694 1134 694 1133 573 c 0,10,11
 1132 440 1132 440 1090.5 330 c 128,-1,12
 1049 220 1049 220 978.5 141.5 c 128,-1,13
 908 63 908 63 813.5 19.5 c 128,-1,14
 719 -24 719 -24 611 -24 c 0,15,16
 473 -24 473 -24 376 26 c 128,-1,17
 279 76 279 76 218 160 c 128,-1,18
 157 244 157 244 129.5 353.5 c 128,-1,19
 102 463 102 463 104 582 c 0,0,1
620 88 m 0,20,21
 705 86 705 86 763.5 117 c 128,-1,22
 822 148 822 148 858.5 208.5 c 128,-1,23
 895 269 895 269 911.5 358.5 c 128,-1,24
 928 448 928 448 928 564 c 0,25,26
 928 665 928 665 910.5 752.5 c 128,-1,27
 893 840 893 840 855.5 905 c 128,-1,28
 818 970 818 970 760.5 1007.5 c 128,-1,29
 703 1045 703 1045 624 1047 c 1,30,31
 539 1048 539 1048 479.5 1017.5 c 128,-1,32
 420 987 420 987 382 928 c 128,-1,33
 344 869 344 869 326.5 784 c 128,-1,34
 309 699 309 699 309 591 c 0,35,36
 309 494 309 494 328 404 c 128,-1,37
 347 314 347 314 385 244.5 c 128,-1,38
 423 175 423 175 481.5 132.5 c 128,-1,39
 540 90 540 90 620 88 c 0,20,21
EndSplineSet
EndChar

StartChar: p
Encoding: 112 112 99
Width: 1272
Flags: W
LayerCount: 2
Fore
SplineSet
447 -260 m 1,0,-1
 447 -405 l 1,1,-1
 643 -426 l 1,2,-1
 643 -511 l 1,3,-1
 115 -511 l 1,4,-1
 115 -426 l 1,5,-1
 255 -404 l 1,6,-1
 255 920 l 1,7,-1
 113 998 l 1,8,-1
 113 1060 l 1,9,-1
 378 1139 l 1,10,-1
 424 1118 l 1,11,-1
 424 1002 l 1,12,13
 445 1026 445 1026 479.5 1052.5 c 128,-1,14
 514 1079 514 1079 559 1101 c 128,-1,15
 604 1123 604 1123 659 1137.5 c 128,-1,16
 714 1152 714 1152 776 1152 c 0,17,18
 860 1152 860 1152 939 1122.5 c 128,-1,19
 1018 1093 1018 1093 1079.5 1027 c 128,-1,20
 1141 961 1141 961 1178 854.5 c 128,-1,21
 1215 748 1215 748 1215 595 c 0,22,23
 1215 467 1215 467 1173.5 353.5 c 128,-1,24
 1132 240 1132 240 1056.5 155 c 128,-1,25
 981 70 981 70 876 21 c 128,-1,26
 771 -28 771 -28 645 -28 c 0,27,28
 589 -28 589 -28 539 -18.5 c 128,-1,29
 489 -9 489 -9 441 4 c 1,30,-1
 447 -260 l 1,0,-1
447 165 m 1,31,32
 470 125 470 125 525.5 101 c 128,-1,33
 581 77 581 77 668 77 c 0,34,35
 733 77 733 77 796 104.5 c 128,-1,36
 859 132 859 132 909 191 c 128,-1,37
 959 250 959 250 990.5 343.5 c 128,-1,38
 1022 437 1022 437 1024 569 c 0,39,40
 1026 693 1026 693 998.5 778 c 128,-1,41
 971 863 971 863 924.5 915 c 128,-1,42
 878 967 878 967 818.5 990 c 128,-1,43
 759 1013 759 1013 696 1013 c 0,44,45
 648 1013 648 1013 609.5 1003.5 c 128,-1,46
 571 994 571 994 540 980 c 128,-1,47
 509 966 509 966 485.5 949.5 c 128,-1,48
 462 933 462 933 446 919 c 1,49,50
 446 828 446 828 446.5 739 c 128,-1,51
 447 650 447 650 447 559 c 2,52,-1
 447 165 l 1,31,32
EndSplineSet
EndChar

StartChar: q
Encoding: 113 113 100
Width: 1272
Flags: W
LayerCount: 2
Fore
SplineSet
533 -28 m 0,0,1
 497 -28 497 -28 451 -20 c 128,-1,2
 405 -12 405 -12 356.5 10 c 128,-1,3
 308 32 308 32 261.5 72 c 128,-1,4
 215 112 215 112 178.5 175.5 c 128,-1,5
 142 239 142 239 119.5 330 c 128,-1,6
 97 421 97 421 97 546 c 0,7,8
 97 673 97 673 140.5 784 c 128,-1,9
 184 895 184 895 262.5 977 c 128,-1,10
 341 1059 341 1059 450 1106 c 128,-1,11
 559 1153 559 1153 689 1153 c 0,12,13
 749 1153 749 1153 806 1142 c 128,-1,14
 863 1131 863 1131 898 1117 c 1,15,-1
 1018 1140 l 1,16,-1
 1058 1120 l 1,17,-1
 1058 -395 l 1,18,-1
 1194 -416 l 1,19,-1
 1194 -511 l 1,20,-1
 660 -511 l 1,21,-1
 660 -416 l 1,22,-1
 866 -395 l 1,23,-1
 866 -47 l 1,24,-1
 872 106 l 1,25,26
 855 89 855 89 825.5 66 c 128,-1,27
 796 43 796 43 754 22 c 128,-1,28
 712 1 712 1 657 -13.5 c 128,-1,29
 602 -28 602 -28 533 -28 c 0,0,1
603 111 m 0,30,31
 650 111 650 111 691 119 c 128,-1,32
 732 127 732 127 765.5 140.5 c 128,-1,33
 799 154 799 154 824 171 c 128,-1,34
 849 188 849 188 866 205 c 1,35,-1
 866 966 l 1,36,37
 831 1011 831 1011 777 1028.5 c 128,-1,38
 723 1046 723 1046 657 1046 c 0,39,40
 580 1046 580 1046 513.5 1017 c 128,-1,41
 447 988 447 988 397.5 929.5 c 128,-1,42
 348 871 348 871 319 783.5 c 128,-1,43
 290 696 290 696 288 579 c 0,44,45
 286 463 286 463 308 375.5 c 128,-1,46
 330 288 330 288 371 229.5 c 128,-1,47
 412 171 412 171 471 141 c 128,-1,48
 530 111 530 111 603 111 c 0,30,31
EndSplineSet
EndChar

StartChar: r
Encoding: 114 114 101
Width: 905
Flags: W
LayerCount: 2
Fore
SplineSet
90 85 m 1,0,-1
 265 107 l 1,1,-1
 265 920 l 1,2,-1
 123 998 l 1,3,-1
 123 1060 l 1,4,-1
 387 1139 l 1,5,-1
 434 1119 l 1,6,-1
 434 965 l 1,7,8
 453 993 453 993 491.5 1024 c 128,-1,9
 530 1055 530 1055 578 1080.5 c 128,-1,10
 626 1106 626 1106 678 1122.5 c 128,-1,11
 730 1139 730 1139 776 1139 c 0,12,13
 809 1139 809 1139 838.5 1137.5 c 128,-1,14
 868 1136 868 1136 879 1132 c 1,15,-1
 879 927 l 1,16,17
 847 940 847 940 806 950.5 c 128,-1,18
 765 961 765 961 696 961 c 0,19,20
 655 961 655 961 621.5 955 c 128,-1,21
 588 949 588 949 559.5 938.5 c 128,-1,22
 531 928 531 928 506.5 914.5 c 128,-1,23
 482 901 482 901 459 887 c 1,24,-1
 459 108 l 1,25,-1
 731 85 l 1,26,-1
 731 0 l 1,27,-1
 90 0 l 1,28,-1
 90 85 l 1,0,-1
EndSplineSet
EndChar

StartChar: s
Encoding: 115 115 102
Width: 1032
Flags: W
LayerCount: 2
Fore
SplineSet
165 290 m 1,0,-1
 251 290 l 1,1,-1
 290 168 l 1,2,3
 315 147 315 147 340 131.5 c 128,-1,4
 365 116 365 116 391 106 c 128,-1,5
 417 96 417 96 446.5 90.5 c 128,-1,6
 476 85 476 85 511 84 c 0,7,8
 567 82 567 82 614 93 c 128,-1,9
 661 104 661 104 695 128 c 128,-1,10
 729 152 729 152 748 189 c 128,-1,11
 767 226 767 226 767 276 c 0,12,13
 767 321 767 321 742.5 353 c 128,-1,14
 718 385 718 385 678 410.5 c 128,-1,15
 638 436 638 436 587 457.5 c 128,-1,16
 536 479 536 479 483 505 c 0,17,18
 424 533 424 533 367.5 565.5 c 128,-1,19
 311 598 311 598 267.5 639 c 128,-1,20
 224 680 224 680 198 731.5 c 128,-1,21
 172 783 172 783 173 850 c 0,22,23
 174 902 174 902 191.5 944 c 128,-1,24
 209 986 209 986 238.5 1019 c 128,-1,25
 268 1052 268 1052 307 1076.5 c 128,-1,26
 346 1101 346 1101 390 1117.5 c 128,-1,27
 434 1134 434 1134 480.5 1142.5 c 128,-1,28
 527 1151 527 1151 572 1152 c 0,29,30
 622 1153 622 1153 668.5 1147.5 c 128,-1,31
 715 1142 715 1142 755.5 1132 c 128,-1,32
 796 1122 796 1122 828.5 1109 c 128,-1,33
 861 1096 861 1096 884 1083 c 1,34,-1
 884 860 l 1,35,-1
 803 860 l 1,36,-1
 760 981 l 1,37,38
 732 1010 732 1010 690.5 1030.5 c 128,-1,39
 649 1051 649 1051 583 1052 c 0,40,41
 535 1052 535 1052 494.5 1042 c 128,-1,42
 454 1032 454 1032 424 1011 c 128,-1,43
 394 990 394 990 376.5 958 c 128,-1,44
 359 926 359 926 358 881 c 0,45,46
 356 836 356 836 380 802.5 c 128,-1,47
 404 769 404 769 443 742 c 128,-1,48
 482 715 482 715 532.5 691.5 c 128,-1,49
 583 668 583 668 636 642 c 1,50,51
 673 625 673 625 710.5 607.5 c 128,-1,52
 748 590 748 590 783 569.5 c 128,-1,53
 818 549 818 549 849 524.5 c 128,-1,54
 880 500 880 500 902.5 470 c 128,-1,55
 925 440 925 440 938 402.5 c 128,-1,56
 951 365 951 365 951 318 c 0,57,58
 951 233 951 233 917 169 c 128,-1,59
 883 105 883 105 823.5 62 c 128,-1,60
 764 19 764 19 684.5 -2.5 c 128,-1,61
 605 -24 605 -24 514 -24 c 256,62,63
 423 -24 423 -24 332 -2.5 c 128,-1,64
 241 19 241 19 165 61 c 1,65,-1
 165 290 l 1,0,-1
EndSplineSet
EndChar

StartChar: t
Encoding: 116 116 103
Width: 858
Flags: W
LayerCount: 2
Fore
SplineSet
280 262 m 0,0,1
 280 446 280 446 280.5 627.5 c 128,-1,2
 281 809 281 809 281 993 c 1,3,-1
 128 993 l 1,4,-1
 128 1068 l 1,5,6
 172 1079 172 1079 201.5 1085.5 c 128,-1,7
 231 1092 231 1092 250.5 1100.5 c 128,-1,8
 270 1109 270 1109 283 1122 c 128,-1,9
 296 1135 296 1135 307 1160 c 0,10,11
 314 1177 314 1177 324.5 1210 c 128,-1,12
 335 1243 335 1243 344.5 1277.5 c 128,-1,13
 354 1312 354 1312 361 1342.5 c 128,-1,14
 368 1373 368 1373 370 1386 c 1,15,-1
 469 1386 l 1,16,-1
 469 1119 l 1,17,-1
 805 1119 l 1,18,-1
 805 993 l 1,19,-1
 469 993 l 1,20,-1
 469 489 l 2,21,22
 469 373 469 373 472 300.5 c 128,-1,23
 475 228 475 228 487 187 c 128,-1,24
 499 146 499 146 522 131.5 c 128,-1,25
 545 117 545 117 586 117 c 0,26,27
 606 117 606 117 633 120 c 128,-1,28
 660 123 660 123 687 129 c 128,-1,29
 714 135 714 135 737.5 143 c 128,-1,30
 761 151 761 151 774 161 c 1,31,-1
 805 73 l 1,32,33
 782 48 782 48 746 30 c 128,-1,34
 710 12 710 12 669 0 c 128,-1,35
 628 -12 628 -12 585.5 -18 c 128,-1,36
 543 -24 543 -24 509 -24 c 0,37,38
 400 -24 400 -24 340 43 c 128,-1,39
 280 110 280 110 280 262 c 0,0,1
EndSplineSet
EndChar

StartChar: u
Encoding: 117 117 104
Width: 1271
Flags: W
LayerCount: 2
Fore
SplineSet
201 977 m 1,0,-1
 98 1007 l 1,1,-1
 98 1084 l 1,2,-1
 355 1139 l 1,3,-1
 390 1121 l 1,4,-1
 390 432 l 2,5,6
 390 349 390 349 399 289.5 c 128,-1,7
 408 230 408 230 432 191.5 c 128,-1,8
 456 153 456 153 498 134.5 c 128,-1,9
 540 116 540 116 606 116 c 0,10,11
 651 116 651 116 694.5 128.5 c 128,-1,12
 738 141 738 141 775.5 158.5 c 128,-1,13
 813 176 813 176 841 195.5 c 128,-1,14
 869 215 869 215 882 229 c 1,15,-1
 882 968 l 1,16,-1
 757 1000 l 1,17,-1
 757 1082 l 1,18,-1
 1043 1139 l 1,19,-1
 1071 1122 l 1,20,-1
 1071 85 l 1,21,-1
 1191 85 l 1,22,-1
 1191 9 l 1,23,24
 1176 1 1176 1 1154 -6.5 c 128,-1,25
 1132 -14 1132 -14 1106.5 -20 c 128,-1,26
 1081 -26 1081 -26 1054.5 -30 c 128,-1,27
 1028 -34 1028 -34 1004 -34 c 0,28,29
 956 -34 956 -34 928.5 -13.5 c 128,-1,30
 901 7 901 7 901 52 c 2,31,-1
 901 134 l 1,32,33
 814 55 814 55 718.5 17 c 128,-1,34
 623 -21 623 -21 532 -21 c 0,35,36
 414 -21 414 -21 348 15.5 c 128,-1,37
 282 52 282 52 249.5 116.5 c 128,-1,38
 217 181 217 181 209.5 269 c 128,-1,39
 202 357 202 357 201 461 c 1,40,-1
 201 977 l 1,0,-1
EndSplineSet
EndChar

StartChar: v
Encoding: 118 118 105
Width: 1240
Flags: W
LayerCount: 2
Fore
SplineSet
131 995 m 1,0,-1
 28 1014 l 1,1,-1
 28 1119 l 1,2,-1
 474 1119 l 1,3,-1
 474 1014 l 1,4,-1
 349 993 l 1,5,-1
 556 459 l 1,6,-1
 646 156 l 1,7,-1
 744 447 l 1,8,-1
 955 993 l 1,9,-1
 819 1013 l 1,10,-1
 819 1119 l 1,11,-1
 1217 1119 l 1,12,-1
 1217 1014 l 1,13,-1
 1111 992 l 1,14,-1
 688 -24 l 1,15,-1
 557 -24 l 1,16,-1
 131 995 l 1,0,-1
EndSplineSet
EndChar

StartChar: w
Encoding: 119 119 106
Width: 1753
Flags: W
LayerCount: 2
Fore
SplineSet
130 995 m 1,0,-1
 28 1013 l 1,1,-1
 28 1119 l 1,2,-1
 466 1119 l 1,3,-1
 466 1013 l 1,4,-1
 325 991 l 1,5,-1
 465 473 l 1,6,-1
 491 377 l 1,7,-1
 534 154 l 1,8,-1
 598 385 l 1,9,-1
 630 490 l 1,10,-1
 822 1119 l 1,11,-1
 979 1119 l 1,12,-1
 1159 479 l 1,13,-1
 1189 372 l 1,14,-1
 1239 155 l 1,15,-1
 1306 379 l 1,16,-1
 1471 993 l 1,17,-1
 1332 1013 l 1,18,-1
 1332 1119 l 1,19,-1
 1730 1119 l 1,20,-1
 1730 1014 l 1,21,-1
 1624 992 l 1,22,-1
 1311 -25 l 1,23,-1
 1139 -25 l 1,24,-1
 992 451 l 1,25,-1
 904 737 l 1,26,-1
 873 897 l 1,27,-1
 843 737 l 1,28,-1
 784 546 l 1,29,-1
 607 -25 l 1,30,-1
 447 -25 l 1,31,-1
 130 995 l 1,0,-1
EndSplineSet
EndChar

StartChar: x
Encoding: 120 120 107
Width: 1253
Flags: W
LayerCount: 2
Fore
SplineSet
52 85 m 1,0,-1
 208 107 l 1,1,-1
 539 543 l 1,2,-1
 193 995 l 1,3,-1
 50 1013 l 1,4,-1
 50 1119 l 1,5,-1
 557 1119 l 1,6,-1
 557 1013 l 1,7,-1
 417 995 l 1,8,-1
 532 817 l 2,9,10
 563 770 563 770 594 724.5 c 128,-1,11
 625 679 625 679 657 632 c 1,12,-1
 698 705 l 1,13,-1
 899 998 l 1,14,-1
 757 1013 l 1,15,-1
 757 1119 l 1,16,-1
 1182 1119 l 1,17,-1
 1182 1013 l 1,18,-1
 1053 995 l 1,19,-1
 723 566 l 1,20,-1
 1071 105 l 1,21,-1
 1210 85 l 1,22,-1
 1210 0 l 1,23,-1
 721 0 l 1,24,-1
 721 85 l 1,25,-1
 845 105 l 1,26,-1
 705 318 l 2,27,28
 697 329 697 329 689 340.5 c 128,-1,29
 681 352 681 352 673 364 c 2,30,-1
 603 463 l 1,31,-1
 561 387 l 1,32,-1
 368 106 l 1,33,-1
 549 85 l 1,34,-1
 549 0 l 1,35,-1
 52 0 l 1,36,-1
 52 85 l 1,0,-1
EndSplineSet
EndChar

StartChar: y
Encoding: 121 121 108
Width: 1209
Flags: W
LayerCount: 2
Fore
SplineSet
164 -342 m 1,0,1
 181 -347 181 -347 203.5 -350 c 128,-1,2
 226 -353 226 -353 244 -353 c 0,3,4
 280 -353 280 -353 322 -339.5 c 128,-1,5
 364 -326 364 -326 407 -288 c 128,-1,6
 450 -250 450 -250 490.5 -180.5 c 128,-1,7
 531 -111 531 -111 564 0 c 1,8,-1
 521 0 l 1,9,-1
 120 995 l 1,10,-1
 16 1013 l 1,11,-1
 16 1119 l 1,12,-1
 479 1119 l 1,13,-1
 479 1013 l 1,14,-1
 335 993 l 1,15,-1
 570 322 l 1,16,-1
 637 118 l 1,17,-1
 695 322 l 1,18,-1
 895 996 l 1,19,-1
 739 1013 l 1,20,-1
 739 1119 l 1,21,-1
 1171 1119 l 1,22,-1
 1171 1013 l 1,23,-1
 1059 997 l 1,24,25
 992 803 992 803 941.5 656 c 128,-1,26
 891 509 891 509 854 401 c 128,-1,27
 817 293 817 293 791 218 c 128,-1,28
 765 143 765 143 747.5 93 c 128,-1,29
 730 43 730 43 719 12.5 c 128,-1,30
 708 -18 708 -18 700 -38 c 0,31,32
 661 -138 661 -138 621.5 -218 c 128,-1,33
 582 -298 582 -298 538 -356.5 c 128,-1,34
 494 -415 494 -415 443.5 -452.5 c 128,-1,35
 393 -490 393 -490 331 -505 c 0,36,37
 291 -515 291 -515 243 -515 c 0,38,39
 233 -515 233 -515 221 -514 c 128,-1,40
 209 -513 209 -513 197.5 -511 c 128,-1,41
 186 -509 186 -509 177 -506 c 128,-1,42
 168 -503 168 -503 164 -500 c 1,43,-1
 164 -342 l 1,44,-1
 164 -342 l 1,0,1
EndSplineSet
EndChar

StartChar: z
Encoding: 122 122 109
Width: 1098
Flags: W
LayerCount: 2
Fore
SplineSet
172 177 m 1,0,-1
 695 927 l 1,1,-1
 777 1025 l 1,2,-1
 317 1009 l 1,3,-1
 257 825 l 1,4,-1
 164 825 l 1,5,-1
 164 1119 l 1,6,-1
 986 1119 l 1,7,-1
 1011 1067 l 1,8,-1
 940 943 l 1,9,-1
 439 228 l 1,10,-1
 340 98 l 1,11,-1
 844 120 l 1,12,-1
 908 289 l 1,13,14
 934 289 934 289 959.5 288.5 c 128,-1,15
 985 288 985 288 1011 288 c 1,16,-1
 994 0 l 1,17,-1
 134 0 l 1,18,-1
 105 55 l 1,19,-1
 172 177 l 1,0,-1
EndSplineSet
EndChar

StartChar: asciitilde
Encoding: 126 126 110
Width: 1257
Flags: W
LayerCount: 2
Fore
SplineSet
160 858 m 1,0,1
 182 896 182 896 219 930.5 c 128,-1,2
 256 965 256 965 301 991 c 128,-1,3
 346 1017 346 1017 395.5 1032.5 c 128,-1,4
 445 1048 445 1048 492 1048 c 0,5,6
 531 1048 531 1048 561.5 1037 c 128,-1,7
 592 1026 592 1026 617 1010 c 128,-1,8
 642 994 642 994 663.5 974.5 c 128,-1,9
 685 955 685 955 706.5 939 c 128,-1,10
 728 923 728 923 751.5 912 c 128,-1,11
 775 901 775 901 804 901 c 0,12,13
 838 901 838 901 870.5 911 c 128,-1,14
 903 921 903 921 931.5 936 c 128,-1,15
 960 951 960 951 984 969 c 128,-1,16
 1008 987 1008 987 1026 1004 c 1,17,-1
 1088 925 l 1,18,19
 1065 887 1065 887 1028.5 852.5 c 128,-1,20
 992 818 992 818 947 791.5 c 128,-1,21
 902 765 902 765 852.5 749.5 c 128,-1,22
 803 734 803 734 756 734 c 0,23,24
 717 734 717 734 686.5 745 c 128,-1,25
 656 756 656 756 631.5 772.5 c 128,-1,26
 607 789 607 789 585.5 808 c 128,-1,27
 564 827 564 827 542.5 843.5 c 128,-1,28
 521 860 521 860 497 871 c 128,-1,29
 473 882 473 882 444 882 c 0,30,31
 409 882 409 882 377 872 c 128,-1,32
 345 862 345 862 316.5 847 c 128,-1,33
 288 832 288 832 264 813.5 c 128,-1,34
 240 795 240 795 222 779 c 1,35,-1
 160 858 l 1,0,1
EndSplineSet
EndChar

StartChar: asciicircum
Encoding: 94 94 111
Width: 1247
Flags: W
LayerCount: 2
Fore
SplineSet
521 1531 m 1,0,-1
 718 1531 l 1,1,-1
 1102 564 l 1,2,3
 1058 564 1058 564 1014.5 563.5 c 128,-1,4
 971 563 971 563 927 563 c 1,5,-1
 610 1326 l 1,6,-1
 293 563 l 1,7,8
 254 563 254 563 215.5 563.5 c 128,-1,9
 177 564 177 564 138 564 c 1,10,-1
 521 1531 l 1,0,-1
EndSplineSet
EndChar

StartChar: cent
Encoding: 162 162 112
Width: 1041
Flags: W
LayerCount: 2
Fore
SplineSet
474 -14 m 1,0,1
 381 1 381 1 309 48 c 128,-1,2
 237 95 237 95 187 167.5 c 128,-1,3
 137 240 137 240 111 334.5 c 128,-1,4
 85 429 85 429 84 538 c 0,5,6
 84 624 84 624 100.5 699.5 c 128,-1,7
 117 775 117 775 148.5 839.5 c 128,-1,8
 180 904 180 904 224 956 c 128,-1,9
 268 1008 268 1008 323 1047 c 0,10,11
 374 1082 374 1082 431.5 1105.5 c 128,-1,12
 489 1129 489 1129 553 1140 c 1,13,-1
 556 1172 l 1,14,-1
 572 1362 l 1,15,-1
 693 1362 l 1,16,-1
 687 1267 l 1,17,-1
 681 1172 l 1,18,-1
 679 1149 l 1,19,20
 753 1147 753 1147 818 1134.5 c 128,-1,21
 883 1122 883 1122 918 1099 c 1,22,-1
 918 859 l 1,23,-1
 823 859 l 1,24,-1
 772 985 l 1,25,26
 756 998 756 998 735.5 1007 c 128,-1,27
 715 1016 715 1016 693.5 1022 c 128,-1,28
 672 1028 672 1028 650.5 1030.5 c 128,-1,29
 629 1033 629 1033 611 1033 c 0,30,31
 544 1033 544 1033 482.5 1008 c 128,-1,32
 421 983 421 983 373.5 932.5 c 128,-1,33
 326 882 326 882 297.5 805.5 c 128,-1,34
 269 729 269 729 268 626 c 0,35,36
 267 490 267 490 300 393 c 128,-1,37
 333 296 333 296 386 234.5 c 128,-1,38
 439 173 439 173 504 144.5 c 128,-1,39
 569 116 569 116 632 116 c 0,40,41
 671 116 671 116 710 121 c 128,-1,42
 749 126 749 126 784.5 134 c 128,-1,43
 820 142 820 142 850.5 153.5 c 128,-1,44
 881 165 881 165 902 177 c 1,45,-1
 936 88 l 1,46,47
 909 64 909 64 872 45.5 c 128,-1,48
 835 27 835 27 791 13 c 128,-1,49
 747 -1 747 -1 698 -9 c 128,-1,50
 649 -17 649 -17 598 -20 c 1,51,-1
 587 -216 l 1,52,-1
 463 -216 l 1,53,-1
 474 -14 l 1,54,-1
 474 -14 l 1,0,1
EndSplineSet
EndChar

StartChar: sterling
Encoding: 163 163 113
Width: 1428
Flags: W
LayerCount: 2
Fore
SplineSet
82 61 m 0,0,1
 82 88 82 88 102.5 117 c 128,-1,2
 123 146 123 146 161 169.5 c 128,-1,3
 199 193 199 193 254 207 c 128,-1,4
 309 221 309 221 377 218 c 1,5,6
 387 240 387 240 393.5 272 c 128,-1,7
 400 304 400 304 404 339.5 c 128,-1,8
 408 375 408 375 409.5 410.5 c 128,-1,9
 411 446 411 446 411 475 c 2,10,-1
 411 736 l 1,11,-1
 234 736 l 1,12,-1
 234 868 l 1,13,-1
 411 868 l 1,14,-1
 411 966 l 2,15,16
 411 1081 411 1081 445.5 1186 c 128,-1,17
 480 1291 480 1291 545 1371 c 128,-1,18
 610 1451 610 1451 704.5 1498.5 c 128,-1,19
 799 1546 799 1546 918 1546 c 0,20,21
 969 1546 969 1546 1009 1539.5 c 128,-1,22
 1049 1533 1049 1533 1081 1522 c 128,-1,23
 1113 1511 1113 1511 1137 1496.5 c 128,-1,24
 1161 1482 1161 1482 1180 1465 c 1,25,-1
 1084 1282 l 1,26,27
 1080 1289 1080 1289 1059 1312 c 128,-1,28
 1038 1335 1038 1335 1002.5 1359.5 c 128,-1,29
 967 1384 967 1384 919 1403 c 128,-1,30
 871 1422 871 1422 813 1422 c 0,31,32
 770 1422 770 1422 732 1402 c 128,-1,33
 694 1382 694 1382 665 1331 c 128,-1,34
 636 1280 636 1280 619 1192 c 128,-1,35
 602 1104 602 1104 602 968 c 2,36,-1
 602 868 l 1,37,-1
 928 868 l 1,38,-1
 928 736 l 1,39,-1
 603 736 l 1,40,-1
 603 696 l 2,41,42
 603 627 603 627 600.5 571.5 c 128,-1,43
 598 516 598 516 592 471.5 c 128,-1,44
 586 427 586 427 577 390 c 128,-1,45
 568 353 568 353 555.5 319.5 c 128,-1,46
 543 286 543 286 527 254 c 128,-1,47
 511 222 511 222 491 187 c 1,48,49
 525 185 525 185 563.5 170.5 c 128,-1,50
 602 156 602 156 645 138.5 c 128,-1,51
 688 121 688 121 733.5 103.5 c 128,-1,52
 779 86 779 86 826 78 c 0,53,54
 921 61 921 61 984.5 74 c 128,-1,55
 1048 87 1048 87 1086.5 118 c 128,-1,56
 1125 149 1125 149 1141 193.5 c 128,-1,57
 1157 238 1157 238 1157 284 c 0,58,59
 1157 303 1157 303 1153 323.5 c 128,-1,60
 1149 344 1149 344 1140 364 c 128,-1,61
 1131 384 1131 384 1117 402 c 128,-1,62
 1103 420 1103 420 1084 435 c 1,63,-1
 1176 610 l 1,64,65
 1245 581 1245 581 1286.5 518.5 c 128,-1,66
 1328 456 1328 456 1339 372 c 0,67,68
 1343 341 1343 341 1342.5 300.5 c 128,-1,69
 1342 260 1342 260 1332 217.5 c 128,-1,70
 1322 175 1322 175 1299 133 c 128,-1,71
 1276 91 1276 91 1236 56 c 128,-1,72
 1196 21 1196 21 1136 -3.5 c 128,-1,73
 1076 -28 1076 -28 991 -35 c 0,74,75
 948 -39 948 -39 899.5 -38 c 128,-1,76
 851 -37 851 -37 794 -30 c 0,77,78
 711 -20 711 -20 648.5 3.5 c 128,-1,79
 586 27 586 27 539 50 c 128,-1,80
 492 73 492 73 456.5 89 c 128,-1,81
 421 105 421 105 391 100 c 1,82,83
 372 74 372 74 349 50 c 128,-1,84
 326 26 326 26 299.5 8 c 128,-1,85
 273 -10 273 -10 243 -20.5 c 128,-1,86
 213 -31 213 -31 180 -31 c 0,87,88
 166 -31 166 -31 149 -28 c 128,-1,89
 132 -25 132 -25 117 -15 c 128,-1,90
 102 -5 102 -5 92 13 c 128,-1,91
 82 31 82 31 82 61 c 0,0,1
EndSplineSet
EndChar

StartChar: currency
Encoding: 164 164 114
Width: 1427
Flags: W
LayerCount: 2
Fore
SplineSet
398 461 m 1,0,1
 362 509 362 509 342 567 c 128,-1,2
 322 625 322 625 322 690 c 0,3,4
 322 753 322 753 341.5 810 c 128,-1,5
 361 867 361 867 396 915 c 1,6,-1
 217 1095 l 1,7,-1
 302 1181 l 1,8,-1
 483 999 l 1,9,10
 530 1031 530 1031 585 1049.5 c 128,-1,11
 640 1068 640 1068 702 1068 c 0,12,13
 768 1068 768 1068 828 1046.5 c 128,-1,14
 888 1025 888 1025 936 987 c 1,15,-1
 1118 1168 l 1,16,-1
 1203 1082 l 1,17,-1
 1019 898 l 1,18,19
 1049 853 1049 853 1065.5 800.5 c 128,-1,20
 1082 748 1082 748 1082 690 c 0,21,22
 1082 627 1082 627 1063 571 c 128,-1,23
 1044 515 1044 515 1010 468 c 1,24,-1
 1191 288 l 1,25,-1
 1105 203 l 1,26,-1
 924 383 l 1,27,28
 877 349 877 349 821 330.5 c 128,-1,29
 765 312 765 312 702 312 c 0,30,31
 642 312 642 312 587.5 329 c 128,-1,32
 533 346 533 346 486 378 c 1,33,-1
 306 198 l 1,34,-1
 220 283 l 1,35,-1
 398 461 l 1,0,1
702 443 m 256,36,37
 751 443 751 443 794 462.5 c 128,-1,38
 837 482 837 482 869.5 516 c 128,-1,39
 902 550 902 550 920.5 594.5 c 128,-1,40
 939 639 939 639 939 690 c 256,41,42
 939 741 939 741 920.5 785.5 c 128,-1,43
 902 830 902 830 869.5 864 c 128,-1,44
 837 898 837 898 794 917.5 c 128,-1,45
 751 937 751 937 702 937 c 256,46,47
 653 937 653 937 610 917.5 c 128,-1,48
 567 898 567 898 534.5 864 c 128,-1,49
 502 830 502 830 483.5 785.5 c 128,-1,50
 465 741 465 741 465 690 c 256,51,52
 465 639 465 639 483.5 594.5 c 128,-1,53
 502 550 502 550 534.5 516 c 128,-1,54
 567 482 567 482 610 462.5 c 128,-1,55
 653 443 653 443 702 443 c 256,36,37
EndSplineSet
EndChar

StartChar: yen
Encoding: 165 165 115
Width: 1312
Flags: W
LayerCount: 2
Fore
SplineSet
366 85 m 1,0,-1
 560 115 l 1,1,-1
 560 377 l 1,2,-1
 135 377 l 1,3,-1
 135 504 l 1,4,-1
 560 504 l 1,5,-1
 560 734 l 1,6,-1
 135 734 l 1,7,-1
 135 861 l 1,8,-1
 493 861 l 1,9,-1
 117 1415 l 1,10,-1
 -15 1433 l 1,11,-1
 -15 1531 l 1,12,-1
 488 1531 l 1,13,-1
 488 1433 l 1,14,-1
 340 1416 l 1,15,-1
 622 975 l 1,16,-1
 671 861 l 1,17,-1
 698 861 l 1,18,-1
 760 983 l 1,19,20
 823 1092 823 1092 887.5 1199.5 c 128,-1,21
 952 1307 952 1307 1018 1416 c 1,22,-1
 871 1433 l 1,23,-1
 871 1531 l 1,24,-1
 1327 1531 l 1,25,-1
 1327 1433 l 1,26,-1
 1185 1403 l 1,27,-1
 829 861 l 1,28,-1
 1163 861 l 1,29,-1
 1163 734 l 1,30,-1
 755 734 l 1,31,-1
 755 504 l 1,32,-1
 1163 504 l 1,33,-1
 1163 377 l 1,34,-1
 755 377 l 1,35,-1
 755 116 l 1,36,-1
 959 85 l 1,37,-1
 959 0 l 1,38,-1
 366 0 l 1,39,-1
 366 85 l 1,0,-1
EndSplineSet
EndChar

StartChar: dollar
Encoding: 36 36 116
Width: 1164
Flags: W
LayerCount: 2
Fore
SplineSet
94 383 m 1,0,-1
 180 383 l 1,1,-1
 245 189 l 1,2,3
 278 151 278 151 317.5 130 c 128,-1,4
 357 109 357 109 400 98 c 128,-1,5
 443 87 443 87 488 84.5 c 128,-1,6
 533 82 533 82 577 82 c 0,7,8
 628 82 628 82 682 96 c 128,-1,9
 736 110 736 110 780 141 c 128,-1,10
 824 172 824 172 852 221 c 128,-1,11
 880 270 880 270 880 340 c 0,12,13
 880 406 880 406 847 459 c 128,-1,14
 814 512 814 512 760 556.5 c 128,-1,15
 706 601 706 601 637 640.5 c 128,-1,16
 568 680 568 680 496.5 719.5 c 128,-1,17
 425 759 425 759 356 801.5 c 128,-1,18
 287 844 287 844 233 895.5 c 128,-1,19
 179 947 179 947 146 1010 c 128,-1,20
 113 1073 113 1073 113 1153 c 0,21,22
 113 1250 113 1250 154.5 1321 c 128,-1,23
 196 1392 196 1392 260.5 1439.5 c 128,-1,24
 325 1487 325 1487 403 1513 c 128,-1,25
 481 1539 481 1539 554 1545 c 1,26,-1
 560 1731 l 1,27,-1
 717 1731 l 1,28,-1
 710 1542 l 1,29,30
 814 1533 814 1533 885 1512 c 128,-1,31
 956 1491 956 1491 992 1470 c 1,32,-1
 992 1193 l 1,33,-1
 907 1193 l 1,34,-1
 829 1385 l 1,35,36
 816 1400 816 1400 791.5 1411 c 128,-1,37
 767 1422 767 1422 735 1429.5 c 128,-1,38
 703 1437 703 1437 666 1441 c 128,-1,39
 629 1445 629 1445 590 1445 c 0,40,41
 549 1445 549 1445 498.5 1433 c 128,-1,42
 448 1421 448 1421 403 1391.5 c 128,-1,43
 358 1362 358 1362 327.5 1313.5 c 128,-1,44
 297 1265 297 1265 297 1192 c 0,45,46
 297 1129 297 1129 330 1078.5 c 128,-1,47
 363 1028 363 1028 417 985.5 c 128,-1,48
 471 943 471 943 540 905.5 c 128,-1,49
 609 868 609 868 681.5 829.5 c 128,-1,50
 754 791 754 791 823 749.5 c 128,-1,51
 892 708 892 708 946 657 c 128,-1,52
 1000 606 1000 606 1033 543 c 128,-1,53
 1066 480 1066 480 1066 400 c 0,54,55
 1066 302 1066 302 1033.5 228.5 c 128,-1,56
 1001 155 1001 155 944.5 104 c 128,-1,57
 888 53 888 53 812.5 23 c 128,-1,58
 737 -7 737 -7 651 -17 c 1,59,-1
 644 -231 l 1,60,-1
 487 -231 l 1,61,-1
 494 -21 l 1,62,63
 427 -18 427 -18 363 -9.5 c 128,-1,64
 299 -1 299 -1 246 11 c 128,-1,65
 193 23 193 23 153 36 c 128,-1,66
 113 49 113 49 94 61 c 1,67,-1
 94 383 l 1,0,-1
EndSplineSet
EndChar

StartChar: acute
Encoding: 180 180 117
Width: 828
Flags: W
LayerCount: 2
Fore
SplineSet
367 1394 m 1,0,-1
 691 1810 l 1,1,-1
 837 1661 l 1,2,3
 817 1633 817 1633 785.5 1601.5 c 128,-1,4
 754 1570 754 1570 717 1538.5 c 128,-1,5
 680 1507 680 1507 639 1477 c 128,-1,6
 598 1447 598 1447 558.5 1421 c 128,-1,7
 519 1395 519 1395 483 1374 c 128,-1,8
 447 1353 447 1353 420 1340 c 1,9,-1
 367 1394 l 1,0,-1
EndSplineSet
EndChar

StartChar: grave
Encoding: 96 96 118
Width: 740
Flags: W
LayerCount: 2
Fore
SplineSet
478 1340 m 1,0,1
 437 1359 437 1359 378 1394.5 c 128,-1,2
 319 1430 319 1430 258.5 1473.5 c 128,-1,3
 198 1517 198 1517 144.5 1566 c 128,-1,4
 91 1615 91 1615 61 1661 c 1,5,-1
 207 1810 l 1,6,-1
 531 1394 l 1,7,-1
 478 1340 l 1,8,-1
 478 1340 l 1,0,1
EndSplineSet
EndChar

StartChar: dieresis
Encoding: 168 168 119
Width: 982
Flags: W
LayerCount: 2
Fore
SplineSet
665 1380 m 0,0,1
 641 1380 641 1380 618 1388.5 c 128,-1,2
 595 1397 595 1397 577.5 1412.5 c 128,-1,3
 560 1428 560 1428 549.5 1451 c 128,-1,4
 539 1474 539 1474 539 1503 c 0,5,6
 539 1534 539 1534 552.5 1561 c 128,-1,7
 566 1588 566 1588 587 1607.5 c 128,-1,8
 608 1627 608 1627 634.5 1638 c 128,-1,9
 661 1649 661 1649 688 1649 c 0,10,11
 754 1649 754 1649 784.5 1612.5 c 128,-1,12
 815 1576 815 1576 815 1525 c 0,13,14
 815 1492 815 1492 802 1465 c 128,-1,15
 789 1438 789 1438 768 1419.5 c 128,-1,16
 747 1401 747 1401 720 1390.5 c 128,-1,17
 693 1380 693 1380 665 1380 c 0,0,1
193 1380 m 0,18,19
 169 1380 169 1380 146 1388.5 c 128,-1,20
 123 1397 123 1397 105.5 1412.5 c 128,-1,21
 88 1428 88 1428 77.5 1451 c 128,-1,22
 67 1474 67 1474 67 1503 c 0,23,24
 67 1534 67 1534 80.5 1561 c 128,-1,25
 94 1588 94 1588 115 1607.5 c 128,-1,26
 136 1627 136 1627 162.5 1638 c 128,-1,27
 189 1649 189 1649 216 1649 c 0,28,29
 282 1649 282 1649 312.5 1612.5 c 128,-1,30
 343 1576 343 1576 343 1525 c 0,31,32
 343 1492 343 1492 330 1465 c 128,-1,33
 317 1438 317 1438 296 1419.5 c 128,-1,34
 275 1401 275 1401 248 1390.5 c 128,-1,35
 221 1380 221 1380 193 1380 c 0,18,19
EndSplineSet
EndChar

StartChar: circumflex
Encoding: 710 710 120
Width: 1289
Flags: W
LayerCount: 2
Fore
SplineSet
263 1381 m 1,0,-1
 536 1775 l 1,1,-1
 725 1775 l 1,2,-1
 997 1382 l 1,3,-1
 910 1336 l 1,4,-1
 629 1639 l 1,5,-1
 341 1335 l 1,6,-1
 263 1381 l 1,0,-1
EndSplineSet
EndChar

StartChar: caron
Encoding: 711 711 121
Width: 1289
Flags: W
LayerCount: 2
Fore
SplineSet
246 1728 m 1,0,-1
 337 1775 l 1,1,-1
 642 1465 l 1,2,-1
 918 1776 l 1,3,-1
 998 1735 l 1,4,-1
 715 1332 l 1,5,-1
 546 1332 l 1,6,-1
 246 1728 l 1,0,-1
EndSplineSet
EndChar

StartChar: breve
Encoding: 728 728 122
Width: 1289
Flags: W
LayerCount: 2
Fore
SplineSet
631 1242 m 0,0,1
 555 1242 555 1242 493 1273.5 c 128,-1,2
 431 1305 431 1305 387.5 1355.5 c 128,-1,3
 344 1406 344 1406 320.5 1468 c 128,-1,4
 297 1530 297 1530 297 1591 c 1,5,-1
 391 1591 l 1,6,7
 395 1585 395 1585 401.5 1567.5 c 128,-1,8
 408 1550 408 1550 418.5 1527 c 128,-1,9
 429 1504 429 1504 446 1479 c 128,-1,10
 463 1454 463 1454 488.5 1433.5 c 128,-1,11
 514 1413 514 1413 549 1399.5 c 128,-1,12
 584 1386 584 1386 632 1386 c 256,13,14
 680 1386 680 1386 715.5 1399.5 c 128,-1,15
 751 1413 751 1413 776.5 1433.5 c 128,-1,16
 802 1454 802 1454 818.5 1479 c 128,-1,17
 835 1504 835 1504 846 1526.5 c 128,-1,18
 857 1549 857 1549 863.5 1567 c 128,-1,19
 870 1585 870 1585 875 1592 c 1,20,-1
 965 1592 l 1,21,22
 965 1531 965 1531 940 1468.5 c 128,-1,23
 915 1406 915 1406 870 1356 c 128,-1,24
 825 1306 825 1306 764 1274 c 128,-1,25
 703 1242 703 1242 631 1242 c 0,0,1
EndSplineSet
EndChar

StartChar: dotaccent
Encoding: 729 729 123
Width: 575
Flags: W
LayerCount: 2
Fore
SplineSet
273 1360 m 0,0,1
 249 1360 249 1360 226 1368.5 c 128,-1,2
 203 1377 203 1377 185.5 1392.5 c 128,-1,3
 168 1408 168 1408 157.5 1431 c 128,-1,4
 147 1454 147 1454 147 1483 c 0,5,6
 147 1514 147 1514 160.5 1541 c 128,-1,7
 174 1568 174 1568 195 1587.5 c 128,-1,8
 216 1607 216 1607 242.5 1618 c 128,-1,9
 269 1629 269 1629 296 1629 c 0,10,11
 362 1629 362 1629 392.5 1592.5 c 128,-1,12
 423 1556 423 1556 423 1505 c 0,13,14
 423 1472 423 1472 410 1445 c 128,-1,15
 397 1418 397 1418 376 1399.5 c 128,-1,16
 355 1381 355 1381 328 1370.5 c 128,-1,17
 301 1360 301 1360 273 1360 c 0,0,1
EndSplineSet
EndChar

StartChar: ring
Encoding: 730 730 124
Width: 575
Flags: W
LayerCount: 2
Fore
SplineSet
287 1320 m 256,0,1
 235 1320 235 1320 189.5 1339 c 128,-1,2
 144 1358 144 1358 109.5 1390.5 c 128,-1,3
 75 1423 75 1423 55 1467 c 128,-1,4
 35 1511 35 1511 35 1561 c 256,5,6
 35 1611 35 1611 55 1655 c 128,-1,7
 75 1699 75 1699 109.5 1731.5 c 128,-1,8
 144 1764 144 1764 189.5 1783 c 128,-1,9
 235 1802 235 1802 287 1802 c 256,10,11
 339 1802 339 1802 384.5 1783 c 128,-1,12
 430 1764 430 1764 464.5 1731.5 c 128,-1,13
 499 1699 499 1699 519 1655 c 128,-1,14
 539 1611 539 1611 539 1561 c 256,15,16
 539 1511 539 1511 519 1467 c 128,-1,17
 499 1423 499 1423 464.5 1390.5 c 128,-1,18
 430 1358 430 1358 384.5 1339 c 128,-1,19
 339 1320 339 1320 287 1320 c 256,0,1
287 1426 m 256,20,21
 314 1426 314 1426 338.5 1436.5 c 128,-1,22
 363 1447 363 1447 381 1465 c 128,-1,23
 399 1483 399 1483 409.5 1507 c 128,-1,24
 420 1531 420 1531 420 1559 c 0,25,26
 420 1586 420 1586 409.5 1610 c 128,-1,27
 399 1634 399 1634 381 1652 c 128,-1,28
 363 1670 363 1670 338.5 1680.5 c 128,-1,29
 314 1691 314 1691 287 1691 c 256,30,31
 260 1691 260 1691 235.5 1680.5 c 128,-1,32
 211 1670 211 1670 193 1652 c 128,-1,33
 175 1634 175 1634 164.5 1610 c 128,-1,34
 154 1586 154 1586 154 1559 c 0,35,36
 154 1531 154 1531 164.5 1507 c 128,-1,37
 175 1483 175 1483 193 1465 c 128,-1,38
 211 1447 211 1447 235.5 1436.5 c 128,-1,39
 260 1426 260 1426 287 1426 c 256,20,21
EndSplineSet
EndChar

StartChar: ogonek
Encoding: 731 731 125
Width: 709
Flags: W
LayerCount: 2
Fore
SplineSet
432 10 m 1,0,1
 387 -8 387 -8 338.5 -40.5 c 128,-1,2
 290 -73 290 -73 249.5 -112 c 128,-1,3
 209 -151 209 -151 182.5 -191.5 c 128,-1,4
 156 -232 156 -232 156 -266 c 0,5,6
 156 -313 156 -313 169.5 -339.5 c 128,-1,7
 183 -366 183 -366 211 -378 c 0,8,9
 236 -389 236 -389 280 -389 c 0,10,11
 293 -389 293 -389 310 -386.5 c 128,-1,12
 327 -384 327 -384 345 -379.5 c 128,-1,13
 363 -375 363 -375 380 -369.5 c 128,-1,14
 397 -364 397 -364 409 -358 c 1,15,-1
 431 -446 l 1,16,17
 411 -461 411 -461 382.5 -474 c 128,-1,18
 354 -487 354 -487 320.5 -496.5 c 128,-1,19
 287 -506 287 -506 249 -511 c 128,-1,20
 211 -516 211 -516 172 -516 c 0,21,22
 150 -516 150 -516 131 -512.5 c 128,-1,23
 112 -509 112 -509 95 -504 c 0,24,25
 62 -493 62 -493 39 -473.5 c 128,-1,26
 16 -454 16 -454 1.5 -429 c 128,-1,27
 -13 -404 -13 -404 -19.5 -376.5 c 128,-1,28
 -26 -349 -26 -349 -26 -323 c 0,29,30
 -26 -281 -26 -281 0 -232 c 128,-1,31
 26 -183 26 -183 68.5 -136.5 c 128,-1,32
 111 -90 111 -90 166.5 -51.5 c 128,-1,33
 222 -13 222 -13 282 10 c 1,34,-1
 432 10 l 1,0,1
EndSplineSet
EndChar

StartChar: tilde
Encoding: 732 732 126
Width: 886
Flags: W
LayerCount: 2
Fore
SplineSet
56 1490 m 1,0,1
 75 1525 75 1525 105.5 1556.5 c 128,-1,2
 136 1588 136 1588 173.5 1612 c 128,-1,3
 211 1636 211 1636 252.5 1650.5 c 128,-1,4
 294 1665 294 1665 333 1665 c 0,5,6
 382 1665 382 1665 415 1644 c 128,-1,7
 448 1623 448 1623 475.5 1597.5 c 128,-1,8
 503 1572 503 1572 530 1551 c 128,-1,9
 557 1530 557 1530 593 1530 c 0,10,11
 622 1530 622 1530 648.5 1539 c 128,-1,12
 675 1548 675 1548 698.5 1562 c 128,-1,13
 722 1576 722 1576 742 1592.5 c 128,-1,14
 762 1609 762 1609 778 1625 c 1,15,-1
 830 1552 l 1,16,17
 811 1517 811 1517 780.5 1485 c 128,-1,18
 750 1453 750 1453 712.5 1429 c 128,-1,19
 675 1405 675 1405 633.5 1390.5 c 128,-1,20
 592 1376 592 1376 553 1376 c 0,21,22
 520 1376 520 1376 495 1386 c 128,-1,23
 470 1396 470 1396 449 1411 c 128,-1,24
 428 1426 428 1426 410.5 1444 c 128,-1,25
 393 1462 393 1462 375 1477 c 128,-1,26
 357 1492 357 1492 337 1502 c 128,-1,27
 317 1512 317 1512 293 1512 c 0,28,29
 264 1512 264 1512 237 1503 c 128,-1,30
 210 1494 210 1494 186.5 1480 c 128,-1,31
 163 1466 163 1466 143 1449 c 128,-1,32
 123 1432 123 1432 108 1417 c 1,33,-1
 56 1490 l 1,0,1
EndSplineSet
EndChar

StartChar: hungarumlaut
Encoding: 733 733 127
Width: 915
Flags: W
LayerCount: 2
Fore
SplineSet
686 1394 m 1,0,-1
 1010 1810 l 1,1,-1
 1136 1691 l 1,2,3
 1101 1646 1101 1646 1049 1595 c 128,-1,4
 997 1544 997 1544 941 1496 c 128,-1,5
 885 1448 885 1448 831.5 1406.5 c 128,-1,6
 778 1365 778 1365 739 1340 c 1,7,-1
 686 1394 l 1,0,-1
196 1394 m 1,8,-1
 520 1810 l 1,9,-1
 646 1691 l 1,10,11
 611 1646 611 1646 559 1595 c 128,-1,12
 507 1544 507 1544 451 1496 c 128,-1,13
 395 1448 395 1448 341.5 1406.5 c 128,-1,14
 288 1365 288 1365 249 1340 c 1,15,-1
 196 1394 l 1,8,-1
EndSplineSet
EndChar

StartChar: cedilla
Encoding: 184 184 128
Width: 615
Flags: W
LayerCount: 2
Fore
SplineSet
230 0 m 1,0,1
 226 -25 226 -25 224.5 -59.5 c 128,-1,2
 223 -94 223 -94 226 -125 c 1,3,4
 295 -125 295 -125 343.5 -144 c 128,-1,5
 392 -163 392 -163 422.5 -192 c 128,-1,6
 453 -221 453 -221 467 -256 c 128,-1,7
 481 -291 481 -291 481 -324 c 0,8,9
 481 -374 481 -374 462.5 -410.5 c 128,-1,10
 444 -447 444 -447 411 -472 c 128,-1,11
 378 -497 378 -497 332.5 -510.5 c 128,-1,12
 287 -524 287 -524 232 -527 c 0,13,14
 188 -529 188 -529 157 -527.5 c 128,-1,15
 126 -526 126 -526 103 -522.5 c 128,-1,16
 80 -519 80 -519 63 -514.5 c 128,-1,17
 46 -510 46 -510 31 -506 c 1,18,19
 31 -480 31 -480 31.5 -455.5 c 128,-1,20
 32 -431 32 -431 32 -405 c 1,21,22
 44 -408 44 -408 59.5 -410.5 c 128,-1,23
 75 -413 75 -413 91 -415.5 c 128,-1,24
 107 -418 107 -418 121.5 -419 c 128,-1,25
 136 -420 136 -420 145 -420 c 0,26,27
 173 -420 173 -420 198 -417 c 128,-1,28
 223 -414 223 -414 242.5 -402.5 c 128,-1,29
 262 -391 262 -391 273.5 -369 c 128,-1,30
 285 -347 285 -347 285 -309 c 0,31,32
 285 -265 285 -265 247 -237 c 128,-1,33
 209 -209 209 -209 128 -209 c 0,34,35
 122 -209 122 -209 114.5 -209.5 c 128,-1,36
 107 -210 107 -210 99.5 -210.5 c 128,-1,37
 92 -211 92 -211 86 -212 c 128,-1,38
 80 -213 80 -213 79 -213 c 1,39,40
 80 -164 80 -164 84.5 -112.5 c 128,-1,41
 89 -61 89 -61 106 0 c 1,42,-1
 230 0 l 1,0,1
EndSplineSet
EndChar

StartChar: ordfeminine
Encoding: 170 170 129
Width: 1063
Flags: W
LayerCount: 2
Fore
SplineSet
367 687 m 0,0,1
 334 687 334 687 291.5 701 c 128,-1,2
 249 715 249 715 212 744 c 128,-1,3
 175 773 175 773 149.5 818 c 128,-1,4
 124 863 124 863 124 926 c 0,5,6
 124 986 124 986 153 1030.5 c 128,-1,7
 182 1075 182 1075 228.5 1106.5 c 128,-1,8
 275 1138 275 1138 334.5 1158 c 128,-1,9
 394 1178 394 1178 455 1189.5 c 128,-1,10
 516 1201 516 1201 573 1205.5 c 128,-1,11
 630 1210 630 1210 673 1210 c 1,12,-1
 673 1236 l 2,13,14
 673 1300 673 1300 656.5 1336.5 c 128,-1,15
 640 1373 640 1373 610.5 1392 c 128,-1,16
 581 1411 581 1411 541 1416 c 128,-1,17
 501 1421 501 1421 454 1421 c 0,18,19
 415 1421 415 1421 378.5 1416.5 c 128,-1,20
 342 1412 342 1412 310 1404 c 128,-1,21
 278 1396 278 1396 251.5 1385 c 128,-1,22
 225 1374 225 1374 207 1360 c 1,23,-1
 169 1448 l 1,24,25
 191 1468 191 1468 229 1485.5 c 128,-1,26
 267 1503 267 1503 313.5 1516 c 128,-1,27
 360 1529 360 1529 411 1536.5 c 128,-1,28
 462 1544 462 1544 510 1544 c 0,29,30
 582 1544 582 1544 644.5 1534.5 c 128,-1,31
 707 1525 707 1525 753.5 1493.5 c 128,-1,32
 800 1462 800 1462 826.5 1403.5 c 128,-1,33
 853 1345 853 1345 853 1248 c 2,34,-1
 851 790 l 1,35,-1
 938 790 l 1,36,-1
 938 714 l 1,37,38
 925 709 925 709 903.5 703 c 128,-1,39
 882 697 882 697 858 692 c 128,-1,40
 834 687 834 687 810 684 c 128,-1,41
 786 681 786 681 767 681 c 256,42,43
 748 681 748 681 732 684 c 128,-1,44
 716 687 716 687 704 697 c 128,-1,45
 692 707 692 707 685 725.5 c 128,-1,46
 678 744 678 744 678 775 c 2,47,-1
 678 790 l 1,48,49
 661 775 661 775 634.5 757.5 c 128,-1,50
 608 740 608 740 570 724 c 128,-1,51
 532 708 532 708 481.5 697.5 c 128,-1,52
 431 687 431 687 367 687 c 0,0,1
445 804 m 0,53,54
 471 804 471 804 502.5 808.5 c 128,-1,55
 534 813 534 813 565.5 821.5 c 128,-1,56
 597 830 597 830 625 843 c 128,-1,57
 653 856 653 856 671 873 c 1,58,-1
 672 1119 l 1,59,60
 616 1119 616 1119 553 1111.5 c 128,-1,61
 490 1104 490 1104 436.5 1085.5 c 128,-1,62
 383 1067 383 1067 348 1036 c 128,-1,63
 313 1005 313 1005 313 959 c 0,64,65
 313 921 313 921 323.5 892 c 128,-1,66
 334 863 334 863 352 843.5 c 128,-1,67
 370 824 370 824 394 814 c 128,-1,68
 418 804 418 804 445 804 c 0,53,54
EndSplineSet
EndChar

StartChar: ordmasculine
Encoding: 186 186 130
Width: 1063
Flags: W
LayerCount: 2
Fore
SplineSet
523 684 m 0,0,1
 439 684 439 684 365.5 712 c 128,-1,2
 292 740 292 740 237 794.5 c 128,-1,3
 182 849 182 849 151 929.5 c 128,-1,4
 120 1010 120 1010 122 1114 c 0,5,6
 124 1228 124 1228 164 1308.5 c 128,-1,7
 204 1389 204 1389 265 1440.5 c 128,-1,8
 326 1492 326 1492 400 1516 c 128,-1,9
 474 1540 474 1540 544 1541 c 0,10,11
 637 1542 637 1542 711 1511.5 c 128,-1,12
 785 1481 785 1481 836.5 1424 c 128,-1,13
 888 1367 888 1367 915 1285.5 c 128,-1,14
 942 1204 942 1204 941 1104 c 0,15,16
 940 991 940 991 899.5 911 c 128,-1,17
 859 831 859 831 797.5 781 c 128,-1,18
 736 731 736 731 663 707.5 c 128,-1,19
 590 684 590 684 523 684 c 0,0,1
520 789 m 0,20,21
 574 786 574 786 614.5 798 c 128,-1,22
 655 810 655 810 682 844 c 128,-1,23
 709 878 709 878 722.5 938 c 128,-1,24
 736 998 736 998 736 1092 c 0,25,26
 736 1169 736 1169 723 1232 c 128,-1,27
 710 1295 710 1295 684 1339.5 c 128,-1,28
 658 1384 658 1384 620 1409 c 128,-1,29
 582 1434 582 1434 533 1435 c 0,30,31
 483 1436 483 1436 445 1419 c 128,-1,32
 407 1402 407 1402 380.5 1364 c 128,-1,33
 354 1326 354 1326 340.5 1266.5 c 128,-1,34
 327 1207 327 1207 327 1124 c 0,35,36
 327 1046 327 1046 342 984.5 c 128,-1,37
 357 923 357 923 383 880.5 c 128,-1,38
 409 838 409 838 444 814.5 c 128,-1,39
 479 791 479 791 520 789 c 0,20,21
EndSplineSet
EndChar

StartChar: paragraph
Encoding: 182 182 131
Width: 1259
Flags: W
LayerCount: 2
Fore
SplineSet
376 85 m 1,0,-1
 575 115 l 1,1,-1
 575 676 l 1,2,3
 468 676 468 676 382.5 702.5 c 128,-1,4
 297 729 297 729 236.5 784.5 c 128,-1,5
 176 840 176 840 143.5 925 c 128,-1,6
 111 1010 111 1010 111 1127 c 0,7,8
 111 1225 111 1225 141.5 1303.5 c 128,-1,9
 172 1382 172 1382 235.5 1437 c 128,-1,10
 299 1492 299 1492 396.5 1521.5 c 128,-1,11
 494 1551 494 1551 627 1551 c 0,12,13
 661 1551 661 1551 712.5 1548.5 c 128,-1,14
 764 1546 764 1546 820 1542.5 c 128,-1,15
 876 1539 876 1539 931.5 1535.5 c 128,-1,16
 987 1532 987 1532 1029 1531 c 1,17,-1
 1200 1531 l 1,18,-1
 1200 1430 l 1,19,-1
 1028 1397 l 1,20,-1
 1028 115 l 1,21,-1
 1176 85 l 1,22,-1
 1176 0 l 1,23,-1
 899 0 l 1,24,-1
 897 1397 l 1,25,-1
 701 1397 l 1,26,-1
 701 0 l 1,27,-1
 376 0 l 1,28,-1
 376 85 l 1,0,-1
EndSplineSet
EndChar

StartChar: section
Encoding: 167 167 132
Width: 1229
Flags: W
LayerCount: 2
Fore
SplineSet
180 90 m 1,0,-1
 245 -104 l 1,1,2
 279 -142 279 -142 318.5 -163 c 128,-1,3
 358 -184 358 -184 400.5 -195 c 128,-1,4
 443 -206 443 -206 487.5 -208.5 c 128,-1,5
 532 -211 532 -211 577 -211 c 0,6,7
 628 -211 628 -211 682 -197 c 128,-1,8
 736 -183 736 -183 780 -152 c 128,-1,9
 824 -121 824 -121 852 -72 c 128,-1,10
 880 -23 880 -23 880 47 c 0,11,12
 880 113 880 113 847 163.5 c 128,-1,13
 814 214 814 214 760 255.5 c 128,-1,14
 706 297 706 297 637 331.5 c 128,-1,15
 568 366 568 366 496.5 401 c 128,-1,16
 425 436 425 436 356 474.5 c 128,-1,17
 287 513 287 513 233 560.5 c 128,-1,18
 179 608 179 608 146 669 c 128,-1,19
 113 730 113 730 113 810 c 0,20,21
 113 850 113 850 120.5 891.5 c 128,-1,22
 128 933 128 933 142 972 c 128,-1,23
 156 1011 156 1011 175 1046 c 128,-1,24
 194 1081 194 1081 218 1108 c 1,25,26
 176 1152 176 1152 152 1206 c 128,-1,27
 128 1260 128 1260 128 1329 c 0,28,29
 128 1399 128 1399 150.5 1455.5 c 128,-1,30
 173 1512 173 1512 210.5 1555.5 c 128,-1,31
 248 1599 248 1599 297.5 1631 c 128,-1,32
 347 1663 347 1663 401.5 1683.5 c 128,-1,33
 456 1704 456 1704 511.5 1713.5 c 128,-1,34
 567 1723 567 1723 617 1723 c 0,35,36
 690 1723 690 1723 752 1716 c 128,-1,37
 814 1709 814 1709 863.5 1697.5 c 128,-1,38
 913 1686 913 1686 949 1672.5 c 128,-1,39
 985 1659 985 1659 1007 1646 c 1,40,-1
 1007 1369 l 1,41,-1
 922 1369 l 1,42,-1
 844 1561 l 1,43,44
 831 1576 831 1576 806.5 1587 c 128,-1,45
 782 1598 782 1598 750 1605.5 c 128,-1,46
 718 1613 718 1613 681 1617 c 128,-1,47
 644 1621 644 1621 605 1621 c 0,48,49
 564 1621 564 1621 513.5 1609 c 128,-1,50
 463 1597 463 1597 418 1567.5 c 128,-1,51
 373 1538 373 1538 342.5 1489.5 c 128,-1,52
 312 1441 312 1441 312 1368 c 0,53,54
 312 1305 312 1305 345 1257 c 128,-1,55
 378 1209 378 1209 432 1170 c 128,-1,56
 486 1131 486 1131 555 1097.5 c 128,-1,57
 624 1064 624 1064 696.5 1030.5 c 128,-1,58
 769 997 769 997 838 959.5 c 128,-1,59
 907 922 907 922 961 875 c 128,-1,60
 1015 828 1015 828 1048 767 c 128,-1,61
 1081 706 1081 706 1081 626 c 0,62,63
 1081 584 1081 584 1074.5 540 c 128,-1,64
 1068 496 1068 496 1056 455 c 128,-1,65
 1044 414 1044 414 1027 377 c 128,-1,66
 1010 340 1010 340 988 312 c 1,67,68
 1024 270 1024 270 1045 220 c 128,-1,69
 1066 170 1066 170 1066 107 c 0,70,71
 1066 -5 1066 -5 1024 -85 c 128,-1,72
 982 -165 982 -165 911 -216.5 c 128,-1,73
 840 -268 840 -268 746.5 -292 c 128,-1,74
 653 -316 653 -316 550 -316 c 0,75,76
 475 -316 475 -316 402.5 -308 c 128,-1,77
 330 -300 330 -300 268.5 -287.5 c 128,-1,78
 207 -275 207 -275 161 -260 c 128,-1,79
 115 -245 115 -245 94 -232 c 1,80,-1
 94 90 l 1,81,-1
 180 90 l 1,0,-1
297 849 m 0,82,83
 297 792 297 792 323.5 748 c 128,-1,84
 350 704 350 704 394 668 c 128,-1,85
 438 632 438 632 496.5 601 c 128,-1,86
 555 570 555 570 618 541 c 128,-1,87
 681 512 681 512 745.5 481 c 128,-1,88
 810 450 810 450 867 414 c 1,89,90
 880 449 880 449 887.5 490 c 128,-1,91
 895 531 895 531 895 566 c 0,92,93
 895 624 895 624 869 670 c 128,-1,94
 843 716 843 716 800 754 c 128,-1,95
 757 792 757 792 700 824 c 128,-1,96
 643 856 643 856 580.5 886.5 c 128,-1,97
 518 917 518 917 454.5 948 c 128,-1,98
 391 979 391 979 334 1015 c 1,99,100
 317 978 317 978 307 934 c 128,-1,101
 297 890 297 890 297 849 c 0,82,83
EndSplineSet
EndChar

StartChar: AE
Encoding: 198 198 133
Width: 2000
Flags: W
LayerCount: 2
Fore
SplineSet
2 85 m 1,0,-1
 143 114 l 1,1,-1
 717 1531 l 1,2,-1
 1718 1531 l 1,3,-1
 1747 1246 l 1,4,-1
 1647 1244 l 1,5,-1
 1601 1413 l 1,6,-1
 931 1425 l 1,7,-1
 1103 867 l 1,8,-1
 1549 874 l 1,9,-1
 1579 1031 l 1,10,-1
 1671 1031 l 1,11,-1
 1671 611 l 1,12,-1
 1579 611 l 1,13,-1
 1549 754 l 1,14,-1
 1136 759 l 1,15,-1
 1335 110 l 1,16,-1
 1710 127 l 1,17,-1
 1810 334 l 1,18,-1
 1897 291 l 1,19,-1
 1852 0 l 1,20,-1
 953 0 l 1,21,-1
 953 85 l 1,22,-1
 1117 116 l 1,23,-1
 1024 456 l 1,24,-1
 441 456 l 1,25,-1
 311 115 l 1,26,-1
 480 85 l 1,27,-1
 480 0 l 1,28,-1
 2 0 l 1,29,-1
 2 85 l 1,0,-1
992 573 m 1,30,-1
 831 1163 l 1,31,-1
 784 1354 l 1,32,-1
 486 573 l 1,33,-1
 992 573 l 1,30,-1
EndSplineSet
EndChar

StartChar: Lslash
Encoding: 321 321 134
Width: 1240
Flags: W
LayerCount: 2
Fore
SplineSet
102 85 m 1,0,-1
 271 115 l 1,1,-1
 271 587 l 1,2,-1
 207 558 l 1,3,-1
 71 496 l 1,4,-1
 71 643 l 1,5,-1
 271 735 l 1,6,-1
 271 1405 l 1,7,8
 229 1409 229 1409 188.5 1413 c 128,-1,9
 148 1417 148 1417 106 1422 c 1,10,-1
 106 1531 l 1,11,-1
 644 1531 l 1,12,-1
 644 1422 l 1,13,-1
 467 1405 l 1,14,-1
 466 824 l 1,15,-1
 478 830 l 1,16,-1
 614 892 l 1,17,-1
 885 1017 l 1,18,-1
 885 870 l 1,19,-1
 614 745 l 1,20,-1
 466 677 l 1,21,-1
 465 112 l 1,22,-1
 1000 136 l 1,23,-1
 1123 374 l 1,24,-1
 1210 331 l 1,25,-1
 1145 0 l 1,26,-1
 102 0 l 1,27,-1
 102 85 l 1,0,-1
EndSplineSet
EndChar

StartChar: Oslash
Encoding: 216 216 135
Width: 1554
Flags: W
LayerCount: 2
Fore
SplineSet
485 25 m 1,0,1
 389 67 389 67 314 137 c 128,-1,2
 239 207 239 207 187.5 299.5 c 128,-1,3
 136 392 136 392 109.5 504 c 128,-1,4
 83 616 83 616 86 742 c 0,5,6
 90 931 90 931 147.5 1079.5 c 128,-1,7
 205 1228 205 1228 302 1331.5 c 128,-1,8
 399 1435 399 1435 527 1491.5 c 128,-1,9
 655 1548 655 1548 800 1552 c 0,10,11
 853 1554 853 1554 902 1547.5 c 128,-1,12
 951 1541 951 1541 997 1528 c 1,13,-1
 1050 1683 l 1,14,-1
 1133 1649 l 1,15,-1
 1082 1498 l 1,16,17
 1175 1456 1175 1456 1247 1385.5 c 128,-1,18
 1319 1315 1319 1315 1368.5 1222 c 128,-1,19
 1418 1129 1418 1129 1443 1016.5 c 128,-1,20
 1468 904 1468 904 1466 778 c 0,21,22
 1462 589 1462 589 1406.5 440.5 c 128,-1,23
 1351 292 1351 292 1257 189 c 128,-1,24
 1163 86 1163 86 1037.5 30.5 c 128,-1,25
 912 -25 912 -25 770 -28 c 1,26,27
 666 -29 666 -29 573 -5 c 1,28,-1
 508 -199 l 1,29,-1
 420 -166 l 1,30,-1
 485 25 l 1,0,1
956 1407 m 1,31,32
 918 1426 918 1426 876 1436 c 128,-1,33
 834 1446 834 1446 787 1446 c 0,34,35
 674 1446 674 1446 584.5 1398 c 128,-1,36
 495 1350 495 1350 432 1259 c 128,-1,37
 369 1168 369 1168 335.5 1038 c 128,-1,38
 302 908 302 908 302 743 c 0,39,40
 302 655 302 655 317 571 c 128,-1,41
 332 487 332 487 361 412 c 128,-1,42
 390 337 390 337 433.5 274 c 128,-1,43
 477 211 477 211 533 166 c 1,44,-1
 956 1407 l 1,31,32
614 115 m 1,45,46
 653 97 653 97 696 87 c 128,-1,47
 739 77 739 77 787 77 c 0,48,49
 897 77 897 77 983 124.5 c 128,-1,50
 1069 172 1069 172 1128.5 262 c 128,-1,51
 1188 352 1188 352 1219 482 c 128,-1,52
 1250 612 1250 612 1250 777 c 0,53,54
 1250 864 1250 864 1236.5 948.5 c 128,-1,55
 1223 1033 1223 1033 1196 1108.5 c 128,-1,56
 1169 1184 1169 1184 1128.5 1247.5 c 128,-1,57
 1088 1311 1088 1311 1034 1356 c 1,58,-1
 614 115 l 1,45,46
EndSplineSet
EndChar

StartChar: germandbls
Encoding: 223 223 136
Width: 1339
Flags: W
LayerCount: 2
Fore
SplineSet
67 86 m 1,0,-1
 227 117 l 1,1,-1
 227 892 l 2,2,3
 227 1075 227 1075 272 1209.5 c 128,-1,4
 317 1344 317 1344 391.5 1432 c 128,-1,5
 466 1520 466 1520 563.5 1563 c 128,-1,6
 661 1606 661 1606 766 1606 c 0,7,8
 823 1606 823 1606 879 1591.5 c 128,-1,9
 935 1577 935 1577 979.5 1542 c 128,-1,10
 1024 1507 1024 1507 1051 1449.5 c 128,-1,11
 1078 1392 1078 1392 1078 1306 c 0,12,13
 1078 1245 1078 1245 1063 1197.5 c 128,-1,14
 1048 1150 1048 1150 1026 1111.5 c 128,-1,15
 1004 1073 1004 1073 978 1039.5 c 128,-1,16
 952 1006 952 1006 930 972 c 128,-1,17
 908 938 908 938 893 901 c 128,-1,18
 878 864 878 864 878 818 c 0,19,20
 878 766 878 766 910.5 730.5 c 128,-1,21
 943 695 943 695 992 665 c 128,-1,22
 1041 635 1041 635 1098 606 c 128,-1,23
 1155 577 1155 577 1204 537.5 c 128,-1,24
 1253 498 1253 498 1285.5 444 c 128,-1,25
 1318 390 1318 390 1318 310 c 0,26,27
 1318 222 1318 222 1283 159.5 c 128,-1,28
 1248 97 1248 97 1189.5 57 c 128,-1,29
 1131 17 1131 17 1054.5 -2 c 128,-1,30
 978 -21 978 -21 894 -21 c 0,31,32
 850 -21 850 -21 791.5 -18.5 c 128,-1,33
 733 -16 733 -16 673 -2 c 1,34,-1
 673 171 l 1,35,36
 692 161 692 161 720.5 147 c 128,-1,37
 749 133 749 133 781.5 120.5 c 128,-1,38
 814 108 814 108 847.5 99 c 128,-1,39
 881 90 881 90 910 90 c 0,40,41
 952 90 952 90 992.5 98.5 c 128,-1,42
 1033 107 1033 107 1064.5 128 c 128,-1,43
 1096 149 1096 149 1115 185 c 128,-1,44
 1134 221 1134 221 1134 276 c 0,45,46
 1134 328 1134 328 1101.5 365.5 c 128,-1,47
 1069 403 1069 403 1020 434 c 128,-1,48
 971 465 971 465 914.5 494 c 128,-1,49
 858 523 858 523 809 557.5 c 128,-1,50
 760 592 760 592 727.5 636.5 c 128,-1,51
 695 681 695 681 695 743 c 0,52,53
 695 777 695 777 710.5 813.5 c 128,-1,54
 726 850 726 850 749.5 888.5 c 128,-1,55
 773 927 773 927 800 968 c 128,-1,56
 827 1009 827 1009 850.5 1053 c 128,-1,57
 874 1097 874 1097 889.5 1143 c 128,-1,58
 905 1189 905 1189 905 1238 c 0,59,60
 905 1285 905 1285 896.5 1321.5 c 128,-1,61
 888 1358 888 1358 873 1385.5 c 128,-1,62
 858 1413 858 1413 838.5 1431.5 c 128,-1,63
 819 1450 819 1450 798 1461 c 256,64,65
 777 1472 777 1472 755 1477 c 128,-1,66
 733 1482 733 1482 713 1482 c 0,67,68
 631 1482 631 1482 574.5 1452.5 c 128,-1,69
 518 1423 518 1423 483.5 1354 c 128,-1,70
 449 1285 449 1285 433.5 1172 c 128,-1,71
 418 1059 418 1059 418 892 c 2,72,-1
 418 0 l 1,73,-1
 67 0 l 1,74,-1
 67 86 l 1,0,-1
EndSplineSet
EndChar

StartChar: ae
Encoding: 230 230 137
Width: 1785
Flags: W
LayerCount: 2
Fore
SplineSet
98 322 m 0,0,1
 106 389 106 389 145 440.5 c 128,-1,2
 184 492 184 492 241.5 530.5 c 128,-1,3
 299 569 299 569 369.5 594.5 c 128,-1,4
 440 620 440 620 510.5 636 c 128,-1,5
 581 652 581 652 645.5 658.5 c 128,-1,6
 710 665 710 665 757 665 c 1,7,-1
 757 754 l 2,8,9
 757 837 757 837 738 887.5 c 128,-1,10
 719 938 719 938 684.5 966 c 128,-1,11
 650 994 650 994 602.5 1003 c 128,-1,12
 555 1012 555 1012 497 1012 c 0,13,14
 467 1012 467 1012 421.5 1002.5 c 128,-1,15
 376 993 376 993 326 977 c 128,-1,16
 276 961 276 961 228 939 c 128,-1,17
 180 917 180 917 146 893 c 1,18,-1
 146 1013 l 1,19,20
 176 1033 176 1033 222.5 1055.5 c 128,-1,21
 269 1078 269 1078 324.5 1096.5 c 128,-1,22
 380 1115 380 1115 441.5 1127 c 128,-1,23
 503 1139 503 1139 563 1139 c 0,24,25
 620 1139 620 1139 671.5 1131.5 c 128,-1,26
 723 1124 723 1124 766.5 1105.5 c 128,-1,27
 810 1087 810 1087 844.5 1055 c 128,-1,28
 879 1023 879 1023 901 974 c 1,29,30
 970 1055 970 1055 1068.5 1101.5 c 128,-1,31
 1167 1148 1167 1148 1292 1152 c 0,32,33
 1380 1154 1380 1154 1451 1126.5 c 128,-1,34
 1522 1099 1522 1099 1572 1045 c 128,-1,35
 1622 991 1622 991 1650.5 913 c 128,-1,36
 1679 835 1679 835 1683 736 c 0,37,38
 1685 673 1685 673 1680.5 627 c 128,-1,39
 1676 581 1676 581 1671 545 c 1,40,-1
 930 545 l 1,41,42
 930 539 930 539 930 533.5 c 128,-1,43
 930 528 930 528 931 522 c 0,44,45
 935 401 935 401 972 321.5 c 128,-1,46
 1009 242 1009 242 1064.5 194.5 c 128,-1,47
 1120 147 1120 147 1187 128 c 128,-1,48
 1254 109 1254 109 1318 109 c 0,49,50
 1357 109 1357 109 1400 114.5 c 128,-1,51
 1443 120 1443 120 1483.5 129 c 128,-1,52
 1524 138 1524 138 1558.5 149.5 c 128,-1,53
 1593 161 1593 161 1614 173 c 1,54,-1
 1651 88 l 1,55,56
 1622 62 1622 62 1575.5 40.5 c 128,-1,57
 1529 19 1529 19 1474 4 c 128,-1,58
 1419 -11 1419 -11 1359 -19.5 c 128,-1,59
 1299 -28 1299 -28 1242 -28 c 0,60,61
 1110 -28 1110 -28 1016.5 20.5 c 128,-1,62
 923 69 923 69 863 158 c 1,63,64
 825 121 825 121 779.5 87 c 128,-1,65
 734 53 734 53 678.5 28.5 c 128,-1,66
 623 4 623 4 555 -9.5 c 128,-1,67
 487 -23 487 -23 403 -18 c 0,68,69
 333 -14 333 -14 273.5 14.5 c 128,-1,70
 214 43 214 43 172.5 89.5 c 128,-1,71
 131 136 131 136 110.5 196 c 128,-1,72
 90 256 90 256 98 322 c 0,0,1
1479 663 m 1,73,74
 1482 708 1482 708 1481 754 c 128,-1,75
 1480 800 1480 800 1472.5 842 c 128,-1,76
 1465 884 1465 884 1448.5 921.5 c 128,-1,77
 1432 959 1432 959 1404.5 986 c 128,-1,78
 1377 1013 1377 1013 1336.5 1029 c 128,-1,79
 1296 1045 1296 1045 1240 1045 c 256,80,81
 1184 1045 1184 1045 1131.5 1024 c 128,-1,82
 1079 1003 1079 1003 1037.5 957 c 128,-1,83
 996 911 996 911 968 838.5 c 128,-1,84
 940 766 940 766 932 663 c 1,85,-1
 1479 663 l 1,73,74
302 309 m 0,86,87
 302 250 302 250 319 211 c 128,-1,88
 336 172 336 172 366 149.5 c 128,-1,89
 396 127 396 127 437.5 118 c 128,-1,90
 479 109 479 109 528 109 c 0,91,92
 555 109 555 109 592 119 c 128,-1,93
 629 129 629 129 663.5 146.5 c 128,-1,94
 698 164 698 164 724.5 188.5 c 128,-1,95
 751 213 751 213 757 242 c 1,96,-1
 757 562 l 1,97,98
 720 562 720 562 672 557 c 128,-1,99
 624 552 624 552 573.5 540 c 128,-1,100
 523 528 523 528 474 508.5 c 128,-1,101
 425 489 425 489 387 461 c 128,-1,102
 349 433 349 433 325.5 395.5 c 128,-1,103
 302 358 302 358 302 309 c 0,86,87
EndSplineSet
EndChar

StartChar: fi
Encoding: 64257 64257 138
Width: 1507
Flags: W
LayerCount: 2
Fore
SplineSet
114 85 m 1,0,-1
 315 107 l 1,1,-1
 315 1005 l 1,2,-1
 95 1005 l 1,3,-1
 95 1081 l 1,4,-1
 315 1140 l 1,5,-1
 315 1202 l 2,6,7
 315 1276 315 1276 333.5 1341.5 c 128,-1,8
 352 1407 352 1407 383.5 1461 c 128,-1,9
 415 1515 415 1515 456.5 1557.5 c 128,-1,10
 498 1600 498 1600 543.5 1629 c 128,-1,11
 589 1658 589 1658 636 1673.5 c 128,-1,12
 683 1689 683 1689 725 1689 c 0,13,14
 793 1689 793 1689 825 1683 c 128,-1,15
 857 1677 857 1677 868 1672 c 1,16,-1
 868 1502 l 1,17,18
 854 1510 854 1510 805.5 1521.5 c 128,-1,19
 757 1533 757 1533 685 1533 c 0,20,21
 644 1533 644 1533 611.5 1526 c 128,-1,22
 579 1519 579 1519 555.5 1493.5 c 128,-1,23
 532 1468 532 1468 519.5 1418.5 c 128,-1,24
 507 1369 507 1369 507 1284 c 2,25,-1
 507 1140 l 1,26,-1
 809 1140 l 1,27,-1
 809 1005 l 1,28,-1
 507 1005 l 1,29,-1
 507 105 l 1,30,-1
 737 85 l 1,31,-1
 737 0 l 1,32,-1
 114 0 l 1,33,-1
 114 85 l 1,0,-1
1172 1404 m 0,34,35
 1148 1404 1148 1404 1125 1412.5 c 128,-1,36
 1102 1421 1102 1421 1084.5 1436.5 c 128,-1,37
 1067 1452 1067 1452 1056.5 1475 c 128,-1,38
 1046 1498 1046 1498 1046 1527 c 0,39,40
 1046 1558 1046 1558 1059.5 1585 c 128,-1,41
 1073 1612 1073 1612 1094 1631.5 c 128,-1,42
 1115 1651 1115 1651 1141.5 1662 c 128,-1,43
 1168 1673 1168 1673 1195 1673 c 0,44,45
 1261 1673 1261 1673 1291.5 1636.5 c 128,-1,46
 1322 1600 1322 1600 1322 1549 c 0,47,48
 1322 1516 1322 1516 1309 1489 c 128,-1,49
 1296 1462 1296 1462 1275 1443.5 c 128,-1,50
 1254 1425 1254 1425 1227 1414.5 c 128,-1,51
 1200 1404 1200 1404 1172 1404 c 0,34,35
951 85 m 1,52,-1
 1121 106 l 1,53,-1
 1121 925 l 1,54,-1
 983 998 l 1,55,-1
 983 1060 l 1,56,-1
 1260 1139 l 1,57,-1
 1305 1119 l 1,58,-1
 1305 106 l 1,59,-1
 1467 85 l 1,60,-1
 1467 0 l 1,61,-1
 951 0 l 1,62,-1
 951 85 l 1,52,-1
EndSplineSet
Ligature2: "'dlig' Discretionary Ligatures in Latin lookup 0 subtable" f i
EndChar

StartChar: fl
Encoding: 64258 64258 139
Width: 1507
Flags: W
LayerCount: 2
Fore
SplineSet
114 85 m 1,0,-1
 315 107 l 1,1,-1
 315 1005 l 1,2,-1
 95 1005 l 1,3,-1
 95 1081 l 1,4,-1
 315 1140 l 1,5,-1
 315 1202 l 2,6,7
 315 1276 315 1276 333.5 1341.5 c 128,-1,8
 352 1407 352 1407 383.5 1461 c 128,-1,9
 415 1515 415 1515 456.5 1557.5 c 128,-1,10
 498 1600 498 1600 543.5 1629 c 128,-1,11
 589 1658 589 1658 636 1673.5 c 128,-1,12
 683 1689 683 1689 725 1689 c 0,13,14
 793 1689 793 1689 825 1683 c 128,-1,15
 857 1677 857 1677 868 1672 c 1,16,-1
 868 1502 l 1,17,18
 854 1510 854 1510 805.5 1521.5 c 128,-1,19
 757 1533 757 1533 685 1533 c 0,20,21
 644 1533 644 1533 611.5 1526 c 128,-1,22
 579 1519 579 1519 555.5 1493.5 c 128,-1,23
 532 1468 532 1468 519.5 1418.5 c 128,-1,24
 507 1369 507 1369 507 1284 c 2,25,-1
 507 1140 l 1,26,-1
 809 1140 l 1,27,-1
 809 1005 l 1,28,-1
 507 1005 l 1,29,-1
 507 105 l 1,30,-1
 737 85 l 1,31,-1
 737 0 l 1,32,-1
 114 0 l 1,33,-1
 114 85 l 1,0,-1
941 85 m 1,34,-1
 1111 106 l 1,35,-1
 1111 1460 l 1,36,-1
 951 1496 l 1,37,-1
 951 1583 l 1,38,-1
 1264 1625 l 1,39,-1
 1304 1602 l 1,40,-1
 1304 106 l 1,41,-1
 1482 85 l 1,42,-1
 1482 0 l 1,43,-1
 941 0 l 1,44,-1
 941 85 l 1,34,-1
EndSplineSet
Ligature2: "'dlig' Discretionary Ligatures in Latin lookup 0 subtable" f l
EndChar

StartChar: dotlessi
Encoding: 305 305 140
Width: 665
Flags: W
LayerCount: 2
Fore
SplineSet
99 85 m 1,0,-1
 269 106 l 1,1,-1
 269 925 l 1,2,-1
 131 998 l 1,3,-1
 131 1060 l 1,4,-1
 408 1139 l 1,5,-1
 453 1119 l 1,6,-1
 453 106 l 1,7,-1
 615 85 l 1,8,-1
 615 0 l 1,9,-1
 99 0 l 1,10,-1
 99 85 l 1,0,-1
EndSplineSet
EndChar

StartChar: lslash
Encoding: 322 322 141
Width: 665
Flags: W
LayerCount: 2
Fore
SplineSet
99 85 m 1,0,-1
 269 106 l 1,1,-1
 269 775 l 1,2,-1
 88 704 l 1,3,-1
 88 841 l 1,4,-1
 269 915 l 1,5,-1
 269 1460 l 1,6,-1
 109 1496 l 1,7,-1
 109 1583 l 1,8,-1
 422 1625 l 1,9,-1
 462 1602 l 1,10,-1
 462 994 l 1,11,-1
 622 1060 l 1,12,-1
 622 913 l 1,13,-1
 462 850 l 1,14,-1
 462 106 l 1,15,-1
 640 85 l 1,16,-1
 640 0 l 1,17,-1
 99 0 l 1,18,-1
 99 85 l 1,0,-1
EndSplineSet
EndChar

StartChar: oslash
Encoding: 248 248 142
Width: 1237
Flags: W
LayerCount: 2
Fore
SplineSet
397 16 m 1,0,1
 318 50 318 50 262 108 c 128,-1,2
 206 166 206 166 170.5 240.5 c 128,-1,3
 135 315 135 315 119 402.5 c 128,-1,4
 103 490 103 490 104 582 c 0,5,6
 106 716 106 716 150.5 821.5 c 128,-1,7
 195 927 195 927 268 1000 c 128,-1,8
 341 1073 341 1073 436.5 1112 c 128,-1,9
 532 1151 532 1151 636 1152 c 0,10,11
 713 1152 713 1152 776 1136 c 1,12,-1
 833 1303 l 1,13,-1
 914 1271 l 1,14,-1
 859 1107 l 1,15,16
 929 1074 929 1074 981 1020.5 c 128,-1,17
 1033 967 1033 967 1067 897.5 c 128,-1,18
 1101 828 1101 828 1117.5 745.5 c 128,-1,19
 1134 663 1134 663 1133 573 c 0,20,21
 1132 440 1132 440 1090.5 330 c 128,-1,22
 1049 220 1049 220 978.5 141.5 c 128,-1,23
 908 63 908 63 813.5 19.5 c 128,-1,24
 719 -24 719 -24 611 -24 c 0,25,26
 577 -24 577 -24 546 -20.5 c 128,-1,27
 515 -17 515 -17 486 -11 c 1,28,-1
 424 -199 l 1,29,-1
 336 -166 l 1,30,-1
 397 16 l 1,0,1
737 1021 m 1,31,32
 686 1046 686 1046 624 1047 c 0,33,34
 539 1048 539 1048 479.5 1017.5 c 128,-1,35
 420 987 420 987 382 928 c 128,-1,36
 344 869 344 869 326.5 784 c 128,-1,37
 309 699 309 699 309 591 c 0,38,39
 309 526 309 526 317.5 463.5 c 128,-1,40
 326 401 326 401 343 345 c 128,-1,41
 360 289 360 289 385.5 242 c 128,-1,42
 411 195 411 195 446 161 c 1,43,-1
 737 1021 l 1,31,32
526 108 m 1,44,45
 571 89 571 89 620 88 c 0,46,47
 705 86 705 86 763.5 117 c 128,-1,48
 822 148 822 148 858.5 208.5 c 128,-1,49
 895 269 895 269 911.5 358.5 c 128,-1,50
 928 448 928 448 928 564 c 0,51,52
 928 692 928 692 900 796 c 128,-1,53
 872 900 872 900 812 965 c 1,54,-1
 526 108 l 1,44,45
EndSplineSet
EndChar

StartChar: double
Encoding: 65539 -1 153
Width: 886
Flags: W
LayerCount: 2
Fore
SplineSet
332 422 m 1,0,-1
 347 557 l 1,1,-1
 65 553 l 1,2,3
 65 590 65 590 65.5 626.5 c 128,-1,4
 66 663 66 663 66 700 c 1,5,-1
 353 696 l 1,6,-1
 332 1000 l 1,7,-1
 347 1135 l 1,8,-1
 65 1131 l 1,9,10
 65 1168 65 1168 65.5 1204.5 c 128,-1,11
 66 1241 66 1241 66 1278 c 1,12,-1
 367 1274 l 1,13,-1
 347 1472 l 1,14,-1
 345 1531 l 1,15,-1
 342 1648 l 1,16,-1
 540 1648 l 1,17,-1
 537 1531 l 1,18,-1
 535 1472 l 1,19,-1
 514 1274 l 1,20,-1
 793 1278 l 1,21,22
 793 1241 793 1241 793.5 1204.5 c 128,-1,23
 794 1168 794 1168 794 1131 c 1,24,-1
 534 1135 l 1,25,-1
 550 1000 l 1,26,-1
 529 696 l 1,27,-1
 793 700 l 1,28,29
 793 663 793 663 793.5 626.5 c 128,-1,30
 794 590 794 590 794 553 c 1,31,-1
 534 557 l 1,32,-1
 550 422 l 1,33,-1
 544 342 l 1,34,-1
 500 -295 l 1,35,-1
 382 -295 l 1,36,-1
 332 422 l 1,0,-1
EndSplineSet
EndChar

StartChar: onesuperior
Encoding: 185 185 154
Width: 1085
Flags: W
LayerCount: 2
Fore
SplineSet
243 804 m 1,0,-1
 515 831 l 1,1,-1
 515 1484 l 1,2,-1
 243 1431 l 1,3,-1
 223 1530 l 1,4,5
 253 1539 253 1539 294 1554 c 128,-1,6
 335 1569 335 1569 379.5 1587 c 128,-1,7
 424 1605 424 1605 469 1625.5 c 128,-1,8
 514 1646 514 1646 552 1664.5 c 128,-1,9
 590 1683 590 1683 618.5 1698.5 c 128,-1,10
 647 1714 647 1714 659 1724 c 1,11,-1
 711 1709 l 1,12,-1
 708 830 l 1,13,-1
 967 804 l 1,14,-1
 967 719 l 1,15,-1
 243 719 l 1,16,-1
 243 804 l 1,0,-1
EndSplineSet
EndChar

StartChar: twosuperior
Encoding: 178 178 155
Width: 1256
Flags: W
LayerCount: 2
Fore
SplineSet
178 819 m 1,0,1
 305 901 305 901 420 973.5 c 128,-1,2
 535 1046 535 1046 622 1115.5 c 128,-1,3
 709 1185 709 1185 760.5 1256.5 c 128,-1,4
 812 1328 812 1328 812 1409 c 0,5,6
 812 1445 812 1445 799 1476.5 c 128,-1,7
 786 1508 786 1508 758 1530.5 c 128,-1,8
 730 1553 730 1553 686.5 1565 c 128,-1,9
 643 1577 643 1577 582 1574 c 0,10,11
 529 1571 529 1571 478 1554.5 c 128,-1,12
 427 1538 427 1538 382 1514.5 c 128,-1,13
 337 1491 337 1491 300.5 1464.5 c 128,-1,14
 264 1438 264 1438 240 1416 c 1,15,-1
 187 1518 l 1,16,17
 215 1552 215 1552 260 1586.5 c 128,-1,18
 305 1621 305 1621 362.5 1649 c 128,-1,19
 420 1677 420 1677 487.5 1694.5 c 128,-1,20
 555 1712 555 1712 629 1712 c 0,21,22
 729 1712 729 1712 801 1688.5 c 128,-1,23
 873 1665 873 1665 919.5 1626.5 c 128,-1,24
 966 1588 966 1588 988.5 1538.5 c 128,-1,25
 1011 1489 1011 1489 1011 1437 c 0,26,27
 1011 1342 1011 1342 965.5 1264 c 128,-1,28
 920 1186 920 1186 839.5 1115 c 128,-1,29
 759 1044 759 1044 649 974 c 128,-1,30
 539 904 539 904 410 825 c 1,31,-1
 941 876 l 1,32,-1
 1029 1023 l 1,33,-1
 1115 995 l 1,34,-1
 1048 720 l 1,35,-1
 225 720 l 1,36,-1
 178 819 l 1,0,1
EndSplineSet
EndChar

StartChar: threesuperior
Encoding: 179 179 156
Width: 1063
Flags: W
LayerCount: 2
Fore
SplineSet
205 806 m 1,0,1
 234 800 234 800 269.5 795 c 128,-1,2
 305 790 305 790 341 786 c 128,-1,3
 377 782 377 782 409.5 780.5 c 128,-1,4
 442 779 442 779 466 779 c 0,5,6
 614 782 614 782 691.5 843 c 128,-1,7
 769 904 769 904 769 1003 c 0,8,9
 769 1013 769 1013 767 1027.5 c 128,-1,10
 765 1042 765 1042 758 1058.5 c 128,-1,11
 751 1075 751 1075 737.5 1092 c 128,-1,12
 724 1109 724 1109 701 1124 c 256,13,14
 678 1139 678 1139 644 1150.5 c 128,-1,15
 610 1162 610 1162 562 1167 c 1,16,-1
 355 1127 l 1,17,-1
 355 1245 l 1,18,19
 437 1261 437 1261 501 1280 c 128,-1,20
 565 1299 565 1299 609.5 1326.5 c 128,-1,21
 654 1354 654 1354 677.5 1392.5 c 128,-1,22
 701 1431 701 1431 701 1486 c 0,23,24
 701 1522 701 1522 674 1549 c 0,25,26
 648 1575 648 1575 604.5 1587 c 128,-1,27
 561 1599 561 1599 510 1597 c 0,28,29
 472 1595 472 1595 431 1587 c 128,-1,30
 390 1579 390 1579 351 1567 c 128,-1,31
 312 1555 312 1555 277.5 1539 c 128,-1,32
 243 1523 243 1523 218 1505 c 1,33,-1
 169 1573 l 1,34,35
 192 1591 192 1591 231 1613.5 c 128,-1,36
 270 1636 270 1636 317.5 1656.5 c 128,-1,37
 365 1677 365 1677 417.5 1692.5 c 128,-1,38
 470 1708 470 1708 520 1713 c 0,39,40
 619 1723 619 1723 691 1713 c 128,-1,41
 763 1703 763 1703 809.5 1676.5 c 128,-1,42
 856 1650 856 1650 878.5 1608 c 128,-1,43
 901 1566 901 1566 901 1512 c 0,44,45
 901 1421 901 1421 842.5 1354 c 128,-1,46
 784 1287 784 1287 669 1245 c 1,47,48
 769 1245 769 1245 829.5 1221 c 128,-1,49
 890 1197 890 1197 921.5 1160.5 c 128,-1,50
 953 1124 953 1124 963 1082.5 c 128,-1,51
 973 1041 973 1041 973 1007 c 0,52,53
 973 936 973 936 942 875.5 c 128,-1,54
 911 815 911 815 851.5 770 c 128,-1,55
 792 725 792 725 706 699.5 c 128,-1,56
 620 674 620 674 511 674 c 0,57,58
 481 674 481 674 443 676.5 c 128,-1,59
 405 679 405 679 364.5 684 c 128,-1,60
 324 689 324 689 282.5 696 c 128,-1,61
 241 703 241 703 205 712 c 1,62,-1
 205 806 l 1,0,1
EndSplineSet
EndChar

StartChar: onequarter
Encoding: 188 188 157
Width: 2626
Flags: W
LayerCount: 2
Fore
SplineSet
1491 1881 m 1,0,-1
 1634 1881 l 1,1,-1
 1008 -343 l 1,2,3
 972 -343 972 -343 936.5 -342.5 c 128,-1,4
 901 -342 901 -342 865 -342 c 1,5,-1
 1491 1881 l 1,0,-1
243 804 m 1,6,-1
 515 831 l 1,7,-1
 515 1484 l 1,8,-1
 243 1431 l 1,9,-1
 223 1530 l 1,10,11
 253 1539 253 1539 294 1554 c 128,-1,12
 335 1569 335 1569 379.5 1587 c 128,-1,13
 424 1605 424 1605 469 1625.5 c 128,-1,14
 514 1646 514 1646 552 1664.5 c 128,-1,15
 590 1683 590 1683 618.5 1698.5 c 128,-1,16
 647 1714 647 1714 659 1724 c 1,17,-1
 711 1709 l 1,18,-1
 708 830 l 1,19,-1
 967 804 l 1,20,-1
 967 719 l 1,21,-1
 243 719 l 1,22,-1
 243 804 l 1,6,-1
1995 1121 m 1,23,-1
 2058 1121 l 1,24,-1
 2156 1033 l 1,25,-1
 1866 653 l 1,26,-1
 1673 400 l 1,27,-1
 1601 298 l 1,28,-1
 2037 324 l 1,29,-1
 2039 592 l 1,30,-1
 2215 612 l 1,31,-1
 2215 335 l 1,32,-1
 2478 351 l 1,33,-1
 2481 181 l 1,34,-1
 2215 181 l 1,35,-1
 2215 -184 l 1,36,-1
 2034 -184 l 1,37,-1
 2036 181 l 1,38,-1
 1461 181 l 1,39,-1
 1430 275 l 1,40,-1
 1995 1121 l 1,23,-1
EndSplineSet
EndChar

StartChar: onehalf
Encoding: 189 189 158
Width: 2626
Flags: W
LayerCount: 2
Fore
SplineSet
1491 1881 m 1,0,-1
 1634 1881 l 1,1,-1
 1008 -343 l 1,2,3
 972 -343 972 -343 936.5 -342.5 c 128,-1,4
 901 -342 901 -342 865 -342 c 1,5,-1
 1491 1881 l 1,0,-1
243 804 m 1,6,-1
 515 831 l 1,7,-1
 515 1484 l 1,8,-1
 243 1431 l 1,9,-1
 223 1530 l 1,10,11
 253 1539 253 1539 294 1554 c 128,-1,12
 335 1569 335 1569 379.5 1587 c 128,-1,13
 424 1605 424 1605 469 1625.5 c 128,-1,14
 514 1646 514 1646 552 1664.5 c 128,-1,15
 590 1683 590 1683 618.5 1698.5 c 128,-1,16
 647 1714 647 1714 659 1724 c 1,17,-1
 711 1709 l 1,18,-1
 708 830 l 1,19,-1
 967 804 l 1,20,-1
 967 719 l 1,21,-1
 243 719 l 1,22,-1
 243 804 l 1,6,-1
1592 99 m 1,23,24
 1677 154 1677 154 1758 201.5 c 128,-1,25
 1839 249 1839 249 1910.5 292.5 c 128,-1,26
 1982 336 1982 336 2042.5 378.5 c 128,-1,27
 2103 421 2103 421 2146.5 465.5 c 128,-1,28
 2190 510 2190 510 2214.5 558.5 c 128,-1,29
 2239 607 2239 607 2239 663 c 0,30,31
 2239 723 2239 723 2215 763 c 0,32,33
 2190 805 2190 805 2135.5 827 c 128,-1,34
 2081 849 2081 849 1987 849 c 0,35,36
 1937 849 1937 849 1888 834.5 c 128,-1,37
 1839 820 1839 820 1795 798 c 128,-1,38
 1751 776 1751 776 1714.5 750.5 c 128,-1,39
 1678 725 1678 725 1654 703 c 1,40,-1
 1601 788 l 1,41,42
 1629 824 1629 824 1677.5 859 c 128,-1,43
 1726 894 1726 894 1787 921.5 c 128,-1,44
 1848 949 1848 949 1919 965.5 c 128,-1,45
 1990 982 1990 982 2063 982 c 0,46,47
 2164 982 2164 982 2234.5 958 c 128,-1,48
 2305 934 2305 934 2349.5 895.5 c 128,-1,49
 2394 857 2394 857 2414.5 810 c 128,-1,50
 2435 763 2435 763 2435 717 c 0,51,52
 2435 648 2435 648 2411.5 589.5 c 128,-1,53
 2388 531 2388 531 2345.5 480.5 c 128,-1,54
 2303 430 2303 430 2244 384 c 128,-1,55
 2185 338 2185 338 2113.5 293 c 128,-1,56
 2042 248 2042 248 1960 202 c 128,-1,57
 1878 156 1878 156 1791 104 c 1,58,-1
 2335 145 l 1,59,-1
 2431 263 l 1,60,-1
 2517 235 l 1,61,-1
 2462 0 l 1,62,-1
 1629 0 l 1,63,-1
 1592 99 l 1,23,24
EndSplineSet
EndChar

StartChar: threequarters
Encoding: 190 190 159
Width: 2795
Flags: W
LayerCount: 2
Fore
SplineSet
1491 1881 m 1,0,-1
 1634 1881 l 1,1,-1
 1008 -343 l 1,2,3
 972 -343 972 -343 936.5 -342.5 c 128,-1,4
 901 -342 901 -342 865 -342 c 1,5,-1
 1491 1881 l 1,0,-1
205 806 m 1,6,7
 234 800 234 800 269.5 795 c 128,-1,8
 305 790 305 790 341 786 c 128,-1,9
 377 782 377 782 409.5 780.5 c 128,-1,10
 442 779 442 779 466 779 c 0,11,12
 614 782 614 782 691.5 843 c 128,-1,13
 769 904 769 904 769 1003 c 0,14,15
 769 1013 769 1013 767 1027.5 c 128,-1,16
 765 1042 765 1042 758 1058.5 c 128,-1,17
 751 1075 751 1075 737.5 1092 c 128,-1,18
 724 1109 724 1109 701 1124 c 256,19,20
 678 1139 678 1139 644 1150.5 c 128,-1,21
 610 1162 610 1162 562 1167 c 1,22,-1
 355 1127 l 1,23,-1
 355 1245 l 1,24,25
 437 1261 437 1261 501 1280 c 128,-1,26
 565 1299 565 1299 609.5 1326.5 c 128,-1,27
 654 1354 654 1354 677.5 1392.5 c 128,-1,28
 701 1431 701 1431 701 1486 c 0,29,30
 701 1522 701 1522 674 1549 c 0,31,32
 648 1575 648 1575 604.5 1587 c 128,-1,33
 561 1599 561 1599 510 1597 c 0,34,35
 472 1595 472 1595 431 1587 c 128,-1,36
 390 1579 390 1579 351 1567 c 128,-1,37
 312 1555 312 1555 277.5 1539 c 128,-1,38
 243 1523 243 1523 218 1505 c 1,39,-1
 169 1573 l 1,40,41
 192 1591 192 1591 231 1613.5 c 128,-1,42
 270 1636 270 1636 317.5 1656.5 c 128,-1,43
 365 1677 365 1677 417.5 1692.5 c 128,-1,44
 470 1708 470 1708 520 1713 c 0,45,46
 619 1723 619 1723 691 1713 c 128,-1,47
 763 1703 763 1703 809.5 1676.5 c 128,-1,48
 856 1650 856 1650 878.5 1608 c 128,-1,49
 901 1566 901 1566 901 1512 c 0,50,51
 901 1421 901 1421 842.5 1354 c 128,-1,52
 784 1287 784 1287 669 1245 c 1,53,54
 769 1245 769 1245 829.5 1221 c 128,-1,55
 890 1197 890 1197 921.5 1160.5 c 128,-1,56
 953 1124 953 1124 963 1082.5 c 128,-1,57
 973 1041 973 1041 973 1007 c 0,58,59
 973 936 973 936 942 875.5 c 128,-1,60
 911 815 911 815 851.5 770 c 128,-1,61
 792 725 792 725 706 699.5 c 128,-1,62
 620 674 620 674 511 674 c 0,63,64
 481 674 481 674 443 676.5 c 128,-1,65
 405 679 405 679 364.5 684 c 128,-1,66
 324 689 324 689 282.5 696 c 128,-1,67
 241 703 241 703 205 712 c 1,68,-1
 205 806 l 1,6,7
1995 1121 m 1,69,-1
 2058 1121 l 1,70,-1
 2156 1033 l 1,71,-1
 1866 653 l 1,72,-1
 1673 400 l 1,73,-1
 1601 298 l 1,74,-1
 2037 324 l 1,75,-1
 2039 592 l 1,76,-1
 2215 612 l 1,77,-1
 2215 335 l 1,78,-1
 2478 351 l 1,79,-1
 2481 181 l 1,80,-1
 2215 181 l 1,81,-1
 2215 -184 l 1,82,-1
 2034 -184 l 1,83,-1
 2036 181 l 1,84,-1
 1461 181 l 1,85,-1
 1430 275 l 1,86,-1
 1995 1121 l 1,69,-1
EndSplineSet
EndChar

StartChar: degree
Encoding: 176 176 160
Width: 708
Flags: W
LayerCount: 2
Fore
SplineSet
353 1052 m 0,0,1
 288 1052 288 1052 230 1077 c 128,-1,2
 172 1102 172 1102 128.5 1145 c 128,-1,3
 85 1188 85 1188 60 1245.5 c 128,-1,4
 35 1303 35 1303 35 1368 c 256,5,6
 35 1433 35 1433 60 1490.5 c 128,-1,7
 85 1548 85 1548 128.5 1591 c 128,-1,8
 172 1634 172 1634 230 1659 c 128,-1,9
 288 1684 288 1684 353 1684 c 0,10,11
 419 1684 419 1684 477 1659 c 128,-1,12
 535 1634 535 1634 578.5 1591 c 128,-1,13
 622 1548 622 1548 647 1490.5 c 128,-1,14
 672 1433 672 1433 672 1368 c 256,15,16
 672 1303 672 1303 647 1245.5 c 128,-1,17
 622 1188 622 1188 578.5 1145 c 128,-1,18
 535 1102 535 1102 477 1077 c 128,-1,19
 419 1052 419 1052 353 1052 c 0,0,1
353 1166 m 256,20,21
 395 1166 395 1166 431.5 1182 c 128,-1,22
 468 1198 468 1198 495 1226 c 128,-1,23
 522 1254 522 1254 537.5 1290.5 c 128,-1,24
 553 1327 553 1327 553 1369 c 256,25,26
 553 1411 553 1411 537.5 1447.5 c 128,-1,27
 522 1484 522 1484 495 1511.5 c 128,-1,28
 468 1539 468 1539 431.5 1555 c 128,-1,29
 395 1571 395 1571 353 1571 c 256,30,31
 311 1571 311 1571 274.5 1555 c 128,-1,32
 238 1539 238 1539 211 1511.5 c 128,-1,33
 184 1484 184 1484 168.5 1447.5 c 128,-1,34
 153 1411 153 1411 153 1369 c 256,35,36
 153 1327 153 1327 168.5 1290.5 c 128,-1,37
 184 1254 184 1254 211 1226 c 128,-1,38
 238 1198 238 1198 274.5 1182 c 128,-1,39
 311 1166 311 1166 353 1166 c 256,20,21
EndSplineSet
EndChar

StartChar: plusminus
Encoding: 177 177 161
Width: 1233
Flags: W
LayerCount: 2
Fore
SplineSet
532 561 m 1,0,-1
 539 719 l 1,1,-1
 380 710 l 1,2,-1
 160 710 l 1,3,-1
 160 883 l 1,4,-1
 380 883 l 1,5,-1
 539 871 l 1,6,-1
 532 1032 l 1,7,-1
 532 1260 l 1,8,-1
 699 1260 l 1,9,-1
 699 1032 l 1,10,-1
 692 871 l 1,11,-1
 822 883 l 1,12,-1
 1073 883 l 1,13,-1
 1073 710 l 1,14,-1
 822 710 l 1,15,-1
 692 719 l 1,16,-1
 699 561 l 1,17,-1
 699 321 l 1,18,-1
 532 321 l 1,19,-1
 532 561 l 1,0,-1
173 177 m 1,20,-1
 1058 177 l 1,21,-1
 1058 30 l 1,22,-1
 173 30 l 1,23,-1
 173 177 l 1,20,-1
EndSplineSet
EndChar

StartChar: multiply
Encoding: 215 215 162
Width: 1256
Flags: W
LayerCount: 2
Fore
SplineSet
179 477 m 1,0,-1
 522 795 l 1,1,-1
 178 1133 l 1,2,-1
 292 1249 l 1,3,-1
 625 897 l 1,4,-1
 953 1248 l 1,5,-1
 1072 1132 l 1,6,-1
 724 798 l 1,7,-1
 1072 455 l 1,8,-1
 959 342 l 1,9,-1
 622 695 l 1,10,-1
 298 342 l 1,11,-1
 179 477 l 1,0,-1
EndSplineSet
EndChar

StartChar: divide
Encoding: 247 247 163
Width: 1205
Flags: W
LayerCount: 2
Fore
SplineSet
593 1052 m 0,0,1
 569 1052 569 1052 546 1060.5 c 128,-1,2
 523 1069 523 1069 505.5 1084.5 c 128,-1,3
 488 1100 488 1100 477.5 1123 c 128,-1,4
 467 1146 467 1146 467 1175 c 0,5,6
 467 1206 467 1206 480.5 1233 c 128,-1,7
 494 1260 494 1260 515 1279.5 c 128,-1,8
 536 1299 536 1299 562.5 1310 c 128,-1,9
 589 1321 589 1321 616 1321 c 0,10,11
 682 1321 682 1321 712.5 1284.5 c 128,-1,12
 743 1248 743 1248 743 1197 c 0,13,14
 743 1164 743 1164 730 1137 c 128,-1,15
 717 1110 717 1110 696 1091.5 c 128,-1,16
 675 1073 675 1073 648 1062.5 c 128,-1,17
 621 1052 621 1052 593 1052 c 0,0,1
160 874 m 1,18,-1
 1045 874 l 1,19,-1
 1045 727 l 1,20,-1
 160 727 l 1,21,-1
 160 874 l 1,18,-1
467 398 m 0,22,23
 467 429 467 429 480.5 456 c 128,-1,24
 494 483 494 483 515 502.5 c 128,-1,25
 536 522 536 522 562.5 533 c 128,-1,26
 589 544 589 544 616 544 c 0,27,28
 682 544 682 544 712.5 507.5 c 128,-1,29
 743 471 743 471 743 420 c 0,30,31
 743 387 743 387 730 360 c 128,-1,32
 717 333 717 333 696 314.5 c 128,-1,33
 675 296 675 296 648 285.5 c 128,-1,34
 621 275 621 275 593 275 c 0,35,36
 569 275 569 275 546 283.5 c 128,-1,37
 523 292 523 292 505.5 307.5 c 128,-1,38
 488 323 488 323 477.5 346 c 128,-1,39
 467 369 467 369 467 398 c 0,22,23
EndSplineSet
EndChar

StartChar: logicalnot
Encoding: 172 172 164
Width: 1256
Flags: W
LayerCount: 2
Fore
SplineSet
180 700 m 1,0,-1
 1056 700 l 1,1,-1
 1056 171 l 1,2,-1
 892 171 l 1,3,-1
 892 572 l 1,4,-1
 180 572 l 1,5,-1
 180 700 l 1,0,-1
EndSplineSet
EndChar

StartChar: mu
Encoding: 181 181 165
AltUni2: 0003bc.ffffffff.0
Width: 1229
Flags: W
LayerCount: 2
Fore
SplineSet
390 -373 m 1,0,-1
 201 -373 l 1,1,-1
 201 440 l 1,2,-1
 201 461 l 1,3,-1
 201 977 l 1,4,-1
 98 1007 l 1,5,-1
 98 1084 l 1,6,-1
 355 1139 l 1,7,-1
 390 1121 l 1,8,-1
 390 415 l 1,9,10
 391 337 391 337 400.5 280.5 c 128,-1,11
 410 224 410 224 434.5 187.5 c 128,-1,12
 459 151 459 151 500.5 133.5 c 128,-1,13
 542 116 542 116 606 116 c 0,14,15
 651 116 651 116 694.5 128.5 c 128,-1,16
 738 141 738 141 775.5 158.5 c 128,-1,17
 813 176 813 176 841 195.5 c 128,-1,18
 869 215 869 215 882 229 c 1,19,-1
 882 968 l 1,20,-1
 757 1000 l 1,21,-1
 757 1082 l 1,22,-1
 1043 1139 l 1,23,-1
 1071 1122 l 1,24,-1
 1071 85 l 1,25,-1
 1191 85 l 1,26,-1
 1191 9 l 1,27,28
 1176 1 1176 1 1154 -6.5 c 128,-1,29
 1132 -14 1132 -14 1106.5 -20 c 128,-1,30
 1081 -26 1081 -26 1054.5 -30 c 128,-1,31
 1028 -34 1028 -34 1004 -34 c 0,32,33
 956 -34 956 -34 928.5 -13.5 c 128,-1,34
 901 7 901 7 901 52 c 2,35,-1
 901 134 l 1,36,37
 814 55 814 55 718.5 17 c 128,-1,38
 623 -21 623 -21 532 -21 c 0,39,40
 489 -21 489 -21 454 -16 c 128,-1,41
 419 -11 419 -11 390 -2 c 1,42,-1
 390 -373 l 1,0,-1
EndSplineSet
EndChar

StartChar: periodcentered
Encoding: 183 183 166
Width: 706
Flags: W
LayerCount: 2
Fore
SplineSet
340 674 m 0,0,1
 316 674 316 674 293 682.5 c 128,-1,2
 270 691 270 691 252.5 706.5 c 128,-1,3
 235 722 235 722 224.5 745 c 128,-1,4
 214 768 214 768 214 797 c 0,5,6
 214 828 214 828 227.5 855 c 128,-1,7
 241 882 241 882 262 901.5 c 128,-1,8
 283 921 283 921 309.5 932 c 128,-1,9
 336 943 336 943 363 943 c 0,10,11
 429 943 429 943 459.5 906.5 c 128,-1,12
 490 870 490 870 490 819 c 0,13,14
 490 786 490 786 477 759 c 128,-1,15
 464 732 464 732 443 713.5 c 128,-1,16
 422 695 422 695 395 684.5 c 128,-1,17
 368 674 368 674 340 674 c 0,0,1
EndSplineSet
EndChar

StartChar: hyphen
Encoding: 45 45 167
Width: 1205
Flags: W
LayerCount: 2
Fore
SplineSet
160 874 m 1,0,-1
 1045 874 l 1,1,-1
 1045 727 l 1,2,-1
 160 727 l 1,3,-1
 160 874 l 1,0,-1
EndSplineSet
EndChar

StartChar: brokenbar
Encoding: 166 166 168
Width: 873
Flags: W
LayerCount: 2
Fore
SplineSet
357 1780 m 1,0,-1
 530 1780 l 1,1,-1
 530 886 l 1,2,-1
 357 886 l 1,3,-1
 357 1780 l 1,0,-1
357 708 m 1,4,-1
 530 708 l 1,5,-1
 530 -186 l 1,6,-1
 357 -186 l 1,7,-1
 357 708 l 1,4,-1
EndSplineSet
EndChar

StartChar: euro
Encoding: 8364 8364 169
Width: 1592
Flags: W
LayerCount: 2
Fore
SplineSet
105 693 m 1,0,-1
 300 693 l 1,1,-1
 300 724 l 2,2,3
 300 769 300 769 303 812 c 128,-1,4
 306 855 306 855 311 897 c 1,5,-1
 135 897 l 1,6,-1
 135 1024 l 1,7,-1
 335 1024 l 1,8,9
 367 1149 367 1149 427 1246.5 c 128,-1,10
 487 1344 487 1344 571.5 1411 c 128,-1,11
 656 1478 656 1478 763 1513 c 128,-1,12
 870 1548 870 1548 996 1548 c 0,13,14
 1068 1548 1068 1548 1130 1539.5 c 128,-1,15
 1192 1531 1192 1531 1244 1519.5 c 128,-1,16
 1296 1508 1296 1508 1338 1496 c 128,-1,17
 1380 1484 1380 1484 1413 1477 c 1,18,-1
 1397 1187 l 1,19,-1
 1311 1187 l 1,20,-1
 1259 1354 l 1,21,22
 1196 1397 1196 1397 1117 1414.5 c 128,-1,23
 1038 1432 1038 1432 933 1432 c 0,24,25
 762 1432 762 1432 660 1329.5 c 128,-1,26
 558 1227 558 1227 523 1024 c 1,27,-1
 1093 1024 l 1,28,-1
 1093 897 l 1,29,-1
 508 897 l 1,30,31
 506 870 506 870 505 842.5 c 128,-1,32
 504 815 504 815 504 786 c 0,33,34
 504 762 504 762 504 739 c 128,-1,35
 504 716 504 716 506 693 c 1,36,-1
 1063 693 l 1,37,-1
 1063 566 l 1,38,-1
 515 566 l 1,39,40
 527 462 527 462 556 372.5 c 128,-1,41
 585 283 585 283 636 217.5 c 128,-1,42
 687 152 687 152 764 114.5 c 128,-1,43
 841 77 841 77 951 77 c 0,44,45
 1012 77 1012 77 1058 83 c 128,-1,46
 1104 89 1104 89 1142 101 c 128,-1,47
 1180 113 1180 113 1213 132 c 128,-1,48
 1246 151 1246 151 1280 177 c 1,49,50
 1301 264 1301 264 1325 351 c 1,51,52
 1348 351 1348 351 1369.5 350.5 c 128,-1,53
 1391 350 1391 350 1414 350 c 1,54,-1
 1414 63 l 1,55,56
 1378 61 1378 61 1334.5 47 c 128,-1,57
 1291 33 1291 33 1231 16 c 128,-1,58
 1171 -1 1171 -1 1091.5 -14.5 c 128,-1,59
 1012 -28 1012 -28 905 -28 c 0,60,61
 769 -28 769 -28 665 14.5 c 128,-1,62
 561 57 561 57 487 135 c 128,-1,63
 413 213 413 213 369 322.5 c 128,-1,64
 325 432 325 432 309 566 c 1,65,-1
 105 566 l 1,66,-1
 105 693 l 1,0,-1
EndSplineSet
EndChar

StartChar: macron
Encoding: 175 175 170
Width: 959
Flags: W
LayerCount: 2
Fore
SplineSet
214 1584 m 1,0,-1
 745 1584 l 1,1,-1
 745 1436 l 1,2,-1
 214 1436 l 1,3,-1
 214 1584 l 1,0,-1
EndSplineSet
EndChar

StartChar: carondl
Encoding: 65540 -1 171
Width: 0
Flags: W
LayerCount: 2
Fore
SplineSet
92 1593 m 1,0,-1
 256 1593 l 1,1,-1
 193 1017 l 1,2,-1
 73 1017 l 1,3,-1
 92 1593 l 1,0,-1
EndSplineSet
EndChar

StartChar: commabelow
Encoding: 65541 -1 172
Width: 0
Flags: W
LayerCount: 2
Fore
SplineSet
277 0 m 1,0,1
 329 -6 329 -6 374 -24.5 c 128,-1,2
 419 -43 419 -43 452.5 -72.5 c 128,-1,3
 486 -102 486 -102 505 -142 c 128,-1,4
 524 -182 524 -182 524 -231 c 0,5,6
 524 -299 524 -299 494.5 -350.5 c 128,-1,7
 465 -402 465 -402 420.5 -439.5 c 128,-1,8
 376 -477 376 -477 323.5 -502 c 128,-1,9
 271 -527 271 -527 226 -540 c 1,10,-1
 170 -489 l 1,11,-1
 170 -453 l 1,12,13
 201 -441 201 -441 229.5 -423.5 c 128,-1,14
 258 -406 258 -406 280 -384 c 128,-1,15
 302 -362 302 -362 315 -338 c 128,-1,16
 328 -314 328 -314 328 -288 c 0,17,18
 328 -257 328 -257 316.5 -232.5 c 128,-1,19
 305 -208 305 -208 285.5 -190.5 c 128,-1,20
 266 -173 266 -173 240 -162.5 c 128,-1,21
 214 -152 214 -152 185 -149 c 1,22,-1
 185 -104 l 1,23,-1
 277 0 l 1,0,1
EndSplineSet
EndChar

StartChar: commaaccent
Encoding: 65542 -1 173
Width: 830
Flags: W
LayerCount: 2
Fore
SplineSet
277 0 m 1,0,1
 329 -6 329 -6 374 -24.5 c 128,-1,2
 419 -43 419 -43 452.5 -72.5 c 128,-1,3
 486 -102 486 -102 505 -142 c 128,-1,4
 524 -182 524 -182 524 -231 c 0,5,6
 524 -299 524 -299 494.5 -350.5 c 128,-1,7
 465 -402 465 -402 420.5 -439.5 c 128,-1,8
 376 -477 376 -477 323.5 -502 c 128,-1,9
 271 -527 271 -527 226 -540 c 1,10,-1
 170 -489 l 1,11,-1
 170 -453 l 1,12,13
 201 -441 201 -441 229.5 -423.5 c 128,-1,14
 258 -406 258 -406 280 -384 c 128,-1,15
 302 -362 302 -362 315 -338 c 128,-1,16
 328 -314 328 -314 328 -288 c 0,17,18
 328 -257 328 -257 316.5 -232.5 c 128,-1,19
 305 -208 305 -208 285.5 -190.5 c 128,-1,20
 266 -173 266 -173 240 -162.5 c 128,-1,21
 214 -152 214 -152 185 -149 c 1,22,-1
 185 -104 l 1,23,-1
 277 0 l 1,0,1
EndSplineSet
EndChar

StartChar: acute.cap
Encoding: 65543 -1 174
Width: 828
Flags: W
LayerCount: 2
Fore
SplineSet
396 1671 m 1,0,-1
 712 2010 l 1,1,-1
 846 1868 l 1,2,3
 817 1824 817 1824 770.5 1786.5 c 128,-1,4
 724 1749 724 1749 670 1717 c 128,-1,5
 616 1685 616 1685 558.5 1660 c 128,-1,6
 501 1635 501 1635 449 1617 c 1,7,-1
 396 1671 l 1,0,-1
EndSplineSet
EndChar

StartChar: grave.cap
Encoding: 65544 -1 175
Width: 574
Flags: W
LayerCount: 2
Fore
SplineSet
402 1617 m 1,0,1
 349 1636 349 1636 293.5 1659.5 c 128,-1,2
 238 1683 238 1683 186 1713 c 128,-1,3
 134 1743 134 1743 87.5 1781.5 c 128,-1,4
 41 1820 41 1820 5 1868 c 1,5,-1
 151 2017 l 1,6,-1
 455 1671 l 1,7,-1
 402 1617 l 1,8,-1
 402 1617 l 1,0,1
EndSplineSet
EndChar

StartChar: dieresis.cap
Encoding: 65545 -1 176
Width: 886
Flags: W
LayerCount: 2
Fore
SplineSet
665 1701 m 0,0,1
 641 1701 641 1701 618 1709.5 c 128,-1,2
 595 1718 595 1718 577.5 1733.5 c 128,-1,3
 560 1749 560 1749 549.5 1772 c 128,-1,4
 539 1795 539 1795 539 1824 c 0,5,6
 539 1855 539 1855 552.5 1882 c 128,-1,7
 566 1909 566 1909 587 1928.5 c 128,-1,8
 608 1948 608 1948 634.5 1959 c 128,-1,9
 661 1970 661 1970 688 1970 c 0,10,11
 754 1970 754 1970 784.5 1933.5 c 128,-1,12
 815 1897 815 1897 815 1846 c 0,13,14
 815 1813 815 1813 802 1786 c 128,-1,15
 789 1759 789 1759 768 1740.5 c 128,-1,16
 747 1722 747 1722 720 1711.5 c 128,-1,17
 693 1701 693 1701 665 1701 c 0,0,1
199 1701 m 0,18,19
 175 1701 175 1701 152 1709.5 c 128,-1,20
 129 1718 129 1718 111.5 1733.5 c 128,-1,21
 94 1749 94 1749 83.5 1772 c 128,-1,22
 73 1795 73 1795 73 1824 c 0,23,24
 73 1855 73 1855 86.5 1882 c 128,-1,25
 100 1909 100 1909 121 1928.5 c 128,-1,26
 142 1948 142 1948 168.5 1959 c 128,-1,27
 195 1970 195 1970 222 1970 c 0,28,29
 288 1970 288 1970 318.5 1933.5 c 128,-1,30
 349 1897 349 1897 349 1846 c 0,31,32
 349 1813 349 1813 336 1786 c 128,-1,33
 323 1759 323 1759 302 1740.5 c 128,-1,34
 281 1722 281 1722 254 1711.5 c 128,-1,35
 227 1701 227 1701 199 1701 c 0,18,19
EndSplineSet
EndChar

StartChar: circumflex.cap
Encoding: 65546 -1 177
Width: 816
Flags: W
LayerCount: 2
Fore
SplineSet
47 1644 m 1,0,-1
 330 1956 l 1,1,-1
 519 1956 l 1,2,-1
 801 1644 l 1,3,-1
 714 1598 l 1,4,-1
 423 1820 l 1,5,-1
 125 1598 l 1,6,-1
 47 1644 l 1,0,-1
EndSplineSet
EndChar

StartChar: caron.cap
Encoding: 65547 -1 178
Width: 708
Flags: W
LayerCount: 2
Fore
SplineSet
-28 1970 m 1,0,-1
 36 2021 l 1,1,-1
 345 1751 l 1,2,-1
 659 2016 l 1,3,-1
 710 1975 l 1,4,-1
 434 1646 l 1,5,-1
 265 1646 l 1,6,-1
 -28 1970 l 1,0,-1
EndSplineSet
EndChar

StartChar: breve.cap
Encoding: 65548 -1 179
Width: 574
Flags: W
LayerCount: 2
Fore
SplineSet
287 1643 m 0,0,1
 211 1643 211 1643 151 1674.5 c 128,-1,2
 91 1706 91 1706 49 1756.5 c 128,-1,3
 7 1807 7 1807 -15 1869 c 128,-1,4
 -37 1931 -37 1931 -37 1992 c 1,5,-1
 47 1992 l 1,6,7
 51 1986 51 1986 57.5 1968.5 c 128,-1,8
 64 1951 64 1951 74.5 1928 c 128,-1,9
 85 1905 85 1905 102 1880 c 128,-1,10
 119 1855 119 1855 144.5 1834.5 c 128,-1,11
 170 1814 170 1814 205 1800.5 c 128,-1,12
 240 1787 240 1787 288 1787 c 256,13,14
 336 1787 336 1787 371.5 1800.5 c 128,-1,15
 407 1814 407 1814 432.5 1834.5 c 128,-1,16
 458 1855 458 1855 474.5 1880 c 128,-1,17
 491 1905 491 1905 502 1927.5 c 128,-1,18
 513 1950 513 1950 519.5 1968 c 128,-1,19
 526 1986 526 1986 531 1993 c 1,20,-1
 611 1993 l 1,21,22
 611 1932 611 1932 587.5 1869.5 c 128,-1,23
 564 1807 564 1807 521 1757 c 128,-1,24
 478 1707 478 1707 418.5 1675 c 128,-1,25
 359 1643 359 1643 287 1643 c 0,0,1
EndSplineSet
EndChar

StartChar: dotaccent.cap
Encoding: 65549 -1 180
Width: 574
Flags: W
LayerCount: 2
Fore
SplineSet
278 1694 m 0,0,1
 254 1694 254 1694 231 1702.5 c 128,-1,2
 208 1711 208 1711 190.5 1726.5 c 128,-1,3
 173 1742 173 1742 162.5 1765 c 128,-1,4
 152 1788 152 1788 152 1817 c 0,5,6
 152 1848 152 1848 165.5 1875 c 128,-1,7
 179 1902 179 1902 200 1921.5 c 128,-1,8
 221 1941 221 1941 247.5 1952 c 128,-1,9
 274 1963 274 1963 301 1963 c 0,10,11
 367 1963 367 1963 397.5 1926.5 c 128,-1,12
 428 1890 428 1890 428 1839 c 0,13,14
 428 1806 428 1806 415 1779 c 128,-1,15
 402 1752 402 1752 381 1733.5 c 128,-1,16
 360 1715 360 1715 333 1704.5 c 128,-1,17
 306 1694 306 1694 278 1694 c 0,0,1
EndSplineSet
EndChar

StartChar: ring.cap
Encoding: 65550 -1 181
Width: 574
Flags: W
LayerCount: 2
Fore
SplineSet
272 1470 m 256,0,1
 220 1470 220 1470 174.5 1489 c 128,-1,2
 129 1508 129 1508 94.5 1540.5 c 128,-1,3
 60 1573 60 1573 40 1617 c 128,-1,4
 20 1661 20 1661 20 1711 c 256,5,6
 20 1761 20 1761 40 1805 c 128,-1,7
 60 1849 60 1849 94.5 1881.5 c 128,-1,8
 129 1914 129 1914 174.5 1933 c 128,-1,9
 220 1952 220 1952 272 1952 c 256,10,11
 324 1952 324 1952 369.5 1933 c 128,-1,12
 415 1914 415 1914 449.5 1881.5 c 128,-1,13
 484 1849 484 1849 504 1805 c 128,-1,14
 524 1761 524 1761 524 1711 c 256,15,16
 524 1661 524 1661 504 1617 c 128,-1,17
 484 1573 484 1573 449.5 1540.5 c 128,-1,18
 415 1508 415 1508 369.5 1489 c 128,-1,19
 324 1470 324 1470 272 1470 c 256,0,1
272 1576 m 256,20,21
 299 1576 299 1576 323.5 1586.5 c 128,-1,22
 348 1597 348 1597 366 1615 c 128,-1,23
 384 1633 384 1633 394.5 1657 c 128,-1,24
 405 1681 405 1681 405 1709 c 0,25,26
 405 1736 405 1736 394.5 1760 c 128,-1,27
 384 1784 384 1784 366 1802 c 128,-1,28
 348 1820 348 1820 323.5 1830.5 c 128,-1,29
 299 1841 299 1841 272 1841 c 256,30,31
 245 1841 245 1841 220.5 1830.5 c 128,-1,32
 196 1820 196 1820 178 1802 c 128,-1,33
 160 1784 160 1784 149.5 1760 c 128,-1,34
 139 1736 139 1736 139 1709 c 0,35,36
 139 1681 139 1681 149.5 1657 c 128,-1,37
 160 1633 160 1633 178 1615 c 128,-1,38
 196 1597 196 1597 220.5 1586.5 c 128,-1,39
 245 1576 245 1576 272 1576 c 256,20,21
EndSplineSet
EndChar

StartChar: ogonek.cap
Encoding: 65551 -1 182
Width: 709
Flags: W
LayerCount: 2
Fore
SplineSet
432 10 m 1,0,1
 387 -8 387 -8 338.5 -40.5 c 128,-1,2
 290 -73 290 -73 249.5 -112 c 128,-1,3
 209 -151 209 -151 182.5 -191.5 c 128,-1,4
 156 -232 156 -232 156 -266 c 0,5,6
 156 -313 156 -313 169.5 -339.5 c 128,-1,7
 183 -366 183 -366 211 -378 c 0,8,9
 236 -389 236 -389 280 -389 c 0,10,11
 293 -389 293 -389 310 -386.5 c 128,-1,12
 327 -384 327 -384 345 -379.5 c 128,-1,13
 363 -375 363 -375 380 -369.5 c 128,-1,14
 397 -364 397 -364 409 -358 c 1,15,-1
 431 -446 l 1,16,17
 411 -461 411 -461 382.5 -474 c 128,-1,18
 354 -487 354 -487 320.5 -496.5 c 128,-1,19
 287 -506 287 -506 249 -511 c 128,-1,20
 211 -516 211 -516 172 -516 c 0,21,22
 150 -516 150 -516 131 -512.5 c 128,-1,23
 112 -509 112 -509 95 -504 c 0,24,25
 62 -493 62 -493 39 -473.5 c 128,-1,26
 16 -454 16 -454 1.5 -429 c 128,-1,27
 -13 -404 -13 -404 -19.5 -376.5 c 128,-1,28
 -26 -349 -26 -349 -26 -323 c 0,29,30
 -26 -281 -26 -281 0 -232 c 128,-1,31
 26 -183 26 -183 68.5 -136.5 c 128,-1,32
 111 -90 111 -90 166.5 -51.5 c 128,-1,33
 222 -13 222 -13 282 10 c 1,34,-1
 432 10 l 1,0,1
EndSplineSet
EndChar

StartChar: tilde.cap
Encoding: 65552 -1 183
Width: 886
Flags: W
LayerCount: 2
Fore
SplineSet
56 1731 m 1,0,1
 75 1766 75 1766 105.5 1797.5 c 128,-1,2
 136 1829 136 1829 173.5 1853 c 128,-1,3
 211 1877 211 1877 252.5 1891.5 c 128,-1,4
 294 1906 294 1906 333 1906 c 0,5,6
 382 1906 382 1906 415 1885 c 128,-1,7
 448 1864 448 1864 475.5 1838.5 c 128,-1,8
 503 1813 503 1813 530 1792 c 128,-1,9
 557 1771 557 1771 593 1771 c 0,10,11
 622 1771 622 1771 648.5 1780 c 128,-1,12
 675 1789 675 1789 698.5 1803 c 128,-1,13
 722 1817 722 1817 742 1833.5 c 128,-1,14
 762 1850 762 1850 778 1866 c 1,15,-1
 830 1793 l 1,16,17
 811 1758 811 1758 780.5 1726 c 128,-1,18
 750 1694 750 1694 712.5 1670 c 128,-1,19
 675 1646 675 1646 633.5 1631.5 c 128,-1,20
 592 1617 592 1617 553 1617 c 0,21,22
 520 1617 520 1617 495 1627 c 128,-1,23
 470 1637 470 1637 449 1652 c 128,-1,24
 428 1667 428 1667 410.5 1685 c 128,-1,25
 393 1703 393 1703 375 1718 c 128,-1,26
 357 1733 357 1733 337 1743 c 128,-1,27
 317 1753 317 1753 293 1753 c 0,28,29
 264 1753 264 1753 237 1744 c 128,-1,30
 210 1735 210 1735 186.5 1721 c 128,-1,31
 163 1707 163 1707 143 1690 c 128,-1,32
 123 1673 123 1673 108 1658 c 1,33,-1
 56 1731 l 1,0,1
EndSplineSet
EndChar

StartChar: hungarumlaut.cap
Encoding: 65553 -1 184
Width: 709
Flags: W
LayerCount: 2
Fore
SplineSet
536 1664 m 1,0,-1
 820 2010 l 1,1,-1
 946 1891 l 1,2,3
 911 1846 911 1846 865.5 1806 c 128,-1,4
 820 1766 820 1766 771.5 1731 c 128,-1,5
 723 1696 723 1696 675.5 1665.5 c 128,-1,6
 628 1635 628 1635 589 1610 c 1,7,-1
 536 1664 l 1,0,-1
45 1664 m 1,8,-1
 329 2010 l 1,9,-1
 455 1891 l 1,10,11
 420 1846 420 1846 374.5 1806 c 128,-1,12
 329 1766 329 1766 280.5 1731 c 128,-1,13
 232 1696 232 1696 184.5 1665.5 c 128,-1,14
 137 1635 137 1635 98 1610 c 1,15,-1
 45 1664 l 1,8,-1
EndSplineSet
EndChar

StartChar: registered
Encoding: 174 174 185
Width: 1940
Flags: W
LayerCount: 2
Fore
SplineSet
974 316 m 256,0,1
 859 316 859 316 751.5 347 c 128,-1,2
 644 378 644 378 550 434.5 c 128,-1,3
 456 491 456 491 379 569 c 128,-1,4
 302 647 302 647 247 741.5 c 128,-1,5
 192 836 192 836 161.5 943.5 c 128,-1,6
 131 1051 131 1051 131 1166 c 256,7,8
 131 1281 131 1281 161.5 1389 c 128,-1,9
 192 1497 192 1497 247 1592 c 128,-1,10
 302 1687 302 1687 379 1765 c 128,-1,11
 456 1843 456 1843 550 1899 c 128,-1,12
 644 1955 644 1955 751 1986 c 128,-1,13
 858 2017 858 2017 974 2017 c 0,14,15
 1089 2017 1089 2017 1196 1986 c 128,-1,16
 1303 1955 1303 1955 1396.5 1899 c 128,-1,17
 1490 1843 1490 1843 1567.5 1765 c 128,-1,18
 1645 1687 1645 1687 1700 1592 c 128,-1,19
 1755 1497 1755 1497 1785.5 1389 c 128,-1,20
 1816 1281 1816 1281 1816 1166 c 256,21,22
 1816 1051 1816 1051 1785.5 943.5 c 128,-1,23
 1755 836 1755 836 1700 741.5 c 128,-1,24
 1645 647 1645 647 1567.5 569 c 128,-1,25
 1490 491 1490 491 1396.5 434.5 c 128,-1,26
 1303 378 1303 378 1196 347 c 128,-1,27
 1089 316 1089 316 974 316 c 256,0,1
974 436 m 0,28,29
 1072 436 1072 436 1163.5 462.5 c 128,-1,30
 1255 489 1255 489 1334 537.5 c 128,-1,31
 1413 586 1413 586 1478 653.5 c 128,-1,32
 1543 721 1543 721 1589 802 c 128,-1,33
 1635 883 1635 883 1660.5 975 c 128,-1,34
 1686 1067 1686 1067 1686 1166 c 256,35,36
 1686 1265 1686 1265 1660.5 1358 c 128,-1,37
 1635 1451 1635 1451 1589 1532 c 128,-1,38
 1543 1613 1543 1613 1478 1680.5 c 128,-1,39
 1413 1748 1413 1748 1334 1796 c 128,-1,40
 1255 1844 1255 1844 1163.5 1870.5 c 128,-1,41
 1072 1897 1072 1897 974 1897 c 0,42,43
 875 1897 875 1897 783.5 1870.5 c 128,-1,44
 692 1844 692 1844 613 1796 c 128,-1,45
 534 1748 534 1748 469 1680.5 c 128,-1,46
 404 1613 404 1613 358 1532 c 128,-1,47
 312 1451 312 1451 286.5 1358 c 128,-1,48
 261 1265 261 1265 261 1166 c 256,49,50
 261 1067 261 1067 286.5 975 c 128,-1,51
 312 883 312 883 358 802 c 128,-1,52
 404 721 404 721 469 653.5 c 128,-1,53
 534 586 534 586 613 537.5 c 128,-1,54
 692 489 692 489 783.5 462.5 c 128,-1,55
 875 436 875 436 974 436 c 0,28,29
579 773 m 1,56,-1
 671 801 l 1,57,-1
 671 1529 l 1,58,-1
 579 1553 l 1,59,-1
 579 1650 l 1,60,-1
 739 1650 l 1,61,62
 769 1649 769 1649 790.5 1649 c 128,-1,63
 812 1649 812 1649 838.5 1650 c 128,-1,64
 865 1651 865 1651 902.5 1652.5 c 128,-1,65
 940 1654 940 1654 1003 1655 c 1,66,67
 1175 1655 1175 1655 1263 1594.5 c 128,-1,68
 1351 1534 1351 1534 1354 1419 c 1,69,70
 1354 1374 1354 1374 1343.5 1327.5 c 128,-1,71
 1333 1281 1333 1281 1304.5 1240.5 c 128,-1,72
 1276 1200 1276 1200 1225 1168.5 c 128,-1,73
 1174 1137 1174 1137 1093 1123 c 1,74,75
 1138 1098 1138 1098 1169 1063 c 128,-1,76
 1200 1028 1200 1028 1224 990 c 128,-1,77
 1248 952 1248 952 1268 914.5 c 128,-1,78
 1288 877 1288 877 1310.5 847.5 c 128,-1,79
 1333 818 1333 818 1361 799.5 c 128,-1,80
 1389 781 1389 781 1430 781 c 1,81,-1
 1430 688 l 1,82,-1
 1272 688 l 2,83,84
 1225 688 1225 688 1195 713 c 128,-1,85
 1165 738 1165 738 1143 777 c 128,-1,86
 1121 816 1121 816 1102.5 864.5 c 128,-1,87
 1084 913 1084 913 1061 959 c 128,-1,88
 1038 1005 1038 1005 1006 1044 c 128,-1,89
 974 1083 974 1083 924 1104 c 1,90,-1
 850 1104 l 1,91,-1
 850 795 l 1,92,-1
 941 773 l 1,93,-1
 941 688 l 1,94,-1
 579 688 l 1,95,-1
 579 773 l 1,56,-1
850 1202 m 1,96,97
 880 1196 880 1196 910 1194.5 c 128,-1,98
 940 1193 940 1193 984 1193 c 0,99,100
 1026 1193 1026 1193 1061 1208 c 128,-1,101
 1096 1223 1096 1223 1121 1248 c 128,-1,102
 1146 1273 1146 1273 1160 1306 c 128,-1,103
 1174 1339 1174 1339 1174 1375 c 0,104,105
 1174 1423 1174 1423 1159 1457 c 128,-1,106
 1144 1491 1144 1491 1116.5 1513 c 128,-1,107
 1089 1535 1089 1535 1051 1545 c 128,-1,108
 1013 1555 1013 1555 967 1555 c 0,109,110
 950 1555 950 1555 937.5 1555 c 128,-1,111
 925 1555 925 1555 912.5 1554.5 c 128,-1,112
 900 1554 900 1554 885.5 1551.5 c 128,-1,113
 871 1549 871 1549 850 1544 c 1,114,-1
 850 1202 l 1,96,97
EndSplineSet
EndChar

